<?xml version="1.0" encoding="UTF-8"?>
<svg width="400px" height="400px" viewBox="0 0 400 400" version="1.1" xmlns="http://www.w3.org/2000/svg" xmlns:xlink="http://www.w3.org/1999/xlink">
    <!-- Generator: Sketch 53.2 (72643) - https://sketchapp.com -->
    <title>sorbet-logo-purple-sparkles</title>
    <desc>Created with Sketch.</desc>
    <defs>
        <path d="M244.642661,105.653942 C259.35866,113.852608 269.317327,129.559274 269.317327,147.600607 C269.317327,174.104607 247.831994,195.592606 221.325328,195.592606 C215.435995,195.592606 209.795995,194.525939 204.582662,192.584606 C199.610662,206.515272 186.306662,216.488606 170.666662,216.488606 C159.114663,216.488606 148.839996,211.040606 142.250663,202.580606 L142.250663,241.307272 C142.250663,248.183271 136.62533,253.807271 129.750663,253.807271 C122.875997,253.807271 117.250664,248.183271 117.250664,241.307272 L117.250664,207.780606 C111.775997,213.163272 104.269331,216.488606 95.9839976,216.488606 C81.2306646,216.488606 68.9426649,205.956606 66.214665,192.001939 C60.5946652,194.309939 54.4439986,195.592606 47.9919988,195.592606 C21.4866661,195.592606 0,174.104607 0,147.600607 C0,127.773941 12.0239997,110.759275 29.1759993,103.440608 C31.8959992,46.3046098 79.071998,0.81527758 136.88133,0.81527758 C195.431995,0.81527758 243.050661,47.4872764 244.642661,105.653942 L244.642661,105.653942 Z" id="path-1"></path>
        <path d="M29.1759993,102.633337 C31.8959992,45.4973385 79.071998,0.0080063248 136.88133,0.0080063248 C195.433328,0.0080063248 243.050661,46.6800052 244.642661,104.84667 C259.35866,113.044003 269.31866,128.752003 269.31866,146.793336 C269.31866,173.298669 247.83066,194.784001 221.325328,194.784001 C215.435995,194.784001 209.797328,193.718668 204.582662,191.777335 C199.610662,205.708001 186.305329,215.681334 170.667996,215.681334 C159.113329,215.681334 148.839996,210.233334 142.250663,201.773335 L142.250663,240.501334 C142.250663,247.376 136.62533,253 129.750663,253 C122.875997,253 117.250664,247.376 117.250664,240.501334 L117.250664,206.974668 C111.775997,212.356001 104.270664,215.681334 95.9839976,215.681334 C81.2306646,215.681334 68.9439983,205.149335 66.214665,191.194668 C60.5946652,193.502668 54.4439986,194.784001 47.9919988,194.784001 C21.4866661,194.784001 0,173.298669 0,146.793336 C0,126.96667 12.0239997,109.952004 29.1759993,102.633337 L29.1759993,102.633337 Z" id="path-3"></path>
    </defs>
    <g id="sorbet-logo-purple-sparkles" stroke="none" stroke-width="1" fill="none" fill-rule="evenodd">
        <g id="Main-Cone" transform="translate(74.077649, 34.096364)">
            <g id="Cone" transform="translate(54.187465, 189.188607)">
                <path d="M84.7490645,158.697729 C77.2757314,158.697729 70.6130649,153.987063 68.121065,146.940396 L24.6117327,23.8643994 L144.278396,23.8643994 L101.402397,146.867063 C98.9330642,153.951063 92.251731,158.697729 84.7490645,158.697729 Z" id="path3758" fill="#FFCD85" fill-rule="nonzero"></path>
                <polygon id="path3964" fill="#FFD69F" fill-rule="nonzero" points="30.1806659 39.617599 41.3166656 39.617599 68.7433316 148.453596"></polygon>
                <path d="M104.306931,39.617599 L138.78693,39.617599 L100.758931,148.453596 C99.2482642,152.533596 96.8135976,158.697596 84.7495979,158.697596 C72.6842648,158.697596 68.7442649,148.453596 68.7442649,148.453596 C68.7442649,148.453596 69.8135983,151.53093 75.5922648,151.753596 C82.7829313,152.029596 84.4455979,145.53093 84.4455979,145.53093 L104.306931,39.617599 Z" id="path3968" fill="#F4BD76" fill-rule="nonzero"></path>
                <polygon id="path3762" fill="#E5A85E" fill-rule="nonzero" points="138.786797 39.617599 30.1801326 39.617599 25.677466 26.8775993 143.22813 26.8775993"></polygon>
                <polygon id="path3746" fill="#FFCD85" fill-rule="nonzero" points="168.889329 26.8786647 -1.13686838e-13 26.8786647 -1.13686838e-13 2.41999861 168.889329 2.41999861"></polygon>
                <path d="M168.889596,2.41973327 L168.889596,13.439733 C168.889596,13.439733 161.269596,14.6423996 152.485596,11.3090664 C152.485596,11.3090664 150.813596,24.0023994 137.925597,26.8783993 L39.7229323,26.8783993 L66.4989317,0.103733331 L156.369596,0.103733331 L168.889596,2.41973327 Z" id="path3768" fill="#F4BD76" fill-rule="nonzero"></path>
                <polygon id="path3764" fill="#FFD69F" fill-rule="nonzero" points="11.457333 3.55271368e-15 11.457333 26.878666 0.0013333333 26.878666 0.0013333333 3.55271368e-15"></polygon>
            </g>
            <g id="Sorbet" transform="translate(0.000000, 0.394078)" fill="#997AFC">
                <path d="M244.717727,107.835997 C244.717727,148.78133 221.897728,184.395995 188.281729,202.657328 C173.003062,210.957328 155.492396,176.991996 136.88173,176.991996 C120.480397,176.991996 104.933731,212.010661 91.0163977,205.461328 C54.393732,188.226662 29.0443993,150.991996 29.0443993,107.835997 C29.0443993,48.2799988 77.3243981,-2.84217094e-14 136.88173,-2.84217094e-14 C196.437728,-8.52651283e-14 244.717727,48.2799988 244.717727,107.835997 Z" id="path3772" fill-rule="nonzero"></path>
                <path d="M269.317327,146.784663 C269.317327,120.27933 247.83066,98.7926642 221.325328,98.7926642 C194.819995,98.7926642 173.333329,120.27933 173.333329,146.784663 C173.333329,173.289996 194.819995,194.776662 221.325328,194.776662 C247.83066,194.776662 269.317327,173.289996 269.317327,146.784663" id="path3784" fill-rule="nonzero"></path>
                <path d="M129.750263,166.992262 L129.750263,166.992262 C122.875597,166.992262 117.250264,172.617596 117.250264,179.492262 L117.250264,240.492261 C117.250264,247.366927 122.875597,252.99226 129.750263,252.99226 C136.62493,252.99226 142.250263,247.366927 142.250263,240.492261 L142.250263,179.492262 C142.250263,172.617596 136.62493,166.992262 129.750263,166.992262" id="path3792" fill-rule="nonzero"></path>
                <path d="M170.666262,215.672261 C190.552929,215.672261 206.672928,199.550928 206.672928,179.665596 C206.672928,159.778929 190.552929,143.65893 170.666262,143.65893 C150.779596,143.65893 134.659597,159.778929 134.659597,179.665596" id="path3788" fill-rule="nonzero" transform="translate(170.666262, 179.665596) scale(1, -1) translate(-170.666262, -179.665596) "></path>
                <path d="M126.32453,185.332795 C126.32453,168.576796 112.740531,154.992796 95.9845309,154.992796 C79.227198,154.992796 65.6445317,168.576796 65.6445317,185.332795 C65.6445317,202.088795 79.227198,215.672795 95.9845309,215.672795 C112.740531,215.672795 126.32453,202.088795 126.32453,185.332795" id="path3780" fill-rule="nonzero"></path>
                <path d="M95.9839976,146.784663 C95.9839976,120.27933 74.4973315,98.7926642 47.9919988,98.7926642 C21.4866661,98.7926642 7.10542736e-15,120.27933 7.10542736e-15,146.784663 C7.10542736e-15,173.289996 21.4866661,194.776662 47.9919988,194.776662 C74.4973315,194.776662 95.9839976,173.289996 95.9839976,146.784663" id="path3776" fill-rule="nonzero"></path>
            </g>
            <g id="Stripes" transform="translate(0.034134, 0.000000)">
                <mask id="mask-2" fill="white">
                    <use xlink:href="#path-1"></use>
                </mask>
                <g id="path3802"></g>
                <polygon id="Stripe-5" fill="#8673FF" fill-rule="nonzero" mask="url(#mask-2)" points="291.520126 209.074473 17.2041324 267.381138 12.1227992 243.471805 286.437459 185.163807"></polygon>
                <polygon id="Stripe-4" fill="#8673FF" fill-rule="nonzero" mask="url(#mask-2)" points="291.137326 159.157807 16.8213324 217.464473 11.7386659 193.55514 286.054659 135.247141"></polygon>
                <polygon id="Stripe-3" fill="#8673FF" fill-rule="nonzero" mask="url(#mask-2)" points="261.12826 115.679942 -13.1877335 173.98794 -18.2704 150.077274 256.045593 91.7692757"></polygon>
                <polygon id="Stripe-2" fill="#8673FF" fill-rule="nonzero" mask="url(#mask-2)" points="269.415326 63.8264764 -4.90066704 122.134475 -9.98333358 98.2238089 264.33266 39.9158103"></polygon>
                <polygon id="Stripe-1" fill="#8673FF" fill-rule="nonzero" mask="url(#mask-2)" points="269.415326 13.7431443 -4.90066704 72.0511428 -9.98333358 48.1404768 264.33266 -10.1675218"></polygon>
            </g>
            <g id="Shadow" opacity="0.5" transform="translate(0.367463, 0.473939)">
                <mask id="mask-4" fill="white">
                    <use xlink:href="#path-3"></use>
                </mask>
                <g id="path3870"></g>
                <path d="M129.8268,252.9124 C129.8268,252.9124 134.736133,251.653733 134.736133,241.949733 L134.736133,164.245735 C134.736133,164.245735 137.396133,179.371068 142.3268,185.252401 L142.3268,238.245733 C142.3268,238.245733 142.993467,253.801733 129.8268,252.9124 Z" id="path3842" fill="#7251ED" fill-rule="nonzero" mask="url(#mask-4)"></path>
                <path d="M116.882801,198.245734 L116.882801,206.885734 C91.8828012,228.519067 73.3894684,205.897734 73.3894684,205.897734 C96.3414678,217.3284 116.882801,198.245734 116.882801,198.245734 Z" id="path3858" fill="#7251ED" fill-rule="nonzero" mask="url(#mask-4)"></path>
                <path d="M159.182266,2.21707249 L213.992932,-13.7549271 L283.326263,53.5784045 L299.992929,175.245068 L239.659598,215.593067 L202.970265,195.643734 L206.750265,185.253068 C206.750265,185.253068 243.992931,184.253068 252.992931,157.911735 C265.866264,120.238403 233.562264,100.26907 233.562264,100.26907 C235.463598,29.2930718 160.996933,2.61040581 159.182266,2.21707249 Z" id="path3890" fill="#7251ED" fill-rule="nonzero" mask="url(#mask-4)"></path>
                <path d="M204.915332,168.234668 C208.059332,179.557335 206.749998,185.253335 206.749998,185.253335 C206.749998,185.253335 204.883332,218.690667 204.915332,219.357334 C204.947332,220.024 163.771333,234.690667 163.771333,234.690667 L142.327333,211.134667 L142.327333,185.253335 C142.327333,185.253335 157.543333,208.802667 182.883332,201.462668 C202.971332,195.644001 204.915332,168.234668 204.915332,168.234668 Z" id="path3906" fill="#7251ED" fill-rule="nonzero" mask="url(#mask-4)"></path>
            </g>
            <g id="Gleam" transform="translate(7.446266, 22.720344)">
                <path d="M189.968662,109.973331 C189.968662,107.150664 187.680662,104.862664 184.857995,104.862664 C182.035329,104.862664 179.745996,107.150664 179.745996,109.973331 C179.745996,112.795997 182.035329,115.083997 184.857995,115.083997 C187.680662,115.083997 189.968662,112.795997 189.968662,109.973331" id="path3940" fill="#FFFFFF" fill-rule="nonzero"></path>
                <path d="M219.854795,95.8019582 C209.888128,100.476625 196.054795,98.0672914 191.276129,88.2072917" id="path3932" stroke="#FFFFFF" stroke-width="7.9999998" stroke-linecap="round" stroke-linejoin="round" transform="translate(205.565462, 93.154911) scale(1, -1) translate(-205.565462, -93.154911) "></path>
                <path d="M9.36266643,106.244131 C9.36266643,103.649464 7.26666649,101.546797 4.68133322,101.546797 C2.09599995,101.546797 1.16351373e-13,103.649464 1.16351373e-13,106.244131 C1.16351373e-13,108.838797 2.09599995,110.941464 4.68133322,110.941464 C7.26666649,110.941464 9.36266643,108.838797 9.36266643,106.244131" id="path3944" fill="#FFFFFF" fill-rule="nonzero"></path>
                <path d="M13.0462663,86.3947275 C13.3195997,86.6067275 19.8889328,99.1680605 38.2222657,96.9093939" id="path3936" stroke="#FFFFFF" stroke-width="7.9999998" stroke-linecap="round" stroke-linejoin="round" transform="translate(25.634266, 91.787896) scale(1, -1) translate(-25.634266, -91.787896) "></path>
                <path d="M72.7154648,50.2251987 C72.7154648,50.2251987 55.8274653,37.7465324 47.5661321,13.0358663" id="path3928" stroke="#FFFFFF" stroke-width="7.9999998" stroke-linecap="round" stroke-linejoin="round" transform="translate(60.140798, 31.630533) scale(1, -1) translate(-60.140798, -31.630533) "></path>
                <path d="M88.0259978,5.11066654 C88.0259978,7.93333313 85.7379979,10.2213331 82.9153313,10.2213331 C80.0926647,10.2213331 77.8033314,7.93333313 77.8033314,5.11066654 C77.8033314,2.28799994 80.0926647,-1.59872116e-14 82.9153313,-1.59872116e-14 C85.7379979,-1.59872116e-14 88.0259978,2.28799994 88.0259978,5.11066654 Z" id="path3924" fill="#FFFFFF" fill-rule="nonzero"></path>
            </g>
            <g id="Face" transform="translate(77.394798, 96.684609)">
                <path d="M20.8893328,10.4439997 C20.8893328,16.2133329 16.2133329,20.8879995 10.4453331,20.8879995 C4.67599988,20.8879995 -7.63833441e-14,16.2133329 -7.63833441e-14,10.4439997 C-7.63833441e-14,4.67599988 4.67599988,3.55271368e-15 10.4453331,3.55271368e-15 C16.2133329,3.55271368e-15 20.8893328,4.67599988 20.8893328,10.4439997 Z" id="path3948" fill="#0C0F1E" fill-rule="nonzero"></path>
                <path d="M113.860664,11.4439997 C113.860664,17.2133329 109.184664,21.8879995 103.416664,21.8879995 C97.6486643,21.8879995 92.9713311,17.2133329 92.9713311,11.4439997 C92.9713311,5.67599988 97.6486643,1 103.416664,1 C109.184664,1 113.860664,5.67599988 113.860664,11.4439997 Z" id="path3952" fill="#0C0F1E" fill-rule="nonzero"></path>
                <path d="M38.6777324,16.8886662 L73.1830648,16.8886662 C75.4297314,16.8886662 77.1203981,18.9526662 76.6697314,21.1539995 C74.6963981,30.8006659 66.1603983,38.057999 55.9297319,38.057999 C45.7003989,38.057999 37.1643991,30.8006659 35.1910658,21.1539995 C34.7403991,18.9526662 36.4310658,16.8886662 38.6777324,16.8886662 Z" id="path3956" fill="#0C0F1E" fill-rule="nonzero"></path>
                <path d="M65.753865,30.8977326 C65.753865,33.5190658 61.5431985,35.6443991 56.3485319,35.6443991 C51.1538654,35.6443991 46.9431988,33.5190658 46.9431988,30.8977326 C46.9431988,28.2763993 51.1538654,26.151066 56.3485319,26.151066 C61.5431985,26.151066 65.753865,28.2763993 65.753865,30.8977326 Z" id="path3960" fill="#FF94EB" fill-rule="nonzero"></path>
            </g>
        </g>
        <g id="Sparkles-(Purple)" transform="translate(41.412581, 18.148709)">
            <path d="M6.03961325e-14,123.334 L15.1106663,123.334 L6.03961325e-14,123.334 Z" id="path3988" stroke="#8673FF" stroke-width="3.9999999" stroke-linecap="round" stroke-linejoin="round"></path>
            <path d="M7.55533314,115.778667 L7.55533314,130.889333 L7.55533314,115.778667 Z" id="path3992" stroke="#8673FF" stroke-width="3.9999999" stroke-linecap="round" stroke-linejoin="round"></path>
            <path d="M290,218.334 L305.110666,218.334 L290,218.334 Z" id="path3988" stroke="#8673FF" stroke-width="3.9999999" stroke-linecap="round" stroke-linejoin="round"></path>
            <path d="M297.555333,210.778667 L297.555333,225.889333 L297.555333,210.778667 Z" id="path3992" stroke="#8673FF" stroke-width="3.9999999" stroke-linecap="round" stroke-linejoin="round"></path>
            <path d="M293,32.3340001 L308.110666,32.3340001 L293,32.3340001 Z" id="path3988" stroke="#8673FF" stroke-width="3.9999999" stroke-linecap="round" stroke-linejoin="round"></path>
            <path d="M300.555333,24.7786669 L300.555333,39.8893332 L300.555333,24.7786669 Z" id="path3992" stroke="#8673FF" stroke-width="3.9999999" stroke-linecap="round" stroke-linejoin="round"></path>
            <path d="M27.0000017,75.5559981 C27.0000017,76.7826647 26.0053351,77.7786647 24.7773351,77.7786647 C23.5506685,77.7786647 22.5560018,76.7826647 22.5560018,75.5559981 C22.5560018,74.3293315 23.5506685,73.3333315 24.7773351,73.3333315 C26.0053351,73.3333315 27.0000017,74.3293315 27.0000017,75.5559981 Z" id="Dot-Sparkle-8" fill="#997AFC" fill-rule="nonzero"></path>
            <path d="M23.0000018,152.88933 C23.0000018,154.115996 22.0053352,155.111996 20.7773352,155.111996 C19.5506686,155.111996 18.5560019,154.115996 18.5560019,152.88933 C18.5560019,151.662663 19.5506686,150.666663 20.7773352,150.666663 C22.0053352,150.666663 23.0000018,151.662663 23.0000018,152.88933 Z" id="Dot-Sparkle-7" fill="#997AFC" fill-rule="nonzero"></path>
            <path d="M65.6666674,222.222661 C65.6666674,223.449328 64.6720008,224.445328 63.4440008,224.445328 C62.2173342,224.445328 61.2226675,223.449328 61.2226675,222.222661 C61.2226675,220.995994 62.2173342,219.999994 63.4440008,219.999994 C64.6720008,219.999994 65.6666674,220.995994 65.6666674,222.222661 Z" id="Dot-Sparkle-6" fill="#997AFC" fill-rule="nonzero"></path>
            <path d="M76.3333338,246.222661 C76.3333338,247.449327 75.3386672,248.445327 74.1106672,248.445327 C72.8840006,248.445327 71.8893339,247.449327 71.8893339,246.222661 C71.8893339,244.995994 72.8840006,243.999994 74.1106672,243.999994 C75.3386672,243.999994 76.3333338,244.995994 76.3333338,246.222661 Z" id="Dot-Sparkle-5" fill="#997AFC" fill-rule="nonzero"></path>
            <path d="M318.999994,192.889329 C318.999994,194.115995 318.005328,195.111995 316.777328,195.111995 C315.550661,195.111995 314.555995,194.115995 314.555995,192.889329 C314.555995,191.662662 315.550661,190.666662 316.777328,190.666662 C318.005328,190.666662 318.999994,191.662662 318.999994,192.889329 Z" id="Dot-Sparkle-4" fill="#997AFC" fill-rule="nonzero"></path>
            <path d="M265.666662,19.5559995 C265.666662,20.7826661 264.671996,21.7786661 263.443996,21.7786661 C262.217329,21.7786661 261.222663,20.7826661 261.222663,19.5559995 C261.222663,18.3293329 262.217329,17.3333329 263.443996,17.3333329 C264.671996,17.3333329 265.666662,18.3293329 265.666662,19.5559995 Z" id="Dot-Sparkle-3" fill="#997AFC" fill-rule="nonzero"></path>
            <path d="M118.999999,6.22266651 C118.999999,7.44933315 118.005333,8.44533312 116.777333,8.44533312 C115.550666,8.44533312 114.556,7.44933315 114.556,6.22266651 C114.556,4.99599988 115.550666,3.9999999 116.777333,3.9999999 C118.005333,3.9999999 118.999999,4.99599988 118.999999,6.22266651 Z" id="Dot-Sparkle-2" fill="#997AFC" fill-rule="nonzero"></path>
            <path d="M100.333333,2.22266661 C100.333333,3.44933325 99.3386666,4.44533322 98.1106666,4.44533322 C96.884,4.44533322 95.8893333,3.44933325 95.8893333,2.22266661 C95.8893333,0.995999975 96.884,1.0658141e-14 98.1106666,1.0658141e-14 C99.3386666,1.0658141e-14 100.333333,0.995999975 100.333333,2.22266661 Z" id="Dot-Sparkle-1" fill="#997AFC" fill-rule="nonzero"></path>
        </g>
    </g>
</svg>