<?xml version="1.0" encoding="UTF-8"?>
<svg width="624px" height="400px" viewBox="0 0 624 400" version="1.1" xmlns="http://www.w3.org/2000/svg" xmlns:xlink="http://www.w3.org/1999/xlink">
    <!-- Generator: Sketch 63.1 (92452) - https://sketch.com -->
    <title>sorbet-compiler-logo</title>
    <desc>Created with Sketch.</desc>
    <defs>
        <path d="M29.1759993,102.633337 C31.8959992,45.4973385 79.071998,0.0080063248 136.88133,0.0080063248 C195.433328,0.0080063248 243.050661,46.6800052 244.642661,104.84667 C259.35866,113.044003 269.31866,128.752003 269.31866,146.793336 C269.31866,173.298669 247.83066,194.784001 221.325328,194.784001 C215.435995,194.784001 209.797328,193.718668 204.582662,191.777335 C199.610662,205.708001 186.305329,215.681334 170.667996,215.681334 C159.113329,215.681334 148.839996,210.233334 142.250663,201.773335 L142.250663,240.501334 C142.250663,247.376 136.62533,253 129.750663,253 C122.875997,253 117.250664,247.376 117.250664,240.501334 L117.250664,206.974668 C111.775997,212.356001 104.270664,215.681334 95.9839976,215.681334 C81.2306646,215.681334 68.9439983,205.149335 66.214665,191.194668 C60.5946652,193.502668 54.4439986,194.784001 47.9919988,194.784001 C21.4866661,194.784001 0,173.298669 0,146.793336 C0,126.96667 12.0239997,109.952004 29.1759993,102.633337 L29.1759993,102.633337 Z" id="path-1"></path>
    </defs>
    <g id="sorbet-compiler-logo" stroke="none" stroke-width="1" fill="none" fill-rule="evenodd">
        <g id="Wing" transform="translate(400.000000, 38.000000)">
            <path d="M188.63871,33.1974218 L173.080855,31.3216817 C190.513284,155.33722 174.092784,252.716474 123.819355,323.459444 C138.417996,279.780442 148.235052,240.434151 148.235052,218.892773 C148.235052,207.979359 149.631381,184.066559 134.331003,184.021616 C129.648546,184.008785 123.819355,186.572559 118.699854,193.810689 C118.531816,186.354664 118.625952,176.089371 108.239145,173.486989 C103.57805,172.319166 92.8504733,176.061143 86.0108442,181.673167 C85.9348419,170.22598 73.373238,167.590115 53.9901854,171.745173 C42.9526571,174.111238 18.9338212,178.485751 0.884931439,183.534795 C-2.35864234,165.037911 46.0571783,140.796306 46.0571783,140.796306 L77.6773641,124.964578 C81.4659994,111.81048 75.2404239,78.4889544 59.0006373,25 C88.0774001,7.77161954 131.290091,10.5040935 188.63871,33.1974218 Z" id="wing" stroke="#8665F4" stroke-width="3" fill="#39316E" fill-rule="evenodd" stroke-linecap="round"></path>
            <path d="M77.6773641,124.964578 C88.4982557,135.519063 91.2760824,154.421926 86.0108442,181.673167" id="Inner-Accent" stroke="#8665F4" stroke-width="3"></path>
            <path d="M77.6773641,124.964578 C120.261807,127.099132 133.93597,150.047835 118.699854,193.810689" id="Middle-Accent" stroke="#8665F4" stroke-width="3"></path>
            <path d="M59,25 C90.8783895,28.5796716 118.166678,46.1909993 140.864865,77.8339831 C174.912146,125.298459 183.923415,207.685166 123.819355,323.459444" id="Outer-Accent" stroke="#8665F4" stroke-width="3"></path>
            <path d="M57.9754594,23.9018312 C65.3602272,13.7876804 76.8010101,5.88202655 92.2978079,0.184869548 C89.4540869,2.05146149 72.4405285,13.8346792 64.3805507,24.6549386 L57.9754594,23.9018312" id="Top-Spike" fill="#8665F4" fill-rule="evenodd"></path>
            <circle id="Top-Dot" fill="#8665F4" fill-rule="evenodd" cx="58.9754594" cy="25.1848695" r="4"></circle>
        </g>
        <g id="Wing" transform="translate(129.500000, 200.000000) scale(-1, 1) translate(-129.500000, -200.000000) translate(35.000000, 38.000000)">
            <path d="M188.63871,33.1974218 L173.080855,31.3216817 C190.513284,155.33722 174.092784,252.716474 123.819355,323.459444 C138.417996,279.780442 148.235052,240.434151 148.235052,218.892773 C148.235052,207.979359 149.631381,184.066559 134.331003,184.021616 C129.648546,184.008785 123.819355,186.572559 118.699854,193.810689 C118.531816,186.354664 118.625952,176.089371 108.239145,173.486989 C103.57805,172.319166 92.8504733,176.061143 86.0108442,181.673167 C85.9348419,170.22598 73.373238,167.590115 53.9901854,171.745173 C42.9526571,174.111238 18.9338212,178.485751 0.884931439,183.534795 C-2.35864234,165.037911 46.0571783,140.796306 46.0571783,140.796306 L77.6773641,124.964578 C81.4659994,111.81048 75.2404239,78.4889544 59.0006373,25 C88.0774001,7.77161954 131.290091,10.5040935 188.63871,33.1974218 Z" id="wing" stroke="#8665F4" stroke-width="3" fill="#39316E" fill-rule="evenodd" stroke-linecap="round"></path>
            <path d="M77.6773641,124.964578 C88.4982557,135.519063 91.2760824,154.421926 86.0108442,181.673167" id="Inner-Accent" stroke="#8665F4" stroke-width="3"></path>
            <path d="M77.6773641,124.964578 C120.261807,127.099132 133.93597,150.047835 118.699854,193.810689" id="Middle-Accent" stroke="#8665F4" stroke-width="3"></path>
            <path d="M59,25 C90.8783895,28.5796716 118.166678,46.1909993 140.864865,77.8339831 C174.912146,125.298459 183.923415,207.685166 123.819355,323.459444" id="Outer-Accent" stroke="#8665F4" stroke-width="3"></path>
            <path d="M57.9754594,23.9018312 C65.3602272,13.7876804 76.8010101,5.88202655 92.2978079,0.184869548 C89.4540869,2.05146149 72.4405285,13.8346792 64.3805507,24.6549386 L57.9754594,23.9018312" id="Top-Spike" fill="#8665F4" fill-rule="evenodd"></path>
            <circle id="Top-Dot" fill="#8665F4" fill-rule="evenodd" cx="58.9754594" cy="25.1848695" r="4"></circle>
        </g>
        <g id="Main-Cone" transform="translate(177.000000, 25.000000)">
            <g id="Cone" transform="translate(54.187465, 189.188607)">
                <path d="M84.7490645,158.697729 C77.2757314,158.697729 70.6130649,153.987063 68.121065,146.940396 L24.6117327,23.8643994 L144.278396,23.8643994 L101.402397,146.867063 C98.9330642,153.951063 92.251731,158.697729 84.7490645,158.697729 Z" id="path3758" fill="#FFCD85" fill-rule="nonzero"></path>
                <polygon id="path3964" fill="#FFD69F" fill-rule="nonzero" points="30.1806659 39.617599 41.3166656 39.617599 68.7433316 148.453596"></polygon>
                <path d="M104.306931,39.617599 L138.78693,39.617599 L100.758931,148.453596 C99.2482642,152.533596 96.8135976,158.697596 84.7495979,158.697596 C72.6842648,158.697596 68.7442649,148.453596 68.7442649,148.453596 C68.7442649,148.453596 69.8135983,151.53093 75.5922648,151.753596 C82.7829313,152.029596 84.4455979,145.53093 84.4455979,145.53093 L104.306931,39.617599 Z" id="path3968" fill="#F4BD76" fill-rule="nonzero"></path>
                <polygon id="path3762" fill="#E5A85E" fill-rule="nonzero" points="138.786797 39.617599 30.1801326 39.617599 25.677466 26.8775993 143.22813 26.8775993"></polygon>
                <polygon id="path3746" fill="#FFCD85" fill-rule="nonzero" points="168.889329 26.8786647 -1.13686838e-13 26.8786647 -1.13686838e-13 2.41999861 168.889329 2.41999861"></polygon>
                <path d="M168.889596,2.41973327 L168.889596,13.439733 C168.889596,13.439733 161.269596,14.6423996 152.485596,11.3090664 C152.485596,11.3090664 150.813596,24.0023994 137.925597,26.8783993 L39.7229323,26.8783993 L66.4989317,0.103733331 L156.369596,0.103733331 L168.889596,2.41973327 Z" id="path3768" fill="#F4BD76" fill-rule="nonzero"></path>
                <polygon id="path3764" fill="#FFD69F" fill-rule="nonzero" points="11.457333 3.55271368e-15 11.457333 26.878666 0.0013333333 26.878666 0.0013333333 3.55271368e-15"></polygon>
            </g>
            <g id="Sorbet" transform="translate(0.000000, 0.394078)" fill="#997AFC">
                <path d="M244.717727,107.835997 C244.717727,148.78133 221.897728,184.395995 188.281729,202.657328 C173.003062,210.957328 155.492396,176.991996 136.88173,176.991996 C120.480397,176.991996 104.933731,212.010661 91.0163977,205.461328 C54.393732,188.226662 29.0443993,150.991996 29.0443993,107.835997 C29.0443993,48.2799988 77.3243981,-1.42108547e-14 136.88173,-1.42108547e-14 C196.437728,-1.42108547e-14 244.717727,48.2799988 244.717727,107.835997 Z" id="path3772" fill-rule="nonzero"></path>
                <path d="M269.317327,146.784663 C269.317327,120.27933 247.83066,98.7926642 221.325328,98.7926642 C194.819995,98.7926642 173.333329,120.27933 173.333329,146.784663 C173.333329,173.289996 194.819995,194.776662 221.325328,194.776662 C247.83066,194.776662 269.317327,173.289996 269.317327,146.784663" id="path3784" fill-rule="nonzero"></path>
                <path d="M129.750264,166.992262 L129.750264,166.992262 C122.875597,166.992262 117.250264,172.617596 117.250264,179.492262 L117.250264,240.492262 C117.250264,247.366927 122.875597,252.992262 129.750264,252.992262 C136.62493,252.992262 142.250264,247.366927 142.250264,240.492262 L142.250264,179.492262 C142.250264,172.617596 136.62493,166.992262 129.750264,166.992262" id="path3792" fill-rule="nonzero"></path>
                <path d="M170.666262,215.672261 C190.552929,215.672261 206.672928,199.550928 206.672928,179.665596 C206.672928,159.778929 190.552929,143.65893 170.666262,143.65893 C150.779596,143.65893 134.659597,159.778929 134.659597,179.665596" id="path3788" fill-rule="nonzero" transform="translate(170.666262, 179.665596) scale(1, -1) translate(-170.666262, -179.665596) "></path>
                <path d="M126.32453,185.332795 C126.32453,168.576796 112.740531,154.992796 95.9845309,154.992796 C79.227198,154.992796 65.6445317,168.576796 65.6445317,185.332795 C65.6445317,202.088795 79.227198,215.672795 95.9845309,215.672795 C112.740531,215.672795 126.32453,202.088795 126.32453,185.332795" id="path3780" fill-rule="nonzero"></path>
                <path d="M95.9839976,146.784663 C95.9839976,120.27933 74.4973315,98.7926642 47.9919988,98.7926642 C21.4866661,98.7926642 7.10542736e-15,120.27933 7.10542736e-15,146.784663 C7.10542736e-15,173.289996 21.4866661,194.776662 47.9919988,194.776662 C74.4973315,194.776662 95.9839976,173.289996 95.9839976,146.784663" id="path3776" fill-rule="nonzero"></path>
            </g>
            <g id="Shadow" opacity="0.5" transform="translate(0.367463, 0.473939)">
                <mask id="mask-2" fill="white">
                    <use xlink:href="#path-1"></use>
                </mask>
                <g id="path3870"></g>
                <path d="M129.8268,252.9124 C129.8268,252.9124 134.736133,251.653733 134.736133,241.949733 L134.736133,164.245735 C134.736133,164.245735 137.396133,179.371068 142.3268,185.252401 L142.3268,238.245735 C142.3268,238.245735 142.993467,253.801733 129.8268,252.9124 Z" id="path3842" fill="#7251ED" fill-rule="nonzero" mask="url(#mask-2)"></path>
                <path d="M116.882801,198.245734 L116.882801,206.885734 C91.8828012,228.519067 73.3894684,205.897734 73.3894684,205.897734 C96.3414678,217.3284 116.882801,198.245734 116.882801,198.245734 Z" id="path3858" fill="#7251ED" fill-rule="nonzero" mask="url(#mask-2)"></path>
                <path d="M159.182266,2.21707249 L213.992932,-13.7549271 L283.326263,53.5784045 L299.992929,175.245073 L239.659598,215.593067 L202.970265,195.643734 L206.750265,185.253068 C206.750265,185.253068 243.992931,184.253068 252.992931,157.911735 C265.866264,120.238403 233.562264,100.26907 233.562264,100.26907 C235.463598,29.2930718 160.996933,2.61040581 159.182266,2.21707249 Z" id="path3890" fill="#7251ED" fill-rule="nonzero" mask="url(#mask-2)"></path>
                <path d="M204.915332,168.234668 C208.059332,179.557335 206.749998,185.253335 206.749998,185.253335 C206.749998,185.253335 204.883332,218.690667 204.915332,219.357334 C204.947332,220.024 163.771333,234.690667 163.771333,234.690667 L142.327333,211.134667 L142.327333,185.253335 C142.327333,185.253335 157.543333,208.802667 182.883332,201.462668 C202.971332,195.644001 204.915332,168.234668 204.915332,168.234668 Z" id="path3906" fill="#7251ED" fill-rule="nonzero" mask="url(#mask-2)"></path>
            </g>
            <g id="Gleam" transform="translate(7.446266, 22.720344)">
                <path d="M189.968662,109.973331 C189.968662,107.150664 187.680662,104.862664 184.857995,104.862664 C182.035329,104.862664 179.745996,107.150664 179.745996,109.973331 C179.745996,112.795997 182.035329,115.083997 184.857995,115.083997 C187.680662,115.083997 189.968662,112.795997 189.968662,109.973331" id="path3940" fill="#FFFFFF" fill-rule="nonzero"></path>
                <path d="M219.854795,95.8019582 C209.888128,100.476625 196.054795,98.0672914 191.276129,88.2072917" id="path3932" stroke="#FFFFFF" stroke-width="7.9999998" stroke-linecap="round" stroke-linejoin="round" transform="translate(205.565462, 93.154911) scale(1, -1) translate(-205.565462, -93.154911) "></path>
                <path d="M9.36266643,106.244131 C9.36266643,103.649464 7.26666649,101.546797 4.68133322,101.546797 C2.09599995,101.546797 1.16351373e-13,103.649464 1.16351373e-13,106.244131 C1.16351373e-13,108.838797 2.09599995,110.941464 4.68133322,110.941464 C7.26666649,110.941464 9.36266643,108.838797 9.36266643,106.244131" id="path3944" fill="#FFFFFF" fill-rule="nonzero"></path>
                <path d="M13.0462663,86.3947275 C13.3195997,86.6067275 19.8889328,99.1680605 38.2222657,96.9093939" id="path3936" stroke="#FFFFFF" stroke-width="7.9999998" stroke-linecap="round" stroke-linejoin="round" transform="translate(25.634266, 91.787896) scale(1, -1) translate(-25.634266, -91.787896) "></path>
                <path d="M72.7154648,50.2251987 C72.7154648,50.2251987 55.8274653,37.7465324 47.5661321,13.0358663" id="path3928" stroke="#FFFFFF" stroke-width="7.9999998" stroke-linecap="round" stroke-linejoin="round" transform="translate(60.140798, 31.630533) scale(1, -1) translate(-60.140798, -31.630533) "></path>
                <path d="M88.0259978,5.11066654 C88.0259978,7.93333313 85.7379979,10.2213331 82.9153313,10.2213331 C80.0926647,10.2213331 77.8033314,7.93333313 77.8033314,5.11066654 C77.8033314,2.28799994 80.0926647,-2.30926389e-14 82.9153313,-2.30926389e-14 C85.7379979,-2.30926389e-14 88.0259978,2.28799994 88.0259978,5.11066654 Z" id="path3924" fill="#FFFFFF" fill-rule="nonzero"></path>
            </g>
            <g id="Face" transform="translate(77.394798, 96.684609)">
                <path d="M20.8893328,10.4439997 C20.8893328,16.2133329 16.2133329,20.8879995 10.4453331,20.8879995 C4.67599988,20.8879995 -7.63833441e-14,16.2133329 -7.63833441e-14,10.4439997 C-7.63833441e-14,4.67599988 4.67599988,3.55271368e-15 10.4453331,3.55271368e-15 C16.2133329,3.55271368e-15 20.8893328,4.67599988 20.8893328,10.4439997 Z" id="path3948" fill="#0C0F1E" fill-rule="nonzero"></path>
                <path d="M113.860664,11.4439997 C113.860664,17.2133329 109.184664,21.8879995 103.416664,21.8879995 C97.6486643,21.8879995 92.9713311,17.2133329 92.9713311,11.4439997 C92.9713311,5.67599988 97.6486643,1 103.416664,1 C109.184664,1 113.860664,5.67599988 113.860664,11.4439997 Z" id="path3952" fill="#0C0F1E" fill-rule="nonzero"></path>
                <path d="M38.6777324,16.8886662 L73.1830648,16.8886662 C75.4297314,16.8886662 77.1203981,18.9526662 76.6697314,21.1539995 C74.6963981,30.8006659 66.1603983,38.057999 55.9297319,38.057999 C45.7003989,38.057999 37.1643991,30.8006659 35.1910658,21.1539995 C34.7403991,18.9526662 36.4310658,16.8886662 38.6777324,16.8886662 Z" id="path3956" fill="#0C0F1E" fill-rule="nonzero"></path>
                <path d="M65.753865,30.8977326 C65.753865,33.5190658 61.5431985,35.6443991 56.3485319,35.6443991 C51.1538654,35.6443991 46.9431988,33.5190658 46.9431988,30.8977326 C46.9431988,28.2763993 51.1538654,26.151066 56.3485319,26.151066 C61.5431985,26.151066 65.753865,28.2763993 65.753865,30.8977326 Z" id="path3960" fill="#FF94EB" fill-rule="nonzero"></path>
            </g>
        </g>
    </g>
</svg>