<?xml version="1.0" encoding="UTF-8"?>
<svg width="400px" height="400px" viewBox="0 0 400 400" version="1.1" xmlns="http://www.w3.org/2000/svg" xmlns:xlink="http://www.w3.org/1999/xlink">
    <!-- Generator: Sketch 53.2 (72643) - https://sketchapp.com -->
    <title>sorbet-logo-monochrome</title>
    <desc>Created with Sketch.</desc>
    <g id="sorbet-logo-monochrome" stroke="none" stroke-width="1" fill="none" fill-rule="evenodd">
        <g id="Main-Cone" transform="translate(66.000000, 26.000000)">
            <g id="Cone" transform="translate(54.187465, 191.188607)" fill="#FFFFFF" fill-rule="nonzero" stroke="#997AFC" stroke-width="5">
                <path d="M166.389329,22.3786647 L166.389329,2.91999861 L2.5,2.91999861 L2.5,22.3786647 L27.445153,22.3786647 L28.034374,24.0454097 L70.4780216,144.106877 C72.616755,150.154606 78.3349385,154.197729 84.7490645,154.197729 C91.1881237,154.197729 96.9224096,150.123998 99.0417066,144.044179 L141.451605,22.3786647 L166.389329,22.3786647 Z" id="Combined-Shape"></path>
            </g>
            <g id="Sorbet" transform="translate(0.000000, 0.394078)" fill="#997AFC" fill-rule="nonzero">
                <path d="M244.717727,107.835997 C244.717727,148.78133 221.897728,184.395995 188.281729,202.657328 C173.003062,210.957328 155.492396,176.991996 136.88173,176.991996 C120.480397,176.991996 104.933731,212.010661 91.0163977,205.461328 C54.393732,188.226662 29.0443993,150.991996 29.0443993,107.835997 C29.0443993,48.2799988 77.3243981,-2.84217094e-14 136.88173,-2.84217094e-14 C196.437728,-8.52651283e-14 244.717727,48.2799988 244.717727,107.835997 Z" id="path3772"></path>
                <path d="M269.317327,146.784663 C269.317327,120.27933 247.83066,98.7926642 221.325328,98.7926642 C194.819995,98.7926642 173.333329,120.27933 173.333329,146.784663 C173.333329,173.289996 194.819995,194.776662 221.325328,194.776662 C247.83066,194.776662 269.317327,173.289996 269.317327,146.784663" id="path3784"></path>
                <path d="M129.750263,166.992262 L129.750263,166.992262 C122.875597,166.992262 117.250264,172.617596 117.250264,179.492262 L117.250264,240.492261 C117.250264,247.366927 122.875597,252.99226 129.750263,252.99226 C136.62493,252.99226 142.250263,247.366927 142.250263,240.492261 L142.250263,179.492262 C142.250263,172.617596 136.62493,166.992262 129.750263,166.992262" id="path3792"></path>
                <path d="M170.666262,215.672261 C190.552929,215.672261 206.672928,199.550928 206.672928,179.665596 C206.672928,159.778929 190.552929,143.65893 170.666262,143.65893 C150.779596,143.65893 134.659597,159.778929 134.659597,179.665596" id="path3788" transform="translate(170.666262, 179.665596) scale(1, -1) translate(-170.666262, -179.665596) "></path>
                <path d="M126.32453,185.332795 C126.32453,168.576796 112.740531,154.992796 95.9845309,154.992796 C79.227198,154.992796 65.6445317,168.576796 65.6445317,185.332795 C65.6445317,202.088795 79.227198,215.672795 95.9845309,215.672795 C112.740531,215.672795 126.32453,202.088795 126.32453,185.332795" id="path3780"></path>
                <path d="M95.9839976,146.784663 C95.9839976,120.27933 74.4973315,98.7926642 47.9919988,98.7926642 C21.4866661,98.7926642 7.10542736e-15,120.27933 7.10542736e-15,146.784663 C7.10542736e-15,173.289996 21.4866661,194.776662 47.9919988,194.776662 C74.4973315,194.776662 95.9839976,173.289996 95.9839976,146.784663" id="path3776"></path>
            </g>
            <g id="Gleam" transform="translate(7.446266, 22.720344)">
                <path d="M189.968662,109.973331 C189.968662,107.150664 187.680662,104.862664 184.857995,104.862664 C182.035329,104.862664 179.745996,107.150664 179.745996,109.973331 C179.745996,112.795997 182.035329,115.083997 184.857995,115.083997 C187.680662,115.083997 189.968662,112.795997 189.968662,109.973331" id="path3940" fill="#FFFFFF" fill-rule="nonzero"></path>
                <path d="M219.854795,95.8019582 C209.888128,100.476625 196.054795,98.0672914 191.276129,88.2072917" id="path3932" stroke="#FFFFFF" stroke-width="7.9999998" stroke-linecap="round" stroke-linejoin="round" transform="translate(205.565462, 93.154911) scale(1, -1) translate(-205.565462, -93.154911) "></path>
                <path d="M9.36266643,106.244131 C9.36266643,103.649464 7.26666649,101.546797 4.68133322,101.546797 C2.09599995,101.546797 1.16351373e-13,103.649464 1.16351373e-13,106.244131 C1.16351373e-13,108.838797 2.09599995,110.941464 4.68133322,110.941464 C7.26666649,110.941464 9.36266643,108.838797 9.36266643,106.244131" id="path3944" fill="#FFFFFF" fill-rule="nonzero"></path>
                <path d="M13.0462663,86.3947275 C13.3195997,86.6067275 19.8889328,99.1680605 38.2222657,96.9093939" id="path3936" stroke="#FFFFFF" stroke-width="7.9999998" stroke-linecap="round" stroke-linejoin="round" transform="translate(25.634266, 91.787896) scale(1, -1) translate(-25.634266, -91.787896) "></path>
                <path d="M72.7154648,50.2251987 C72.7154648,50.2251987 55.8274653,37.7465324 47.5661321,13.0358663" id="path3928" stroke="#FFFFFF" stroke-width="7.9999998" stroke-linecap="round" stroke-linejoin="round" transform="translate(60.140798, 31.630533) scale(1, -1) translate(-60.140798, -31.630533) "></path>
                <path d="M88.0259978,5.11066654 C88.0259978,7.93333313 85.7379979,10.2213331 82.9153313,10.2213331 C80.0926647,10.2213331 77.8033314,7.93333313 77.8033314,5.11066654 C77.8033314,2.28799994 80.0926647,-1.59872116e-14 82.9153313,-1.59872116e-14 C85.7379979,-1.59872116e-14 88.0259978,2.28799994 88.0259978,5.11066654 Z" id="path3924" fill="#FFFFFF" fill-rule="nonzero"></path>
            </g>
            <g id="Face" transform="translate(78.394798, 96.684609)" fill-rule="nonzero">
                <path d="M20.8893328,10.4439997 C20.8893328,16.2133329 16.2133329,20.8879995 10.4453331,20.8879995 C4.67599988,20.8879995 -7.63833441e-14,16.2133329 -7.63833441e-14,10.4439997 C-7.63833441e-14,4.67599988 4.67599988,3.55271368e-15 10.4453331,3.55271368e-15 C16.2133329,3.55271368e-15 20.8893328,4.67599988 20.8893328,10.4439997 Z" id="path3948" fill="#FFFFFF"></path>
                <path d="M113.860664,11.4439997 C113.860664,17.2133329 109.184664,21.8879995 103.416664,21.8879995 C97.6486643,21.8879995 92.9713311,17.2133329 92.9713311,11.4439997 C92.9713311,5.67599988 97.6486643,1 103.416664,1 C109.184664,1 113.860664,5.67599988 113.860664,11.4439997 Z" id="path3952" fill="#FFFFFF"></path>
                <path d="M38.6777324,16.8886662 L73.1830648,16.8886662 C75.4297314,16.8886662 77.1203981,18.9526662 76.6697314,21.1539995 C74.6963981,30.8006659 66.1603983,38.057999 55.9297319,38.057999 C45.7003989,38.057999 37.1643991,30.8006659 35.1910658,21.1539995 C34.7403991,18.9526662 36.4310658,16.8886662 38.6777324,16.8886662 Z" id="path3956" fill="#FFFFFF"></path>
                <path d="M65.4158681,31.0620577 C65.4158681,33.6833909 61.2052016,35.8087242 56.010535,35.8087242 C50.8158685,35.8087242 46.6052019,33.6833909 46.6052019,31.0620577 C46.6052019,28.4407244 50.8158685,26.3153911 56.010535,26.3153911 C61.2052016,26.3153911 65.4158681,28.4407244 65.4158681,31.0620577 Z" id="path3960" fill="#997AFC"></path>
            </g>
        </g>
    </g>
</svg>