<?xml version="1.0" encoding="utf-8"?>
<svg version="1.2" baseProfile="tiny-ps" viewBox="-27 -265 720 720"
     xmlns="http://www.w3.org/2000/svg" xml:space="preserve" xmlns:xlink="http://www.w3.org/1999/xlink">
  <title>Chime</title>
  <g>
    <path d="M448.6 56.1001C436.8 56.1001 422.7 60.3001 409.2 74.9001C395.7 60.3001 381.5 56.1001 369.8 56.1001C369.8 56.1001 324.7 52.7001 324.7 105.4V190.7H357.4V110.2C357.4 86.6001 373.2 86.1001 376.3 86.8001C376.3 86.8001 382 87.1001 387.2 92.5001C387.2 92.5001 376.8 106.1 376 123.2C376 123.2 373.7 167.5 409.2 167.5C444.7 167.5 442.4 123.2 442.4 123.2C441.6 106.1 431.2 92.5001 431.2 92.5001C436.4 87.1001 442.1 86.8001 442.1 86.8001C445.1 86.1001 461 86.6001 461 110.2V190.7H493.7V105.4C493.6 52.7001 448.6 56.1001 448.6 56.1001ZM409.1 143.5C402.1 143.5 399.8 134.7 399.7 126.3C399.5 111.7 409 101.2 409.1 101C409.3 101.2 418.7 111.7 418.5 126.3C418.5 134.7 416.1 143.5 409.1 143.5Z" fill="#1EC677"/>
    <path d="M306.3 58.3H273.6V190.8H306.3V58.3Z" fill="#1EC677"/>
    <path d="M290 0.899902C279.1 0.899902 270.1 9.6999 270.1 20.4999C270.1 31.3999 279 40.3999 290 40.3999C300.8 40.3999 309.6 31.4999 309.6 20.4999C309.6 9.8999 300.7 0.899902 290 0.899902Z" fill="#1EC677"/>
    <path d="M170.1 67.2V0H137.7V190.8H170.1V95.3C223.8 69.2 221.8 110.5 221.8 110.5V190.8H254.3V110.5C254.2 32.9 186.4 58.5 170.1 67.2Z" fill="#1EC677"/>
    <path d="M538.6 131C556 137.1 578.1 136.6 578.1 136.6C630.5 136.3 629 98.1999 629 98.1999C627.7 55.2999 577.3 56.0999 577.3 56.0999C535.6 56.0999 506.4 84.6999 506.4 125.6C506.4 166.5 535 192.9 579.2 192.9C598 192.9 615.9 187.7 628.4 178.6V147.1C615.3 158.4 599.6 164.4 583 164.4C583.1 164.4 537.7 166.7 538.6 131ZM542.6 103.1C548.1 89.1999 559.5 81.8999 575.7 81.8999C589 81.8999 596.7 87.4999 596.7 96.3999C596.7 108.9 582.6 110 569.4 110C556.4 110 548.4 108.6 544.8 107.7L541.3 106.9L542.6 103.1Z" fill="#1EC677"/>
    <path d="M70.6 192.9C93.6 192.9 109.9 184.2 119.6 176.9V145.2C105.3 156.5 88.5 163 73.6 163C49.8 163 33.1 146.6 33.1 123C33.1 100.6 48.3 85.0001 70 85.0001C77.1 85.0001 83.2 86.8001 89.7 88.6001C96.4 90.5001 103.4 92.6001 111.7 92.6001C114.3 92.6001 116.9 92.4001 119.5 92.0001V61.8001C117.3 62.0001 115.2 62.2001 113 62.2001C105.5 62.2001 98.7 60.8001 91.6 59.3001C84.1 57.7001 76.4 56.1001 67.3 56.1001C49.2 56.1001 32.4 62.5001 20.1 74.3001C7 86.8001 0 104.2 0 124.5C0 164.8 29 192.9 70.6 192.9Z" fill="#1EC677"/>
    <path d="M667.512 72.3052C667.512 70.3288 667.193 68.5123 666.553 66.8556C665.914 65.1989 665.027 63.7747 663.894 62.5831C662.76 61.3915 661.438 60.4759 659.926 59.8365C658.415 59.168 656.787 58.8338 655.044 58.8338C653.271 58.8338 651.614 59.168 650.074 59.8365C648.562 60.4759 647.24 61.3915 646.106 62.5831C644.973 63.7747 644.086 65.1989 643.447 66.8556C642.807 68.5123 642.488 70.3288 642.488 72.3052C642.488 74.1653 642.778 75.9092 643.36 77.5368C643.941 79.1644 644.769 80.5886 645.845 81.8093C646.949 83.03 648.272 84.0036 649.812 84.7302C651.352 85.4278 653.096 85.7766 655.044 85.7766C656.787 85.7766 658.415 85.4569 659.926 84.8174C661.438 84.149 662.76 83.2189 663.894 82.0272C665.027 80.8356 665.914 79.426 666.553 77.7984C667.193 76.1417 667.512 74.3106 667.512 72.3052ZM671 72.3052C671 74.7466 670.564 76.97 669.692 78.9755C668.849 80.9809 667.687 82.6957 666.204 84.1199C664.751 85.5441 663.051 86.6485 661.104 87.4332C659.185 88.218 657.165 88.6104 655.044 88.6104C652.689 88.6104 650.524 88.2035 648.548 87.3896C646.6 86.5468 644.915 85.3987 643.49 83.9455C642.095 82.4923 640.991 80.7775 640.177 78.8011C639.392 76.7956 639 74.6303 639 72.3052C639 69.8638 639.421 67.6403 640.264 65.6349C641.136 63.6294 642.299 61.9146 643.752 60.4905C645.234 59.0663 646.949 57.9619 648.896 57.1771C650.844 56.3924 652.893 56 655.044 56C657.165 56 659.185 56.3924 661.104 57.1771C663.051 57.9619 664.751 59.0663 666.204 60.4905C667.687 61.9146 668.849 63.6294 669.692 65.6349C670.564 67.6403 671 69.8638 671 72.3052ZM655.131 71.3896C655.683 71.3896 656.206 71.3751 656.7 71.346C657.223 71.2879 657.674 71.1571 658.052 70.9537C658.43 70.7502 658.735 70.4741 658.967 70.1253C659.2 69.7475 659.316 69.2243 659.316 68.5559C659.316 68.0036 659.185 67.5677 658.924 67.248C658.691 66.9282 658.386 66.6812 658.008 66.5068C657.63 66.3324 657.209 66.2307 656.744 66.2016C656.279 66.1435 655.828 66.1144 655.392 66.1144H651.817V71.3896H655.131ZM651.817 81.6349H648.853V63.5858H655.698C657.877 63.5858 659.52 63.9927 660.624 64.8065C661.728 65.6203 662.281 66.9428 662.281 68.7738C662.281 70.4015 661.83 71.5931 660.929 72.3488C660.028 73.1045 658.909 73.555 657.572 73.7003L662.629 81.6349H659.272L654.608 73.9183H651.817V81.6349Z" fill="#1EC677"/>
    <path fill-rule="evenodd" d="M659.805 60.1108C658.334 59.4602 656.748 59.1337 655.044 59.1337C653.309 59.1337 651.694 59.4604 650.193 60.1117L650.19 60.1128C648.717 60.7361 647.429 61.6279 646.324 62.7898C645.219 63.9508 644.353 65.3406 643.727 66.9636C643.102 68.5821 642.788 70.3615 642.788 72.3051C642.788 74.1335 643.073 75.843 643.642 77.4358C644.211 79.0292 645.02 80.4193 646.068 81.6094C647.145 82.7985 648.433 83.7479 649.938 84.4579C651.433 85.1347 653.133 85.4765 655.044 85.4765C656.749 85.4765 658.336 85.1642 659.807 84.542C661.282 83.8895 662.571 82.9827 663.676 81.8204C664.781 80.6588 665.647 79.2829 666.274 77.6893C666.898 76.0715 667.212 74.278 667.212 72.3051C667.212 70.3615 666.898 68.5821 666.273 66.9636C665.647 65.3406 664.781 63.9508 663.676 62.7898C662.571 61.6279 661.283 60.7361 659.809 60.1128L659.805 60.1108ZM659.926 84.8174C658.415 85.4569 656.787 85.7766 655.044 85.7766C653.096 85.7766 651.352 85.4278 649.812 84.7302C648.272 84.0036 646.949 83.03 645.845 81.8093C644.769 80.5886 643.941 79.1644 643.36 77.5368C642.778 75.9092 642.488 74.1653 642.488 72.3052C642.488 70.3288 642.807 68.5123 643.447 66.8556C644.086 65.1989 644.973 63.7747 646.106 62.5831C647.24 61.3915 648.562 60.4759 650.074 59.8365C651.614 59.168 653.271 58.8338 655.044 58.8338C656.787 58.8338 658.415 59.168 659.926 59.8365C661.438 60.4759 662.76 61.3915 663.894 62.5831C665.027 63.7747 665.914 65.1989 666.553 66.8556C667.193 68.5123 667.512 70.3288 667.512 72.3052C667.512 74.3106 667.193 76.1417 666.553 77.7984C665.914 79.426 665.027 80.8356 663.894 82.0272C662.76 83.2189 661.438 84.149 659.926 84.8174ZM648.428 87.6649C646.447 86.8073 644.729 85.6376 643.276 84.1554L643.274 84.1532C641.851 82.6713 640.727 80.9242 639.9 78.9153L639.898 78.9104C639.098 76.8674 638.7 74.6647 638.7 72.3051C638.7 69.8287 639.128 67.5651 639.988 65.5186L639.989 65.5152C640.875 63.477 642.059 61.7293 643.542 60.2762L643.544 60.2741C645.055 58.8228 646.802 57.6976 648.784 56.8988C650.768 56.0993 652.855 55.7 655.044 55.7C657.203 55.7 659.261 56.0995 661.216 56.8991C663.198 57.6979 664.931 58.8232 666.413 60.2751C667.926 61.7286 669.11 63.4772 669.968 65.517C670.858 67.5639 671.3 69.8281 671.3 72.3051C671.3 74.7822 670.858 77.0464 669.968 79.0933C669.11 81.133 667.926 82.8816 666.413 84.3352C664.931 85.7871 663.198 86.9125 661.216 87.7113C659.261 88.5108 657.203 88.9103 655.044 88.9103C652.654 88.9103 650.45 88.4972 648.433 87.667L648.428 87.6649ZM661.104 87.4332C663.051 86.6485 664.751 85.5441 666.204 84.1199C667.687 82.6957 668.849 80.9809 669.692 78.9755C670.564 76.97 671 74.7466 671 72.3052C671 69.8638 670.564 67.6403 669.692 65.6349C668.849 63.6294 667.687 61.9146 666.204 60.4905C664.751 59.0663 663.051 57.9619 661.104 57.1771C659.185 56.3924 657.165 56 655.044 56C652.893 56 650.844 56.3924 648.896 57.1771C646.949 57.9619 645.234 59.0663 643.752 60.4905C642.299 61.9146 641.136 63.6294 640.264 65.6349C639.421 67.6403 639 69.8638 639 72.3052C639 74.6303 639.392 76.7956 640.177 78.8011C640.991 80.7775 642.095 82.4923 643.49 83.9455C644.915 85.3987 646.6 86.5468 648.548 87.3896C650.524 88.2035 652.689 88.6104 655.044 88.6104C657.165 88.6104 659.185 88.218 661.104 87.4332ZM658.686 67.4313L658.681 67.4244C658.48 67.1483 658.216 66.9332 657.882 66.7792C657.542 66.6221 657.158 66.528 656.725 66.501L656.716 66.5004L656.707 66.4993C656.253 66.4426 655.815 66.4144 655.392 66.4144H652.117V71.0896H655.131C655.675 71.0896 656.189 71.0754 656.675 71.047C657.165 70.9918 657.574 70.8702 657.909 70.6895C658.243 70.5097 658.51 70.2682 658.715 69.9635C658.905 69.6512 659.016 69.1918 659.016 68.5558C659.016 68.0494 658.896 67.6883 658.691 67.4379L658.686 67.4313ZM658.967 70.1253C658.735 70.4741 658.43 70.7502 658.052 70.9537C657.674 71.1571 657.223 71.2879 656.7 71.346C656.206 71.3751 655.683 71.3896 655.131 71.3896H651.817V66.1144H655.392C655.828 66.1144 656.279 66.1435 656.744 66.2016C657.209 66.2307 657.63 66.3324 658.008 66.5068C658.386 66.6812 658.691 66.9282 658.924 67.248C659.185 67.5677 659.316 68.0036 659.316 68.5559C659.316 69.2243 659.2 69.7475 658.967 70.1253ZM652.117 81.9348H648.553V63.2858H655.697C657.906 63.2858 659.623 63.6967 660.802 64.565C662.007 65.4532 662.581 66.8821 662.581 68.7738C662.581 70.4544 662.114 71.7464 661.122 72.5786C660.279 73.2855 659.261 73.7348 658.077 73.9335L663.176 81.9348H659.103L654.438 74.2182H652.117V81.9348ZM651.817 73.9183H654.608L659.272 81.6349H662.629L657.572 73.7003C657.683 73.6882 657.793 73.674 657.901 73.6577C659.094 73.478 660.103 73.0417 660.929 72.3488C661.83 71.5931 662.281 70.4015 662.281 68.7738C662.281 66.9428 661.728 65.6203 660.624 64.8065C659.52 63.9927 657.877 63.5858 655.698 63.5858H648.853V81.6349H651.817V73.9183Z" fill="#1EC677"/>
  </g>
</svg>
