<svg id="Layer_1" data-name="Layer 1" xmlns="http://www.w3.org/2000/svg" viewBox="0 0 480 480"><defs><style>.cls-1{fill:#007bbe;}.cls-2{fill:#003968;}.cls-3{fill:#fff;}</style></defs><title>cobot</title><path class="cls-1" d="M182.88,458.31h36.7v18.76H195.44C189.86,477.07,182.88,458.31,182.88,458.31Z"/><path class="cls-1" d="M297.12,458.31h-36.7v18.76h24.15C290.14,477.07,297.12,458.31,297.12,458.31Z"/><path class="cls-2" d="M423.77,257.82C425,144.66,331.83,57.39,238.8,57.09v-.24h0v.24c-89.31.3-184.61,87.57-183.37,200.74-2.8,55.94-16.5,93.46-25.41,107.5-.29.46,2.4,3.36,2.4,3.36,5.9,5.39,35.83-14.09,39.07-24.72.55-1.57,2.95-2.71,3.5-1.07,16.62,38.32,45,78.64,88.12,115.86H317.67c43.12-37.21,71.46-77.53,88.08-115.86.56-1.64,2.9-.76,3.46.81,3.23,10.63,33.08,30.23,39,24.84,0,0,2.06-2.83,1.78-3.29C441.06,351.22,426.57,313.76,423.77,257.82Z"/><path class="cls-3" d="M240.63,110.66C113,34.38-30,288.22,196.08,423.47l44.55-30.1,44.55,30.1C511.25,288.22,368.25,34.38,240.63,110.66Z"/><path class="cls-2" d="M97.57,201.44c0,34.56,27.3,58.78,61.64,58.78,34.12,0,61.42-24.22,61.42-58.78,0-34.35-27.3-58.78-61.42-58.78C124.88,142.67,97.57,167.1,97.57,201.44Zm28.18,0A36.66,36.66,0,0,1,131,182.22,20.22,20.22,0,1,0,142.42,171a33.23,33.23,0,0,1,16.79-4.52c18.05,0,33.24,14.3,33.24,35,0,20.91-15.19,35-33.24,35C140.95,236.44,125.76,222.35,125.76,201.44Z"/><circle class="cls-1" cx="195.92" cy="405.39" r="4.01"/><path class="cls-2" d="M267,257.38c-2.41-1.21-4.9,3.77-10.13,3.62-5.68-.17-14.59-19.16-16.93-19-1.89.14-13.51,19.24-20.6,19.33-4.79,0-5.37-4.2-7.46-3.62s-2.78,2.75-2,3.34c10.58,8.07,46.07,7,58.58-.17C270,260,268.48,258.1,267,257.38Z"/><path class="cls-2" d="M224.93,267.73l15.37,11,12.37-11.7C245.19,268.91,230.39,269,224.93,267.73Z"/><path class="cls-2" d="M261.46,201.77c0,34.56,27.29,58.78,61.64,58.78,34.12,0,61.42-24.22,61.42-58.78,0-34.34-27.3-58.78-61.42-58.78C288.75,143,261.46,167.43,261.46,201.77Zm28.18,0a36.61,36.61,0,0,1,5.22-19.22,20.21,20.21,0,1,0,11.45-11.27,33.23,33.23,0,0,1,16.79-4.52c18.05,0,33.24,14.31,33.24,35,0,20.91-15.18,35-33.24,35C304.83,236.78,289.63,222.68,289.63,201.77Z"/><circle class="cls-1" cx="285.68" cy="405.39" r="4.01"/><polygon class="cls-1" points="205.6 358.77 239.81 341.68 205.55 324.37 205.6 358.77"/><polygon class="cls-1" points="240.44 341.68 274.65 358.77 274.71 324.37 240.44 341.68"/><path class="cls-1" d="M274.61,3.35c-8.87.26-18.3,7.94-34.53,8s-25.66-7.75-34.53-8c-17.21-.5-14,13.43-12.69,26.73.89,9.3,2.63,15.32,14.6,17.21,10.07,1.59,23-7.52,23-3.17V72.17s.48-.44,9.62-.44h.1c9.14,0,8.89.44,8.89.44V44.11c0-4.35,13.25,4.77,23.32,3.17,12-1.89,13.85-7.91,14.75-17.21C288.36,16.77,291.82,2.85,274.61,3.35ZM212.07,35.2a9.86,9.86,0,1,1,9.86-9.85A9.86,9.86,0,0,1,212.07,35.2Zm56,0A9.86,9.86,0,1,1,278,25.34,9.85,9.85,0,0,1,268.09,35.2Z"/></svg>