<svg id="Front" xmlns="http://www.w3.org/2000/svg" viewBox="0 0 3300 855.78"><defs><style>.cls-1{fill:#ed4747;}</style></defs><title>Gusto Logo</title><path class="cls-1" d="M1298.12,388.16H1465a6.2,6.2,0,0,1,6.2,6.2v8.14q0,48.92-11.53,86.6-11.25,34.87-38,65.23-60.46,68-153.79,68-91.1,0-156-65.79Q1047,490.51,1047,398q0-94.47,66.07-160.26,66.07-66.07,160.82-66.07,50.88,0,95,20.71,40.32,19.81,79.35,63.24a5.61,5.61,0,0,1-.3,7.78l-38.3,36.69a5.59,5.59,0,0,1-8.27-.63q-52.33-66.21-126.39-66.21-68.89,0-115.56,47.52-46.67,46.68-46.67,117,0,72.54,52,119.49,48.64,43.58,105.43,43.58,48.35,0,86.88-32.53,38.52-32.81,43-78.53h-102a6.25,6.25,0,0,1-6.25-6.25V394.42A6.25,6.25,0,0,1,1298.12,388.16Z"/><path class="cls-1" d="M1674.67,180.1a6.25,6.25,0,0,1,6.25,6.25v255q0,55.91,18.28,81.76,27.27,37.37,76.76,37.37,49.77,0,77-37.37,18.28-25,18.28-81.76v-255a6.25,6.25,0,0,1,6.25-6.25h53a6.25,6.25,0,0,1,6.25,6.25V459.58q0,68.61-42.74,113Q1846,622.09,1776,622.09T1658.15,572.6q-42.74-44.42-42.74-113V186.36a6.25,6.25,0,0,1,6.25-6.25h53Z"/><path class="cls-1" d="M2340.33,249.53l-38.74,23a6.89,6.89,0,0,1-9.35-2.31q-13-21-24.93-27.94-14.06-9-36.27-9-27.27,0-45.27,15.48-18,15.2-18,38.26,0,31.8,47.23,51.21l43.3,17.73q52.86,21.39,77.32,52.2t24.46,75.54q0,59.94-39.92,99-40.21,39.39-99.81,39.39-56.51,0-93.34-33.61-33.41-30.93-43.68-84.89a9.79,9.79,0,0,1,7.47-11.42l50-11a6.89,6.89,0,0,1,8.29,5.76q4.65,32.32,14.78,45.49,20.24,28.12,59,28.12,30.64,0,50.89-20.51T2294,488a72.88,72.88,0,0,0-3.52-23.18,58.86,58.86,0,0,0-11-19.39,87.72,87.72,0,0,0-19.26-16.58,185.94,185.94,0,0,0-28.12-14.75l-41.89-17.42q-89.13-37.64-89.13-110.13,0-48.88,37.39-81.76,37.39-33.15,93.06-33.15,70.47,0,112,64.17A9.77,9.77,0,0,1,2340.33,249.53Z"/><path class="cls-1" d="M2653.84,241.68V608a6.25,6.25,0,0,1-6.25,6.25h-53a6.25,6.25,0,0,1-6.25-6.25V241.68H2482.85a6.25,6.25,0,0,1-6.25-6.25V186.36a6.25,6.25,0,0,1,6.25-6.25H2759a6.25,6.25,0,0,1,6.25,6.25v49.07a6.25,6.25,0,0,1-6.25,6.25h-105.2Z"/><path class="cls-1" d="M2842.38,395.19q0-91.65,67.2-157.45Q2976.49,172,3070.4,172q92.78,0,159.14,66.35,66.63,66.36,66.63,159.42,0,93.63-66.92,158.85Q3162,622.09,3067,622.09q-84.07,0-151-58.2Q2842.38,499.5,2842.38,395.19Zm66.07,0.7q0,71.92,48.36,118.27,48.08,46.35,111.06,46.35,68.32,0,115.27-47.2,47-47.75,47-116.3,0-69.38-46.39-116.3-46.12-47.19-114.15-47.2-67.76,0-114.43,47.2Q2908.45,327.35,2908.45,395.89Z"/><path class="cls-1" d="M436.56,613.27c-106.15,0-192.51-86.36-192.51-192.51s86.36-192.51,192.51-192.51a191.68,191.68,0,0,1,162.91,89.89,25.25,25.25,0,1,1-42.7,26.94,141.44,141.44,0,0,0-120.21-66.34c-78.31,0-142,63.71-142,142s63.71,142,142,142c43.62,0,68-26.71,101.62-63.69,11.88-13,24.16-26.53,38.47-40.09a25.24,25.24,0,1,1,34.73,36.64c-13,12.29-24.61,25.08-35.88,37.45C538,574.32,502.5,613.27,436.56,613.27Z"/><path class="cls-1" d="M603.83,606.16a25.25,25.25,0,0,1-25.25-25.25V472.6H478.81a25.25,25.25,0,0,1,0-50.49h125a25.25,25.25,0,0,1,25.25,25.25V580.92A25.25,25.25,0,0,1,603.83,606.16Z"/><path class="cls-1" d="M476.72,855.78c-219.11,0-397.37-178.26-397.37-397.38S257.61,61,476.72,61,874.09,239.29,874.09,458.4,695.83,855.78,476.72,855.78Zm0-768.79C271.92,87,105.3,253.61,105.3,458.4S271.92,829.82,476.72,829.82,848.13,663.2,848.13,458.4,681.51,87,476.72,87Z"/><path class="cls-1" d="M395.37,855.78C176.26,855.78-2,677.52-2,458.4S176.26,61,395.37,61,792.74,239.29,792.74,458.4,614.48,855.78,395.37,855.78Zm0-768.79C190.57,87,24,253.61,24,458.4S190.57,829.82,395.37,829.82,766.78,663.2,766.78,458.4,600.17,87,395.37,87Z"/><path class="cls-1" d="M438.64,795.2c-219.11,0-397.37-178.26-397.37-397.37S219.53,0.45,438.64.45,836,178.72,836,397.83,657.75,795.2,438.64,795.2Zm0-768.78C233.84,26.42,67.23,193,67.23,397.83S233.84,769.24,438.64,769.24,810.05,602.62,810.05,397.83,643.43,26.42,438.64,26.42Z"/></svg>