<svg width="256" height="256" fill="none" xmlns="http://www.w3.org/2000/svg">
  <path d="M127.99 165.5c48.143 0 87.61 35.933 87.5 87.5H40.5c-.097-51.542 39.355-87.5 87.49-87.5Z" fill="#FF7009"/>
  <path d="M200.16 43.545c-11.055 0-18.932 4.817-26.207 15.273L153 88.92V3h-50v85.92L82.048 58.818C74.773 48.362 66.895 43.544 55.84 43.544c-16.68 0-27.785 12.315-27.84 27.487-.047 13 6.085 21.466 19 29.78L128 153l81-52.188c12.908-8.314 19.04-16.784 19-29.78-.055-15.172-11.16-27.487-27.84-27.487Z" fill="#0AAD0A"/>
</svg>