<?xml version="1.0" encoding="UTF-8"?>
<svg width="400px" height="400px" viewBox="0 0 400 400" version="1.1" xmlns="http://www.w3.org/2000/svg" xmlns:xlink="http://www.w3.org/1999/xlink">
    <!-- Generator: Sketch 53.2 (72643) - https://sketchapp.com -->
    <title>sorbet-logo</title>
    <desc>Created with Sketch.</desc>
    <defs>
        <path d="M245.607993,148.574663 C244.015993,206.741328 196.397328,253.413327 137.846663,253.413327 C80.0373309,253.413327 32.861332,207.923994 30.1413321,150.787996 C12.9893325,143.469329 0.965332834,126.454663 0.965332834,106.627997 C0.965332834,80.1239976 22.451999,58.6359982 48.9573316,58.6359982 C55.4093315,58.6359982 61.559998,59.9186648 67.1799978,62.2266647 C69.9079978,48.2719984 82.1959975,37.7399987 96.9493304,37.7399987 C105.234664,37.7399987 112.74133,41.0653319 118.215997,46.4479985 L118.215997,12.9213326 C118.215997,6.04533281 123.84133,0.421332948 130.715996,0.421332948 C137.590663,0.421332948 143.215996,6.04533281 143.215996,12.9213326 L143.215996,51.6479983 C149.805329,43.1879985 160.079996,37.7399987 171.631995,37.7399987 C187.271995,37.7399987 200.575995,47.7133318 205.547994,61.6439981 C210.761328,59.7026648 216.401327,58.6359982 222.290661,58.6359982 C248.797327,58.6359982 270.282659,80.1239976 270.282659,106.627997 C270.282659,124.66933 260.323993,140.375996 245.607993,148.574663" id="path-1"></path>
        <path d="M29.8080028,150.454663 C12.6560032,143.135997 0.632003534,126.121331 0.632003534,106.294664 L0.632003534,106.294664 C0.632003534,79.7893318 22.1186697,58.303999 48.6240023,58.303999 L48.6240023,58.303999 C55.0760022,58.303999 61.2266687,59.5853323 66.8466685,61.8933322 L66.8466685,61.8933322 C69.5760018,47.9386659 81.8626682,37.4066662 96.6160011,37.4066662 L96.6160011,37.4066662 C104.902668,37.4066662 112.408001,40.7319994 117.882667,46.1133326 L117.882667,46.1133326 L117.882667,12.5866668 C117.882667,5.71200031 123.508,0.0880004478 130.382667,0.0880004478 L130.382667,0.0880004478 C137.257333,0.0880004478 142.882667,5.71200031 142.882667,12.5866668 L142.882667,12.5866668 L142.882667,51.3146658 C149.472,42.854666 159.745333,37.4066662 171.299999,37.4066662 L171.299999,37.4066662 C186.937332,37.4066662 200.242665,47.3799993 205.214665,61.3106656 L205.214665,61.3106656 C210.429332,59.3693323 216.067998,58.303999 221.957331,58.303999 L221.957331,58.303999 C248.462664,58.303999 269.950663,79.7893318 269.950663,106.294664 L269.950663,106.294664 C269.950663,124.335997 259.990664,140.043997 245.274664,148.24133 L245.274664,148.24133 C243.682664,206.407995 196.065332,253.079994 137.513333,253.079994 L137.513333,253.079994 C79.7040016,253.079994 32.5280027,207.590662 29.8080028,150.454663" id="path-3"></path>
    </defs>
    <g id="sorbet-logo" stroke="none" stroke-width="1" fill="none" fill-rule="evenodd">
        <g id="Flipped" transform="translate(201.000000, 200.500000) scale(1, -1) translate(-201.000000, -200.500000) translate(41.000000, 18.000000)">
            <g id="Cone" transform="translate(86.572046, 0.097433)" fill-rule="nonzero">
                <path d="M85.4421329,0.919866644 L85.4421329,0.919866644 C77.9687998,0.919866644 71.3061333,5.63053319 68.8141333,12.6771997 L25.3048011,135.753197 L144.971465,135.753197 L102.095466,12.750533 C99.6261326,5.66653319 92.9447994,0.919866644 85.4421329,0.919866644" id="path3758" fill="#FFCD85"></path>
                <polygon id="path3964" fill="#FFD69F" points="30.8737343 119.999997 42.009734 119.999997 69.4364 11.1639997"></polygon>
                <path d="M104.999999,119.999997 L85.1386663,14.0866663 C85.1386663,14.0866663 83.4759996,7.58799981 76.2853332,7.8639998 C70.5066666,8.08666646 69.4373333,11.1639997 69.4373333,11.1639997 C69.4373333,11.1639997 73.3773332,0.919999977 85.4426663,0.919999977 C97.506666,0.919999977 99.9413326,7.08399982 101.451999,11.1639997 L139.479998,119.999997 L104.999999,119.999997 Z" id="path3968" fill="#F4BD76"></path>
                <polygon id="path3762" fill="#E5A85E" points="139.479865 119.999997 30.873201 119.999997 26.3705344 132.739997 143.921198 132.739997"></polygon>
                <polygon id="path3746" fill="#FFCD85" points="169.582397 132.738931 0.693068374 132.738931 0.693068374 157.197597 169.582397 157.197597"></polygon>
                <path d="M169.582664,157.197863 L169.582664,146.177863 C169.582664,146.177863 161.962664,144.975196 153.178665,148.30853 C153.178665,148.30853 151.506665,135.615197 138.618665,132.739197 L40.4160007,132.739197 L67.192,159.513863 L157.062664,159.513863 L169.582664,157.197863 Z" id="path3768" fill="#F4BD76"></path>
                <polygon id="path3764" fill="#FFD69F" points="12.1504014 159.617596 0.694401708 159.617596 0.694401708 132.73893 12.1504014 132.73893"></polygon>
            </g>
            <g id="Sorbet" transform="translate(33.061649, 94.724896)" fill="#997AFC" fill-rule="nonzero">
                <path d="M244.733727,145.948664 C244.733727,105.003332 221.913728,69.3886664 188.297729,51.1273335 C173.019062,42.8273337 155.508396,76.7926662 136.89773,76.7926662 C120.496397,76.7926662 104.949731,41.7740004 91.0323977,48.3233336 C54.409732,65.5579998 29.0603993,102.792666 29.0603993,145.948664 C29.0603993,205.504663 77.3403981,253.784662 136.89773,253.784662 C196.453728,253.784662 244.733727,205.504663 244.733727,145.948664" id="path3772"></path>
                <path d="M269.333327,106.999999 C269.333327,80.4946661 247.84666,59.008 221.341328,59.008 C194.835995,59.008 173.349329,80.4946661 173.349329,106.999999 C173.349329,133.505331 194.835995,154.991998 221.341328,154.991998 C247.84666,154.991998 269.333327,133.505331 269.333327,106.999999" id="path3784"></path>
                <path d="M129.766263,0.792401455 L129.766263,0.792401455 C122.891597,0.792401455 117.266264,6.41773465 117.266264,13.2924011 L117.266264,74.2923996 C117.266264,81.1670661 122.891597,86.7923993 129.766263,86.7923993 C136.64093,86.7923993 142.266263,81.1670661 142.266263,74.2923996 L142.266263,13.2924011 C142.266263,6.41773465 136.64093,0.792401455 129.766263,0.792401455" id="path3792"></path>
                <path d="M170.682262,110.125732 C190.568929,110.125732 206.688928,94.0043991 206.688928,74.1190663 C206.688928,54.2324001 190.568929,38.1124005 170.682262,38.1124005 C150.795596,38.1124005 134.675597,54.2324001 134.675597,74.1190663" id="path3788"></path>
                <path d="M126.34053,68.4518664 C126.34053,51.6958668 112.756531,38.1118672 96.0005309,38.1118672 C79.243198,38.1118672 65.6605317,51.6958668 65.6605317,68.4518664 C65.6605317,85.207866 79.243198,98.7918657 96.0005309,98.7918657 C112.756531,98.7918657 126.34053,85.207866 126.34053,68.4518664" id="path3780"></path>
                <path d="M95.9999976,106.999999 C95.9999976,80.4946661 74.5133315,59.008 48.0079988,59.008 C21.5026661,59.008 0.0159999996,80.4946661 0.0159999996,106.999999 C0.0159999996,133.505331 21.5026661,154.991998 48.0079988,154.991998 C74.5133315,154.991998 95.9999976,133.505331 95.9999976,106.999999" id="path3776"></path>
            </g>
            <g id="Stripes" transform="translate(32.111783, 95.096364)">
                <mask id="mask-2" fill="white">
                    <use xlink:href="#path-1"></use>
                </mask>
                <g id="path3802"></g>
                <polygon id="Stripe-5" fill="#8673FF" fill-rule="nonzero" mask="url(#mask-2)" points="292.520126 44.7327985 18.2041324 -13.5738667 13.1227992 10.335466 287.437459 68.6434646"></polygon>
                <polygon id="Stripe-4" fill="#8673FF" fill-rule="nonzero" mask="url(#mask-2)" points="292.137326 94.6494639 17.8213324 36.3427987 12.7386659 60.2521315 287.054659 118.56013"></polygon>
                <polygon id="Stripe-3" fill="#8673FF" fill-rule="nonzero" mask="url(#mask-2)" points="262.12826 138.12733 -12.1877335 79.819331 -17.2704 103.729997 257.045593 162.037996"></polygon>
                <polygon id="Stripe-2" fill="#8673FF" fill-rule="nonzero" mask="url(#mask-2)" points="270.415326 189.980795 -3.90066704 131.672796 -8.98333358 155.583462 265.33266 213.891461"></polygon>
                <polygon id="Stripe-1" fill="#8673FF" fill-rule="nonzero" mask="url(#mask-2)" points="270.415326 240.064127 -3.90066704 181.756128 -8.98333358 205.666794 265.33266 263.974793"></polygon>
            </g>
            <g id="Shadow" opacity="0.5" transform="translate(32.445112, 95.429697)">
                <mask id="mask-4" fill="white">
                    <use xlink:href="#path-3"></use>
                </mask>
                <g id="path3870"></g>
                <path d="M130.8268,0.0876004478 C130.8268,0.0876004478 135.736133,1.34626708 135.736133,11.0502668 C135.736133,20.7542666 135.736133,88.7542649 135.736133,88.7542649 C135.736133,88.7542649 138.396133,73.6289319 143.3268,67.7475988 L143.3268,14.7542667 C143.3268,14.7542667 143.993467,-0.801732863 130.8268,0.0876004478" id="path3842" fill="#7251ED" fill-rule="nonzero" mask="url(#mask-4)"></path>
                <path d="M117.882801,54.7542657 C117.882801,54.7542657 97.3414678,35.6715996 74.3894684,47.1022659 C74.3894684,47.1022659 92.8828012,24.4809332 117.882801,46.114266 L117.882801,54.7542657 Z" id="path3858" fill="#7251ED" fill-rule="nonzero" mask="url(#mask-4)"></path>
                <path d="M160.182266,250.782928 C161.996933,250.389594 236.463598,223.706928 234.562264,152.73093 C234.562264,152.73093 266.866264,132.761597 253.992931,95.0882647 C244.992931,68.7469321 207.750265,67.7469321 207.750265,67.7469321 L203.970265,57.3562657 L240.659598,37.4069328 L300.992929,77.7549318 L284.326263,199.421595 L214.992932,266.754927 L160.182266,250.782928 Z" id="path3890" fill="#7251ED" fill-rule="nonzero" mask="url(#mask-4)"></path>
                <path d="M205.915332,84.7653317 C205.915332,84.7653317 203.971332,57.355999 183.883332,51.5373325 C158.543333,44.1973327 143.327333,67.7466654 143.327333,67.7466654 L143.327333,41.8653327 L164.771333,18.3093333 C164.771333,18.3093333 205.947332,32.9759996 205.915332,33.6426663 C205.883332,34.3093329 207.749998,67.7466654 207.749998,67.7466654 C207.749998,67.7466654 209.059332,73.4426653 205.915332,84.7653317" id="path3906" fill="#7251ED" fill-rule="nonzero" mask="url(#mask-4)"></path>
            </g>
            <g id="Gleam" transform="translate(39.906048, 210.814093)">
                <path d="M190.58653,5.39586816 C190.58653,2.57320156 188.29853,0.285201618 185.475863,0.285201618 C182.653197,0.285201618 180.363863,2.57320156 180.363863,5.39586816 C180.363863,8.21853475 182.653197,10.5065347 185.475863,10.5065347 C188.29853,10.5065347 190.58653,8.21853475 190.58653,5.39586816" id="path3940" fill="#FFFFFF" fill-rule="nonzero"></path>
                <path d="M220.472662,24.8613343 C210.505996,29.5360009 196.672663,27.1266676 191.893996,17.2666679" id="path3932" stroke="#FFFFFF" stroke-width="7.9999998" stroke-linecap="round" stroke-linejoin="round"></path>
                <path d="M9.98053428,9.12506806 C9.98053428,6.53040146 7.88453434,4.42773485 5.29920107,4.42773485 C2.7138678,4.42773485 0.617867851,6.53040146 0.617867851,9.12506806 C0.617867851,11.7197347 2.7138678,13.8224013 5.29920107,13.8224013 C7.88453434,13.8224013 9.98053428,11.7197347 9.98053428,9.12506806" id="path3944" fill="#FFFFFF" fill-rule="nonzero"></path>
                <path d="M13.6641342,18.1881345 C13.9374675,18.4001345 20.5068007,30.9614675 38.8401336,28.7028009" id="path3936" stroke="#FFFFFF" stroke-width="7.9999998" stroke-linecap="round" stroke-linejoin="round"></path>
                <path d="M73.3333327,102.333332 C73.3333327,102.333332 56.4453331,89.854666 48.184,65.144" id="path3928" stroke="#FFFFFF" stroke-width="7.9999998" stroke-linecap="round" stroke-linejoin="round"></path>
                <path d="M88.6438657,110.258532 C88.6438657,107.435866 86.3558657,105.147866 83.5331991,105.147866 C80.7105325,105.147866 78.4211992,107.435866 78.4211992,110.258532 C78.4211992,113.081199 80.7105325,115.369199 83.5331991,115.369199 C86.3558657,115.369199 88.6438657,113.081199 88.6438657,110.258532" id="path3924" fill="#FFFFFF" fill-rule="nonzero"></path>
            </g>
            <g id="Face" transform="translate(110.226313, 213.987961)" fill-rule="nonzero">
                <path d="M21.1354673,27.787066 C21.1354673,22.0177328 16.4594674,17.3430663 10.6914675,17.3430663 C4.92213436,17.3430663 0.246134477,22.0177328 0.246134477,27.787066 C0.246134477,33.5550659 4.92213436,38.2310658 10.6914675,38.2310658 C16.4594674,38.2310658 21.1354673,33.5550659 21.1354673,27.787066" id="path3948" fill="#0C0F1E"></path>
                <path d="M114.106798,26.787066 C114.106798,21.0177328 109.430798,16.3430663 103.662799,16.3430663 C97.8947988,16.3430663 93.2174655,21.0177328 93.2174655,26.787066 C93.2174655,32.5550659 97.8947988,37.2310658 103.662799,37.2310658 C109.430798,37.2310658 114.106798,32.5550659 114.106798,26.787066" id="path3952" fill="#0C0F1E"></path>
                <path d="M38.9238668,21.3423995 C36.6772002,21.3423995 34.9865336,19.2783996 35.4372003,17.0770663 C37.4105335,7.43039986 45.9465333,0.173066712 56.1758664,0.173066712 C66.4065328,0.173066712 74.9425326,7.43039986 76.9158659,17.0770663 C77.3665325,19.2783996 75.6758659,21.3423995 73.4291993,21.3423995 L38.9238668,21.3423995 Z" id="path3956" fill="#0C0F1E"></path>
                <path d="M65.9999995,7.3333332 C65.9999995,4.71199993 61.7893329,2.58666665 56.5946664,2.58666665 C51.3999999,2.58666665 47.1893333,4.71199993 47.1893333,7.3333332 C47.1893333,9.95466647 51.3999999,12.0799997 56.5946664,12.0799997 C61.7893329,12.0799997 65.9999995,9.95466647 65.9999995,7.3333332" id="path3960" fill="#FF94EB"></path>
            </g>
            <g id="Sparkles" transform="translate(0.412581, 115.961957)">
                <g id="Plus-Sparkle-3" transform="translate(0.000000, 118.000000)" stroke="#8673FF" stroke-linecap="round" stroke-linejoin="round" stroke-width="3.9999999">
                    <path d="M6.03961325e-14,7.55533314 L15.1106663,7.55533314" id="path3988"></path>
                    <path d="M7.55533314,15.1106663 L7.55533314,-5.32907052e-14" id="path3992"></path>
                </g>
                <g id="Plus-Sparkle-2" transform="translate(290.000000, 23.000000)" stroke="#8673FF" stroke-linecap="round" stroke-linejoin="round" stroke-width="3.9999999">
                    <path d="M6.03961325e-14,7.55533314 L15.1106663,7.55533314" id="path3988"></path>
                    <path d="M7.55533314,15.1106663 L7.55533314,-5.32907052e-14" id="path3992"></path>
                </g>
                <g id="Plus-Sparkle-1" transform="translate(293.000000, 209.000000)" stroke="#8673FF" stroke-linecap="round" stroke-linejoin="round" stroke-width="3.9999999">
                    <path d="M6.03961325e-14,7.55533314 L15.1106663,7.55533314" id="path3988"></path>
                    <path d="M7.55533314,15.1106663 L7.55533314,-5.32907052e-14" id="path3992"></path>
                </g>
                <path d="M27.0000017,173.333335 C27.0000017,172.106668 26.0053351,171.110668 24.7773351,171.110668 C23.5506685,171.110668 22.5560018,172.106668 22.5560018,173.333335 C22.5560018,174.560002 23.5506685,175.556002 24.7773351,175.556002 C26.0053351,175.556002 27.0000017,174.560002 27.0000017,173.333335" id="Dot-Sparkle-8" fill="#997AFC" fill-rule="nonzero"></path>
                <path d="M23.0000018,96.0000037 C23.0000018,94.7733371 22.0053352,93.7773371 20.7773352,93.7773371 C19.5506686,93.7773371 18.5560019,94.7733371 18.5560019,96.0000037 C18.5560019,97.2266703 19.5506686,98.2226703 20.7773352,98.2226703 C22.0053352,98.2226703 23.0000018,97.2266703 23.0000018,96.0000037" id="Dot-Sparkle-7" fill="#997AFC" fill-rule="nonzero"></path>
                <path d="M65.6666674,26.6666721 C65.6666674,25.4400055 64.6720008,24.4440055 63.4440008,24.4440055 C62.2173342,24.4440055 61.2226675,25.4400055 61.2226675,26.6666721 C61.2226675,27.8933387 62.2173342,28.8893387 63.4440008,28.8893387 C64.6720008,28.8893387 65.6666674,27.8933387 65.6666674,26.6666721" id="Dot-Sparkle-6" fill="#997AFC" fill-rule="nonzero"></path>
                <path d="M76.3333338,2.6666727 C76.3333338,1.44000606 75.3386672,0.444006089 74.1106672,0.444006089 C72.8840006,0.444006089 71.8893339,1.44000606 71.8893339,2.6666727 C71.8893339,3.89333934 72.8840006,4.88933931 74.1106672,4.88933931 C75.3386672,4.88933931 76.3333338,3.89333934 76.3333338,2.6666727" id="Dot-Sparkle-5" fill="#997AFC" fill-rule="nonzero"></path>
                <path d="M318.999994,56.0000047 C318.999994,54.7733381 318.005328,53.7773381 316.777328,53.7773381 C315.550661,53.7773381 314.555995,54.7733381 314.555995,56.0000047 C314.555995,57.2266713 315.550661,58.2226713 316.777328,58.2226713 C318.005328,58.2226713 318.999994,57.2266713 318.999994,56.0000047" id="Dot-Sparkle-4" fill="#997AFC" fill-rule="nonzero"></path>
                <path d="M265.666662,229.333334 C265.666662,228.106667 264.671996,227.110667 263.443996,227.110667 C262.217329,227.110667 261.222663,228.106667 261.222663,229.333334 C261.222663,230.56 262.217329,231.556 263.443996,231.556 C264.671996,231.556 265.666662,230.56 265.666662,229.333334" id="Dot-Sparkle-3" fill="#997AFC" fill-rule="nonzero"></path>
                <path d="M118.999999,242.666667 C118.999999,241.44 118.005333,240.444 116.777333,240.444 C115.550666,240.444 114.556,241.44 114.556,242.666667 C114.556,243.893333 115.550666,244.889333 116.777333,244.889333 C118.005333,244.889333 118.999999,243.893333 118.999999,242.666667" id="Dot-Sparkle-2" fill="#997AFC" fill-rule="nonzero"></path>
                <path d="M100.333333,246.666667 C100.333333,245.44 99.3386666,244.444 98.1106666,244.444 C96.884,244.444 95.8893333,245.44 95.8893333,246.666667 C95.8893333,247.893333 96.884,248.889333 98.1106666,248.889333 C99.3386666,248.889333 100.333333,247.893333 100.333333,246.666667" id="Dot-Sparkle-1" fill="#997AFC" fill-rule="nonzero"></path>
            </g>
        </g>
    </g>
</svg>