<svg width="784" height="400" viewBox="0 0 784 400" fill="none" xmlns="http://www.w3.org/2000/svg">
<g clip-path="url(#clip0_2_2)">
<rect width="784" height="400" fill="white"/>
<path d="M387.818 230.227V185.227H395.455V230.227H387.818ZM369.136 211.545V203.909H414.136V211.545H369.136Z" fill="#4F4397"/>
<path d="M187.399 367.911C181.14 367.911 175.56 363.965 173.473 358.064L137.034 254.988H237.255L201.347 358.002C199.278 363.935 193.683 367.911 187.399 367.911Z" fill="#FFCD85"/>
<path d="M141.698 268.181H151.025L173.995 359.331L141.698 268.181Z" fill="#FFD69F"/>
<path d="M203.779 268.181L187.145 356.883C187.145 356.883 185.753 362.326 179.731 362.095C174.891 361.908 173.995 359.331 173.995 359.331C173.995 359.331 177.295 367.91 187.4 367.91C197.503 367.91 199.542 362.748 200.808 359.331L232.656 268.181H203.779Z" fill="#F4BD76"/>
<path d="M232.656 268.181H141.698L137.927 257.511H236.376L232.656 268.181Z" fill="#E5A85E"/>
<path d="M257.867 257.512H116.422V237.028H257.867V257.512Z" fill="#FFCD85"/>
<path d="M257.867 237.028V246.257C257.867 246.257 251.485 247.264 244.129 244.472C244.129 244.472 242.728 255.103 231.935 257.512H149.69L172.115 235.088H247.382L257.867 237.028Z" fill="#F4BD76"/>
<path d="M126.018 235.001H116.423V257.512H126.018V235.001Z" fill="#FFD69F"/>
<path d="M275.991 167.198C275.991 201.49 256.879 231.317 228.726 246.611C215.93 253.563 201.265 225.117 185.678 225.117C171.942 225.117 158.922 254.445 147.266 248.96C116.595 234.526 95.3647 203.342 95.3647 167.198C95.3647 117.32 135.799 76.8857 185.678 76.8857C235.557 76.8857 275.991 117.32 275.991 167.198Z" fill="#997AFC"/>
<path d="M296.593 199.818C296.593 222.016 278.598 240.011 256.4 240.011C234.202 240.011 216.207 222.016 216.207 199.818C216.207 177.62 234.202 159.625 256.4 159.625C278.598 159.625 296.593 177.62 296.593 199.818Z" fill="#997AFC"/>
<path d="M179.706 288.767C173.948 288.767 169.237 284.056 169.237 278.298V227.211C169.237 221.453 173.948 216.742 179.706 216.742C185.463 216.742 190.175 221.453 190.175 227.211V278.298C190.175 284.056 185.463 288.767 179.706 288.767Z" fill="#997AFC"/>
<path d="M213.973 197.2C230.628 197.2 244.129 210.702 244.129 227.356C244.129 244.011 230.628 257.511 213.973 257.511C197.318 257.511 183.817 244.011 183.817 227.356" fill="#997AFC"/>
<path d="M176.837 232.102C176.837 246.135 165.46 257.512 151.427 257.512C137.393 257.512 126.017 246.135 126.017 232.102C126.017 218.069 137.393 206.692 151.427 206.692C165.46 206.692 176.837 218.069 176.837 232.102Z" fill="#997AFC"/>
<path d="M151.427 199.818C151.427 222.016 133.432 240.011 111.233 240.011C89.0351 240.011 71.04 222.016 71.04 199.818C71.04 177.62 89.0351 159.625 111.233 159.625C133.432 159.625 151.427 177.62 151.427 199.818Z" fill="#997AFC"/>
<mask id="mask0_2_2" style="mask-type:alpha" maskUnits="userSpaceOnUse" x="71" y="76" width="226" height="213">
<path d="M275.928 164.688C274.594 115.973 234.714 76.8856 185.678 76.8856C137.262 76.8856 97.7525 114.983 95.4745 162.834C81.1097 168.964 71.0396 183.214 71.0396 199.818C71.0396 222.015 89.0347 240.012 111.233 240.012C116.636 240.012 121.788 238.937 126.494 237.004C128.779 248.691 139.07 257.512 151.426 257.512C158.365 257.512 164.652 254.727 169.237 250.219V278.298C169.237 284.056 173.948 288.766 179.706 288.766C185.463 288.766 190.175 284.056 190.175 278.298V245.864C195.693 252.949 204.298 257.512 213.973 257.512C227.071 257.512 238.213 249.159 242.378 237.492C246.744 239.118 251.467 240.012 256.4 240.012C278.599 240.012 296.593 222.015 296.593 199.818C296.593 184.709 288.252 171.554 275.928 164.688Z" fill="white"/>
</mask>
<g mask="url(#mask0_2_2)">
<path d="M315.217 251.656L85.4771 300.487L81.2215 280.463L310.96 231.63L315.217 251.656Z" fill="#8673FF"/>
<path d="M314.896 209.85L85.1565 258.682L80.8997 238.658L310.639 189.825L314.896 209.85Z" fill="#8673FF"/>
<path d="M289.764 173.438L60.0239 222.271L55.7672 202.245L285.507 153.412L289.764 173.438Z" fill="#8673FF"/>
<path d="M296.704 130.01L66.9643 178.843L62.7076 158.818L292.447 109.985L296.704 130.01Z" fill="#8673FF"/>
<path d="M296.704 88.0656L66.9643 136.899L62.7076 116.873L292.447 68.0404L296.704 88.0656Z" fill="#8673FF"/>
</g>
<g opacity="0.5">
<mask id="mask1_2_2" style="mask-type:alpha" maskUnits="userSpaceOnUse" x="71" y="76" width="226" height="213">
<path d="M95.4745 162.834C81.1097 168.964 71.0396 183.214 71.0396 199.818C71.0396 222.017 89.0347 240.011 111.233 240.011C116.636 240.011 121.788 238.937 126.494 237.004C128.78 248.692 139.07 257.512 151.426 257.512C158.366 257.512 164.652 254.727 169.237 250.22V278.299C169.237 284.056 173.948 288.766 179.706 288.766C185.463 288.766 190.175 284.056 190.175 278.299V245.864C195.693 252.949 204.297 257.512 213.974 257.512C227.07 257.512 238.214 249.159 242.378 237.492C246.745 239.118 251.467 240.011 256.4 240.011C278.598 240.011 296.594 222.017 296.594 199.818C296.594 184.709 288.252 171.553 275.928 164.688C274.594 115.973 234.715 76.8856 185.678 76.8856C137.262 76.8856 97.7525 114.983 95.4745 162.834Z" fill="white"/>
</mask>
<g mask="url(#mask1_2_2)">
<path d="M180.078 288.767C180.078 288.767 184.189 287.713 184.189 279.586C184.189 271.458 184.189 214.508 184.189 214.508C184.189 214.508 186.417 227.176 190.546 232.102V276.483C190.546 276.483 191.105 289.512 180.078 288.767Z" fill="#7251ED"/>
<path d="M169.237 242.983C169.237 242.983 152.034 258.965 132.811 249.392C132.811 249.392 148.3 268.337 169.237 250.219V242.983Z" fill="#7251ED"/>
<path d="M204.663 78.8094C206.183 79.1388 268.549 101.486 266.956 160.928C266.956 160.928 294.011 177.652 283.229 209.204C275.692 231.265 244.501 232.102 244.501 232.102L241.335 240.804L272.063 257.512L322.592 223.72L308.634 121.825L250.567 65.4329L204.663 78.8094Z" fill="#7251ED"/>
<path d="M242.964 217.849C242.964 217.849 241.336 240.804 224.513 245.678C203.29 251.825 190.547 232.102 190.547 232.102V253.778L208.506 273.506C208.506 273.506 242.991 261.223 242.964 260.664C242.938 260.106 244.501 232.102 244.501 232.102C244.501 232.102 245.597 227.332 242.964 217.849Z" fill="#7251ED"/>
</g>
</g>
<path d="M236.375 187.687C236.375 190.051 234.459 191.967 232.095 191.967C229.731 191.967 227.814 190.051 227.814 187.687C227.814 185.323 229.731 183.406 232.095 183.406C234.459 183.406 236.375 185.323 236.375 187.687Z" fill="white"/>
<path d="M261.405 171.384C253.058 167.469 241.472 169.487 237.47 177.745" stroke="white" stroke-width="8" stroke-linecap="round" stroke-linejoin="round"/>
<path d="M85.1175 184.563C85.1175 186.736 83.3621 188.497 81.1969 188.497C79.0317 188.497 77.2763 186.736 77.2763 184.563C77.2763 182.39 79.0317 180.629 81.1969 180.629C83.3621 180.629 85.1175 182.39 85.1175 184.563Z" fill="white"/>
<path d="M88.2025 176.973C88.4314 176.796 93.9333 166.275 109.287 168.167" stroke="white" stroke-width="8" stroke-linecap="round" stroke-linejoin="round"/>
<path d="M138.175 106.502C138.175 106.502 124.032 116.952 117.113 137.648" stroke="white" stroke-width="8" stroke-linecap="round" stroke-linejoin="round"/>
<path d="M150.998 99.8642C150.998 102.228 149.082 104.144 146.718 104.144C144.354 104.144 142.437 102.228 142.437 99.8642C142.437 97.5002 144.354 95.584 146.718 95.584C149.082 95.584 150.998 97.5002 150.998 99.8642Z" fill="white"/>
<path d="M153.353 166.276C153.353 171.108 149.437 175.023 144.606 175.023C139.774 175.023 135.858 171.108 135.858 166.276C135.858 161.445 139.774 157.529 144.606 157.529C149.437 157.529 153.353 161.445 153.353 166.276Z" fill="#0C0F1E"/>
<path d="M231.216 167.113C231.216 171.945 227.3 175.86 222.47 175.86C217.639 175.86 213.722 171.945 213.722 167.113C213.722 162.283 217.639 158.367 222.47 158.367C227.3 158.367 231.216 162.283 231.216 167.113Z" fill="#0C0F1E"/>
<path d="M168.251 171.673C166.369 171.673 164.953 173.402 165.331 175.246C166.983 183.325 174.132 189.403 182.699 189.403C191.268 189.403 198.416 183.325 200.069 175.246C200.446 173.402 199.031 171.673 197.149 171.673H168.251Z" fill="#0C0F1E"/>
<path d="M190.927 183.406C190.927 185.601 187.401 187.381 183.05 187.381C178.7 187.381 175.173 185.601 175.173 183.406C175.173 181.211 178.7 179.431 183.05 179.431C187.401 179.431 190.927 181.211 190.927 183.406Z" fill="#FF94EB"/>
<path d="M43.683 166.492H56.3382" stroke="#8673FF" stroke-width="4" stroke-linecap="round" stroke-linejoin="round"/>
<path d="M50.0106 160.164V172.819" stroke="#8673FF" stroke-width="4" stroke-linecap="round" stroke-linejoin="round"/>
<path d="M286.558 246.054H299.213" stroke="#8673FF" stroke-width="4" stroke-linecap="round" stroke-linejoin="round"/>
<path d="M292.886 239.727V252.382" stroke="#8673FF" stroke-width="4" stroke-linecap="round" stroke-linejoin="round"/>
<path d="M289.071 90.2793H301.726" stroke="#8673FF" stroke-width="4" stroke-linecap="round" stroke-linejoin="round"/>
<path d="M295.398 83.9517V96.6069" stroke="#8673FF" stroke-width="4" stroke-linecap="round" stroke-linejoin="round"/>
<path d="M66.2955 126.478C66.2955 127.505 65.4625 128.339 64.4341 128.339C63.4067 128.339 62.5737 127.505 62.5737 126.478C62.5737 125.45 63.4067 124.616 64.4341 124.616C65.4625 124.616 66.2955 125.45 66.2955 126.478Z" fill="#997AFC"/>
<path d="M62.9455 191.244C62.9455 192.272 62.1125 193.106 61.0841 193.106C60.0567 193.106 59.2237 192.272 59.2237 191.244C59.2237 190.217 60.0567 189.383 61.0841 189.383C62.1125 189.383 62.9455 190.217 62.9455 191.244Z" fill="#997AFC"/>
<path d="M98.6789 249.311C98.6789 250.338 97.8458 251.173 96.8174 251.173C95.7901 251.173 94.957 250.338 94.957 249.311C94.957 248.284 95.7901 247.45 96.8174 247.45C97.8458 247.45 98.6789 248.284 98.6789 249.311Z" fill="#997AFC"/>
<path d="M107.612 269.411C107.612 270.438 106.779 271.273 105.751 271.273C104.723 271.273 103.89 270.438 103.89 269.411C103.89 268.384 104.723 267.55 105.751 267.55C106.779 267.55 107.612 268.384 107.612 269.411Z" fill="#997AFC"/>
<path d="M310.846 224.744C310.846 225.772 310.012 226.606 308.984 226.606C307.957 226.606 307.124 225.772 307.124 224.744C307.124 223.717 307.957 222.883 308.984 222.883C310.012 222.883 310.846 223.717 310.846 224.744Z" fill="#997AFC"/>
<path d="M266.179 79.5777C266.179 80.605 265.346 81.4392 264.317 81.4392C263.29 81.4392 262.457 80.605 262.457 79.5777C262.457 78.5504 263.29 77.7162 264.317 77.7162C265.346 77.7162 266.179 78.5504 266.179 79.5777Z" fill="#997AFC"/>
<path d="M143.346 68.411C143.346 69.4384 142.513 70.2725 141.484 70.2725C140.457 70.2725 139.624 69.4384 139.624 68.411C139.624 67.3837 140.457 66.5495 141.484 66.5495C142.513 66.5495 143.346 67.3837 143.346 68.411Z" fill="#997AFC"/>
<path d="M127.712 65.061C127.712 66.0883 126.879 66.9225 125.851 66.9225C124.823 66.9225 123.99 66.0883 123.99 65.061C123.99 64.0337 124.823 63.1995 125.851 63.1995C126.879 63.1995 127.712 64.0337 127.712 65.061Z" fill="#997AFC"/>
<path d="M633.728 14.8385L610.948 9.92134L567.692 210.125L590.472 215.042L633.728 14.8385Z" fill="#7358F7"/>
<path d="M633.726 14.8519L633.588 14.806L605.09 37.0422L597.414 72.6019L626.049 50.2278L633.726 14.8519Z" fill="#9F73FF"/>
<path d="M619.89 78.8498L591.208 101.224L583.532 136.784L612.214 114.41L619.89 78.8498Z" fill="#9F73FF"/>
<path d="M569.651 200.965L598.333 178.545L606.009 143.032L577.327 165.406L569.651 200.965Z" fill="#9F73FF"/>
<path d="M639.196 389.33H545.336C524.238 389.33 506.818 372.883 505.623 351.795L495.878 181.945H688.607L678.863 351.795C677.714 372.837 660.247 389.33 639.196 389.33Z" fill="#F5E7C6"/>
<path d="M619.109 95.2975H563.446C528.973 106.737 499.279 135.084 499.279 168.209C499.279 170.873 499.417 173.446 499.739 176.064H684.701C685.022 173.492 685.16 170.873 685.16 168.209C685.206 135.084 653.582 106.783 619.109 95.2975Z" fill="#F5E7C6"/>
<path d="M523.641 161.179C522.951 161.179 522.262 161.087 521.572 160.857C517.711 159.663 515.459 155.482 516.608 151.439C520.515 137.518 536.787 117.855 551.909 113.353C555.77 112.205 559.815 114.547 560.918 118.544C562.021 122.587 559.769 126.768 555.908 127.916C546.255 130.765 533.247 146.202 530.581 155.666C529.754 159.02 526.812 161.179 523.641 161.179Z" fill="white"/>
<path d="M592.496 95.2975L564.318 228.335L586.393 237.247L616.305 95.2975H592.496Z" fill="#DBCBD0"/>
<path d="M675.186 227.979C591.668 272.728 573.926 203.4 510.219 221.456L513.758 282.514L670.451 282.881L675.186 227.979Z" fill="#F8B840"/>
<path d="M673.899 237.398L665.579 345.868C664.338 362.086 650.824 374.583 634.553 374.583H548.783C532.374 374.583 518.768 361.811 517.757 345.455L511.092 237.398H673.899Z" fill="#F8B840"/>
<path d="M675.186 227.979C664.338 218.791 649.813 214.978 633.45 216.035C612.122 217.413 591.852 225.177 582.981 233.447C606.331 245.851 646.458 257.383 675.186 227.979Z" fill="#F0A935"/>
<path d="M637.357 258.026C643.754 258.026 648.94 252.842 648.94 246.449C648.94 240.055 643.754 234.871 637.357 234.871C630.96 234.871 625.774 240.055 625.774 246.449C625.774 252.842 630.96 258.026 637.357 258.026Z" fill="#382519"/>
<path d="M593.736 279.711C584.865 279.711 576.408 276.311 569.927 270.201C567.858 268.225 567.766 264.963 569.743 262.896C571.719 260.829 574.983 260.737 577.052 262.712C581.602 267.031 587.531 269.42 593.782 269.42C599.988 269.42 605.963 267.031 610.514 262.712C612.582 260.737 615.845 260.829 617.822 262.896C619.799 264.963 619.706 268.225 617.638 270.201C611.065 276.311 602.607 279.711 593.736 279.711Z" fill="#382519"/>
<path d="M550.116 258.026C556.513 258.026 561.699 252.842 561.699 246.449C561.699 240.055 556.513 234.871 550.116 234.871C543.719 234.871 538.533 240.055 538.533 246.449C538.533 252.842 543.719 258.026 550.116 258.026Z" fill="#382519"/>
<path d="M685.711 203.952H498.82C495.556 203.952 492.936 201.333 492.936 198.071C492.936 194.809 495.556 192.19 498.82 192.19H685.758C689.021 192.19 691.641 194.809 691.641 198.071C691.595 201.287 688.975 203.952 685.711 203.952Z" fill="#DAC8A2"/>
<path d="M687.32 193.614H497.211C492.109 193.614 487.972 189.48 487.972 184.38C487.972 179.281 492.109 175.146 497.211 175.146H687.32C692.423 175.146 696.559 179.281 696.559 184.38C696.559 189.48 692.423 193.614 687.32 193.614Z" fill="#F5E7C6"/>
<g filter="url(#filter0_i_2_2)">
<path d="M593.507 364.811C597.046 364.811 600.264 363.57 602.838 361.549C606.286 358.793 608.538 354.566 608.538 349.788C608.538 341.518 601.827 334.764 593.507 334.764C587.118 334.764 581.649 338.761 579.488 344.412C578.844 346.067 578.477 347.904 578.477 349.788C578.477 358.103 585.188 364.811 593.507 364.811Z" fill="#2B1D0B"/>
</g>
<g filter="url(#filter1_i_2_2)">
<path d="M549.931 364.811C553.471 364.811 556.689 363.57 559.262 361.549C562.71 358.793 564.962 354.566 564.962 349.788C564.962 341.518 558.252 334.764 549.931 334.764C543.542 334.764 538.073 338.761 535.913 344.412C535.269 346.067 534.901 347.904 534.901 349.788C534.901 358.103 541.612 364.811 549.931 364.811Z" fill="#2B1D0B"/>
</g>
<g filter="url(#filter2_i_2_2)">
<path d="M615.295 332.04C618.834 332.04 622.052 330.799 624.626 328.778C628.073 326.021 630.326 321.794 630.326 317.016C630.326 308.747 623.615 301.993 615.295 301.993C608.906 301.993 603.437 305.99 601.276 311.641C600.632 313.295 600.265 315.133 600.265 317.016C600.265 325.332 606.975 332.04 615.295 332.04Z" fill="#2B1D0B"/>
</g>
<g filter="url(#filter3_i_2_2)">
<path d="M571.719 332.04C575.259 332.04 578.476 330.799 581.05 328.778C584.498 326.021 586.75 321.794 586.75 317.016C586.75 308.747 580.039 301.993 571.719 301.993C565.33 301.993 559.861 305.99 557.701 311.641C557.057 313.295 556.689 315.133 556.689 317.016C556.689 325.332 563.4 332.04 571.719 332.04Z" fill="#2B1D0B"/>
</g>
<g filter="url(#filter4_i_2_2)">
<path d="M637.083 364.236C640.622 364.236 643.84 362.996 646.414 360.974C649.861 358.218 652.113 353.991 652.113 349.213C652.113 340.943 645.403 334.19 637.083 334.19C630.694 334.19 625.224 338.186 623.064 343.838C622.42 345.492 622.053 347.329 622.053 349.213C622.053 357.528 628.763 364.236 637.083 364.236Z" fill="#2B1D0B"/>
</g>
</g>
<defs>
<filter id="filter0_i_2_2" x="575.477" y="334.764" width="33.0609" height="33.0467" filterUnits="userSpaceOnUse" color-interpolation-filters="sRGB">
<feFlood flood-opacity="0" result="BackgroundImageFix"/>
<feBlend mode="normal" in="SourceGraphic" in2="BackgroundImageFix" result="shape"/>
<feColorMatrix in="SourceAlpha" type="matrix" values="0 0 0 0 0 0 0 0 0 0 0 0 0 0 0 0 0 0 127 0" result="hardAlpha"/>
<feOffset dx="-5" dy="5"/>
<feGaussianBlur stdDeviation="1.5"/>
<feComposite in2="hardAlpha" operator="arithmetic" k2="-1" k3="1"/>
<feColorMatrix type="matrix" values="0 0 0 0 0.396078 0 0 0 0 0.25098 0 0 0 0 0.0901961 0 0 0 1 0"/>
<feBlend mode="normal" in2="shape" result="effect1_innerShadow_2_2"/>
</filter>
<filter id="filter1_i_2_2" x="531.901" y="334.764" width="33.0609" height="33.0467" filterUnits="userSpaceOnUse" color-interpolation-filters="sRGB">
<feFlood flood-opacity="0" result="BackgroundImageFix"/>
<feBlend mode="normal" in="SourceGraphic" in2="BackgroundImageFix" result="shape"/>
<feColorMatrix in="SourceAlpha" type="matrix" values="0 0 0 0 0 0 0 0 0 0 0 0 0 0 0 0 0 0 127 0" result="hardAlpha"/>
<feOffset dx="-5" dy="5"/>
<feGaussianBlur stdDeviation="1.5"/>
<feComposite in2="hardAlpha" operator="arithmetic" k2="-1" k3="1"/>
<feColorMatrix type="matrix" values="0 0 0 0 0.396078 0 0 0 0 0.25098 0 0 0 0 0.0901961 0 0 0 1 0"/>
<feBlend mode="normal" in2="shape" result="effect1_innerShadow_2_2"/>
</filter>
<filter id="filter2_i_2_2" x="597.265" y="301.993" width="33.0609" height="33.0467" filterUnits="userSpaceOnUse" color-interpolation-filters="sRGB">
<feFlood flood-opacity="0" result="BackgroundImageFix"/>
<feBlend mode="normal" in="SourceGraphic" in2="BackgroundImageFix" result="shape"/>
<feColorMatrix in="SourceAlpha" type="matrix" values="0 0 0 0 0 0 0 0 0 0 0 0 0 0 0 0 0 0 127 0" result="hardAlpha"/>
<feOffset dx="-5" dy="5"/>
<feGaussianBlur stdDeviation="1.5"/>
<feComposite in2="hardAlpha" operator="arithmetic" k2="-1" k3="1"/>
<feColorMatrix type="matrix" values="0 0 0 0 0.396078 0 0 0 0 0.25098 0 0 0 0 0.0901961 0 0 0 1 0"/>
<feBlend mode="normal" in2="shape" result="effect1_innerShadow_2_2"/>
</filter>
<filter id="filter3_i_2_2" x="553.689" y="301.993" width="33.0609" height="33.0467" filterUnits="userSpaceOnUse" color-interpolation-filters="sRGB">
<feFlood flood-opacity="0" result="BackgroundImageFix"/>
<feBlend mode="normal" in="SourceGraphic" in2="BackgroundImageFix" result="shape"/>
<feColorMatrix in="SourceAlpha" type="matrix" values="0 0 0 0 0 0 0 0 0 0 0 0 0 0 0 0 0 0 127 0" result="hardAlpha"/>
<feOffset dx="-5" dy="5"/>
<feGaussianBlur stdDeviation="1.5"/>
<feComposite in2="hardAlpha" operator="arithmetic" k2="-1" k3="1"/>
<feColorMatrix type="matrix" values="0 0 0 0 0.396078 0 0 0 0 0.25098 0 0 0 0 0.0901961 0 0 0 1 0"/>
<feBlend mode="normal" in2="shape" result="effect1_innerShadow_2_2"/>
</filter>
<filter id="filter4_i_2_2" x="619.053" y="334.19" width="33.0609" height="33.0467" filterUnits="userSpaceOnUse" color-interpolation-filters="sRGB">
<feFlood flood-opacity="0" result="BackgroundImageFix"/>
<feBlend mode="normal" in="SourceGraphic" in2="BackgroundImageFix" result="shape"/>
<feColorMatrix in="SourceAlpha" type="matrix" values="0 0 0 0 0 0 0 0 0 0 0 0 0 0 0 0 0 0 127 0" result="hardAlpha"/>
<feOffset dx="-5" dy="5"/>
<feGaussianBlur stdDeviation="1.5"/>
<feComposite in2="hardAlpha" operator="arithmetic" k2="-1" k3="1"/>
<feColorMatrix type="matrix" values="0 0 0 0 0.396078 0 0 0 0 0.25098 0 0 0 0 0.0901961 0 0 0 1 0"/>
<feBlend mode="normal" in2="shape" result="effect1_innerShadow_2_2"/>
</filter>
<clipPath id="clip0_2_2">
<rect width="784" height="400" fill="white"/>
</clipPath>
</defs>
</svg>
