<svg width="443" height="774" viewBox="0 0 443 774" fill="none" xmlns="http://www.w3.org/2000/svg">
<path d="M285.557 50.1595L245.827 41.607L170.384 389.827L210.114 398.379L285.557 50.1595Z" fill="#7358F7"/>
<path d="M285.553 50.1829L285.313 50.103L235.609 88.779L222.222 150.629L272.165 111.713L285.553 50.1829Z" fill="#9F73FF"/>
<path d="M261.423 161.496L211.399 200.412L198.011 262.262L248.035 223.346L261.423 161.496Z" fill="#9F73FF"/>
<path d="M173.801 373.895L223.825 334.899L237.213 273.129L187.189 312.045L173.801 373.895Z" fill="#9F73FF"/>
<path d="M295.093 701.522H131.393C94.5965 701.522 64.2134 672.915 62.1291 636.237L45.1338 340.812H381.272L364.277 636.237C362.272 672.835 331.809 701.522 295.093 701.522Z" fill="#F5E7C6"/>
<path d="M260.06 190.104H162.978C102.854 210.001 51.0661 259.305 51.0661 316.92C51.0661 321.554 51.3066 326.029 51.8677 330.584H374.458C375.019 326.109 375.259 321.554 375.259 316.92C375.34 259.305 320.185 210.081 260.06 190.104Z" fill="#F5E7C6"/>
<path d="M93.5543 304.694C92.3518 304.694 91.1493 304.534 89.9468 304.134C83.2128 302.057 79.2847 294.785 81.2888 287.753C88.103 263.54 116.482 229.339 142.857 221.508C149.591 219.511 156.645 223.586 158.569 230.538C160.493 237.57 156.565 244.842 149.831 246.839C132.996 251.794 110.309 278.643 105.659 295.105C104.216 300.938 99.0858 304.694 93.5543 304.694Z" fill="white"/>
<path d="M213.644 190.104L164.5 421.5L203 437L255.17 190.104H213.644Z" fill="#DBCBD0"/>
<path d="M357.863 420.881C212.201 498.713 181.256 378.13 70.1457 409.534L76.3185 515.734L349.606 516.373L357.863 420.881Z" fill="#F8B840"/>
<path d="M355.619 437.263L341.108 625.928C338.944 654.136 315.375 675.872 286.996 675.872H137.405C108.786 675.872 85.0567 653.657 83.293 625.209L71.6689 437.263H355.619Z" fill="#F8B840"/>
<path d="M357.863 420.881C338.944 404.9 313.611 398.267 285.072 400.105C247.875 402.502 212.521 416.007 197.049 430.391C237.774 451.966 307.759 472.023 357.863 420.881Z" fill="#F0A935"/>
<path d="M291.886 473.142C303.043 473.142 312.088 464.126 312.088 453.005C312.088 441.884 303.043 432.868 291.886 432.868C280.729 432.868 271.684 441.884 271.684 453.005C271.684 464.126 280.729 473.142 291.886 473.142Z" fill="#382519"/>
<path d="M215.808 510.859C200.336 510.859 185.585 504.946 174.282 494.318C170.674 490.882 170.514 485.208 173.961 481.612C177.408 478.017 183.1 477.857 186.708 481.293C194.644 488.804 204.986 492.959 215.888 492.959C226.711 492.959 237.132 488.804 245.069 481.293C248.676 477.857 254.368 478.017 257.815 481.612C261.263 485.208 261.102 490.882 257.495 494.318C246.031 504.946 231.28 510.859 215.808 510.859Z" fill="#382519"/>
<path d="M139.73 473.142C150.887 473.142 159.932 464.126 159.932 453.005C159.932 441.884 150.887 432.868 139.73 432.868C128.573 432.868 119.528 441.884 119.528 453.005C119.528 464.126 128.573 473.142 139.73 473.142Z" fill="#382519"/>
<path d="M376.221 379.089H50.2644C44.5726 379.089 40.0031 374.534 40.0031 368.86C40.0031 363.187 44.5726 358.632 50.2644 358.632H376.302C381.993 358.632 386.563 363.187 386.563 368.86C386.483 374.454 381.913 379.089 376.221 379.089Z" fill="#DAC8A2"/>
<path d="M379.027 361.109H47.4586C38.5601 361.109 31.3451 353.918 31.3451 345.048C31.3451 336.178 38.5601 328.986 47.4586 328.986H379.027C387.926 328.986 395.141 336.178 395.141 345.048C395.141 353.918 387.926 361.109 379.027 361.109Z" fill="#F5E7C6"/>
<g filter="url(#filter0_i_1_2)">
<path d="M215.408 658.876C221.581 658.876 227.193 656.718 231.682 653.202C237.695 648.408 241.623 641.056 241.623 632.745C241.623 618.362 229.919 606.615 215.408 606.615C204.265 606.615 194.726 613.567 190.958 623.396C189.835 626.273 189.194 629.469 189.194 632.745C189.194 647.209 200.898 658.876 215.408 658.876Z" fill="#2B1D0B"/>
</g>
<g filter="url(#filter1_i_1_2)">
<path d="M139.408 658.876C145.581 658.876 151.193 656.718 155.682 653.202C161.695 648.408 165.623 641.056 165.623 632.745C165.623 618.362 153.919 606.615 139.408 606.615C128.265 606.615 118.726 613.567 114.958 623.396C113.835 626.273 113.194 629.469 113.194 632.745C113.194 647.209 124.898 658.876 139.408 658.876Z" fill="#2B1D0B"/>
</g>
<g filter="url(#filter2_i_1_2)">
<path d="M253.408 601.876C259.581 601.876 265.193 599.718 269.682 596.202C275.695 591.408 279.623 584.056 279.623 575.745C279.623 561.362 267.919 549.615 253.408 549.615C242.265 549.615 232.726 556.567 228.958 566.396C227.835 569.273 227.194 572.469 227.194 575.745C227.194 590.209 238.898 601.876 253.408 601.876Z" fill="#2B1D0B"/>
</g>
<g filter="url(#filter3_i_1_2)">
<path d="M177.408 601.876C183.581 601.876 189.193 599.718 193.682 596.202C199.695 591.408 203.623 584.056 203.623 575.745C203.623 561.362 191.919 549.615 177.408 549.615C166.265 549.615 156.726 556.567 152.958 566.396C151.835 569.273 151.194 572.469 151.194 575.745C151.194 590.209 162.898 601.876 177.408 601.876Z" fill="#2B1D0B"/>
</g>
<g filter="url(#filter4_i_1_2)">
<path d="M291.408 657.876C297.581 657.876 303.193 655.718 307.682 652.202C313.695 647.408 317.623 640.056 317.623 631.745C317.623 617.362 305.919 605.615 291.408 605.615C280.265 605.615 270.726 612.567 266.958 622.396C265.835 625.273 265.194 628.469 265.194 631.745C265.194 646.209 276.898 657.876 291.408 657.876Z" fill="#2B1D0B"/>
</g>
<defs>
<filter id="filter0_i_1_2" x="186.194" y="606.615" width="55.4289" height="55.2606" filterUnits="userSpaceOnUse" color-interpolation-filters="sRGB">
<feFlood flood-opacity="0" result="BackgroundImageFix"/>
<feBlend mode="normal" in="SourceGraphic" in2="BackgroundImageFix" result="shape"/>
<feColorMatrix in="SourceAlpha" type="matrix" values="0 0 0 0 0 0 0 0 0 0 0 0 0 0 0 0 0 0 127 0" result="hardAlpha"/>
<feOffset dx="-5" dy="5"/>
<feGaussianBlur stdDeviation="1.5"/>
<feComposite in2="hardAlpha" operator="arithmetic" k2="-1" k3="1"/>
<feColorMatrix type="matrix" values="0 0 0 0 0.396078 0 0 0 0 0.25098 0 0 0 0 0.0901961 0 0 0 1 0"/>
<feBlend mode="normal" in2="shape" result="effect1_innerShadow_1_2"/>
</filter>
<filter id="filter1_i_1_2" x="110.194" y="606.615" width="55.4289" height="55.2606" filterUnits="userSpaceOnUse" color-interpolation-filters="sRGB">
<feFlood flood-opacity="0" result="BackgroundImageFix"/>
<feBlend mode="normal" in="SourceGraphic" in2="BackgroundImageFix" result="shape"/>
<feColorMatrix in="SourceAlpha" type="matrix" values="0 0 0 0 0 0 0 0 0 0 0 0 0 0 0 0 0 0 127 0" result="hardAlpha"/>
<feOffset dx="-5" dy="5"/>
<feGaussianBlur stdDeviation="1.5"/>
<feComposite in2="hardAlpha" operator="arithmetic" k2="-1" k3="1"/>
<feColorMatrix type="matrix" values="0 0 0 0 0.396078 0 0 0 0 0.25098 0 0 0 0 0.0901961 0 0 0 1 0"/>
<feBlend mode="normal" in2="shape" result="effect1_innerShadow_1_2"/>
</filter>
<filter id="filter2_i_1_2" x="224.194" y="549.615" width="55.4289" height="55.2606" filterUnits="userSpaceOnUse" color-interpolation-filters="sRGB">
<feFlood flood-opacity="0" result="BackgroundImageFix"/>
<feBlend mode="normal" in="SourceGraphic" in2="BackgroundImageFix" result="shape"/>
<feColorMatrix in="SourceAlpha" type="matrix" values="0 0 0 0 0 0 0 0 0 0 0 0 0 0 0 0 0 0 127 0" result="hardAlpha"/>
<feOffset dx="-5" dy="5"/>
<feGaussianBlur stdDeviation="1.5"/>
<feComposite in2="hardAlpha" operator="arithmetic" k2="-1" k3="1"/>
<feColorMatrix type="matrix" values="0 0 0 0 0.396078 0 0 0 0 0.25098 0 0 0 0 0.0901961 0 0 0 1 0"/>
<feBlend mode="normal" in2="shape" result="effect1_innerShadow_1_2"/>
</filter>
<filter id="filter3_i_1_2" x="148.194" y="549.615" width="55.4289" height="55.2606" filterUnits="userSpaceOnUse" color-interpolation-filters="sRGB">
<feFlood flood-opacity="0" result="BackgroundImageFix"/>
<feBlend mode="normal" in="SourceGraphic" in2="BackgroundImageFix" result="shape"/>
<feColorMatrix in="SourceAlpha" type="matrix" values="0 0 0 0 0 0 0 0 0 0 0 0 0 0 0 0 0 0 127 0" result="hardAlpha"/>
<feOffset dx="-5" dy="5"/>
<feGaussianBlur stdDeviation="1.5"/>
<feComposite in2="hardAlpha" operator="arithmetic" k2="-1" k3="1"/>
<feColorMatrix type="matrix" values="0 0 0 0 0.396078 0 0 0 0 0.25098 0 0 0 0 0.0901961 0 0 0 1 0"/>
<feBlend mode="normal" in2="shape" result="effect1_innerShadow_1_2"/>
</filter>
<filter id="filter4_i_1_2" x="262.194" y="605.615" width="55.4289" height="55.2606" filterUnits="userSpaceOnUse" color-interpolation-filters="sRGB">
<feFlood flood-opacity="0" result="BackgroundImageFix"/>
<feBlend mode="normal" in="SourceGraphic" in2="BackgroundImageFix" result="shape"/>
<feColorMatrix in="SourceAlpha" type="matrix" values="0 0 0 0 0 0 0 0 0 0 0 0 0 0 0 0 0 0 127 0" result="hardAlpha"/>
<feOffset dx="-5" dy="5"/>
<feGaussianBlur stdDeviation="1.5"/>
<feComposite in2="hardAlpha" operator="arithmetic" k2="-1" k3="1"/>
<feColorMatrix type="matrix" values="0 0 0 0 0.396078 0 0 0 0 0.25098 0 0 0 0 0.0901961 0 0 0 1 0"/>
<feBlend mode="normal" in2="shape" result="effect1_innerShadow_1_2"/>
</filter>
</defs>
</svg>
