<?xml version="1.0" encoding="utf-8"?>
<!-- Generator: Adobe Illustrator 21.1.0, SVG Export Plug-In . SVG Version: 6.00 Build 0)  -->
<svg version="1.1" id="Layer_1" xmlns="http://www.w3.org/2000/svg" xmlns:xlink="http://www.w3.org/1999/xlink" x="0px" y="0px"
	 viewBox="0 0 300 300" style="enable-background:new 0 0 300 300;" xml:space="preserve">
<style type="text/css">
	.st0{filter:url(#Adobe_OpacityMaskFilter);}
	.st1{fill:#FFFFFF;}
	.st2{mask:url(#mask-2);fill:#51AF33;}
</style>
<g id="Page-1" transform="translate(8.000000, 6.000000)">
	<g id="Group-3" transform="translate(0.000000, 0.357825)">
		<g id="Clip-2">
		</g>
		<defs>
			<filter id="Adobe_OpacityMaskFilter" filterUnits="userSpaceOnUse" x="12.6" y="29.7" width="258.7" height="227.9">
				<feColorMatrix  type="matrix" values="1 0 0 0 0  0 1 0 0 0  0 0 1 0 0  0 0 0 1 0"/>
			</filter>
		</defs>
		<mask maskUnits="userSpaceOnUse" x="12.6" y="29.7" width="258.7" height="227.9" id="mask-2">
			<g class="st0">
				<polygon id="path-1" class="st1" points="271.4,29.7 12.6,29.7 12.6,257.6 271.4,257.6 				"/>
			</g>
		</mask>
		<path id="Fill-1" class="st2" d="M265.8,133.5c-13.4-21.9-22.8-24.6-31.1-27.1c-7.1-2.1-13.2-3.9-24.9-23.5
			c-8.6-14.4-19.8-27.7-31.6-37.5c-15.7-13-27.1-15.7-33.9-15.7c-4.6,0-8.7,1.2-12.1,3.6l-5.4,3.8c-2-0.5-3.5-0.6-4.7-0.6
			c-2.9,0-5.4,0.8-7.4,2.4c-2.6,2.1-3.9,5.4-3.6,9c0.4,4.1,3.1,9,8.3,15.3c1.8,2.2,4,4.6,6.4,7c-5.4-0.9-10.9-1.4-16.5-1.4
			c-30,0-56.7,14-74,35.8c-0.7-0.1-1.4-0.1-2.1-0.1c-7.3,0-13.7,3.5-17.6,9.7c-3.2,5-4,11-2.2,16.7c0.9,3.1,2.5,5.9,4.6,8.1
			c-2,7.7-3.1,15.8-3.1,24.2c0,52.1,42.3,94.4,94.4,94.4c35.6,0,66.6-19.7,82.7-48.8c1.6,0.2,3.3,0.3,4.8,0.3
			c4.6,0,8.4-0.8,11.5-2.4c4.2-2.2,6.9-6,7.2-10.3c0.4-4.6-1.6-8.7-5.6-11.5c-2.3-1.6-5-2.7-7.9-3.7c0.4-2.1,0.7-4.2,1-6.3
			c6.9,2.4,13.8,3,20.4,3c2.9,0,6.1-0.1,10.3-0.4c22.6-1.4,31.6-9.7,35.1-16.5C271.8,155.4,273.6,146.2,265.8,133.5"/>
	</g>
	<path id="Fill-4" class="st1" d="M237.4,137.9c-3.4,0-6.7-2.8-7.3-6.2c-0.6-3.4,1.7-6.2,5.1-6.2c3.4,0,6.7,2.8,7.3,6.2
		C243.1,135.1,240.8,137.9,237.4,137.9 M260.1,137.6c-23.1-38.8-31.4-10.8-56.2-50.8c-20.1-32.3-50.5-55.3-65.4-48.6
		c-0.8,0.4-0.8,1.5,0,1.8c14.7,6,46.5,32.2,59.9,58.7c0.3,0.7-0.6,1.2-1,0.7c-16.9-21.3-69.1-61.8-78-54.7
		c-7.4,5.9,31.9,43.1,63.8,59.5c0.7,0.4,1,1.3,0.6,2c-1.5,2.7-5,6.3-14.8,6.3c-16.9-0.1-33.2-24.9-69.5-25.4
		c-22.2-0.3-43.4,9-58.5,26.3c-0.2,0.3-0.6,0.3-0.9,0.1c-3.8-2.2-13.4-3.3-18.5,4.7c-4.6,7.4-0.4,15.6,4.2,18.4
		c0.6,0.3,0.8,1,0.6,1.6c-2.5,7.8-4,16.3-4.1,25.7c-0.5,38.4,31.4,75.2,76,75.6c18.2,0.2,30.4-5.4,40.4-11.5
		c11.7-7.1,20.2-16.3,18-23.1c-3.2-9.8-17.3-6.7-31.7-1c-0.9,0.3-1.6-0.8-0.9-1.5c7.6-7.9,12.2-18.6,12.2-30.4
		c0-24.2-19.6-43.9-43.9-43.9c-19.3,0-35.2,10-40.9,26.5c-0.1,0.6-0.7,0.9-1.3,0.8c-0.6-0.1-0.9-0.7-0.8-1.3
		c4.4-20.7,22.3-36,44-37.2c27.3-1.5,50.5,20.5,50.4,47.9c0,8.9-2.5,17.2-6.8,24.4c-0.7,1.2,0.6,2.6,1.9,2
		c5.3-2.9,9.9-6.8,13.7-11.4c0.2-0.3,0.7-0.3,1,0c23.7,26,54.1,26.5,54.9,16.3c0.9-11.5-28.4-4-30.3-32.5c0-0.6,0.6-0.9,1.1-0.5
		c2.7,2.3,6,1.1,6.7,0.7c1.6-0.8,3.2-2.7,3.4-4.9c0.1-0.5,0.7-0.8,1.1-0.4c12.7,12.3,25.5,12.9,43,11.9
		C258.8,169.1,270.5,155.1,260.1,137.6"/>
</g>
</svg>
