<svg width="117" height="120" viewBox="0 0 117 120" fill="none" xmlns="http://www.w3.org/2000/svg">
<path fill-rule="evenodd" clip-rule="evenodd" d="M42.6985 -0.00341797C28.4964 -0.00341797 15.9392 9.21216 11.6889 22.7541L0 59.9965L11.6889 97.2389C15.9392 110.781 28.4964 119.996 42.6985 119.996H74.1845C88.3865 119.996 100.944 110.781 105.194 97.2389L116.883 59.9965L105.194 22.7541C100.944 9.21216 88.3865 -0.00341797 74.1845 -0.00341797H42.6985ZM74.185 9.35785C84.2934 9.35785 93.2311 15.9171 96.2562 25.5557L99.122 34.6864C93.3569 29.9273 86.0564 27.2486 78.4261 27.2481L38.3716 27.247C30.7926 27.2476 23.5391 29.8904 17.7923 34.5896L20.6277 25.5557C23.6529 15.9171 32.5905 9.35785 42.6989 9.35785H74.185ZM19.9545 45.7413L12.6763 55.3161L104.121 55.3161L96.8432 45.7424C92.4697 39.9888 85.6556 36.6099 78.4254 36.6093H38.1535C31.0048 36.6773 24.2839 40.0459 19.9545 45.7413ZM104.106 64.6773L96.8426 74.2423C92.4687 80.0023 85.6497 83.3852 78.4142 83.3846L38.3824 83.3836C31.1469 83.3841 24.3279 80.0013 19.954 74.2413L12.6916 64.6774L104.106 64.6773ZM20.6271 94.4373C23.6523 104.076 32.59 110.635 42.6984 110.635H74.1844C84.2928 110.635 93.2305 104.076 96.2557 94.4373L99.1235 85.3C93.3558 90.0648 86.0498 92.7465 78.4135 92.7459L38.3831 92.7448C30.7978 92.7454 23.5384 90.0994 17.7888 85.3941L20.6271 94.4373Z" fill="#8D75E6"/>
</svg>
