<svg width="800" height="800" viewBox="0 0 800 800" fill="none" xmlns="http://www.w3.org/2000/svg">
<rect width="800" height="800" fill="#8D75E6"/>
<path fill-rule="evenodd" clip-rule="evenodd" d="M346.124 194.667C297.521 194.667 254.548 226.205 240.002 272.548L200 400L240.002 527.452C254.548 573.796 297.521 605.333 346.124 605.333H453.876C502.479 605.333 545.452 573.796 559.998 527.452L600 400L559.998 272.548C545.452 226.205 502.479 194.667 453.876 194.667H346.124ZM453.878 226.703C488.471 226.703 519.058 249.15 529.411 282.136L539.218 313.383C519.488 297.097 494.505 287.929 468.392 287.927L331.316 287.924C305.379 287.926 280.556 296.97 260.889 313.052L270.593 282.136C280.945 249.15 311.532 226.703 346.125 226.703H453.878ZM268.289 351.216L243.381 383.983L556.325 383.983L531.42 351.219C516.452 331.529 493.133 319.966 468.39 319.964H330.57C306.106 320.196 283.105 331.724 268.289 351.216ZM556.274 416.019L531.417 448.752C516.449 468.464 493.113 480.041 468.351 480.04L331.353 480.036C306.592 480.038 283.256 468.461 268.287 448.749L243.434 416.019L556.274 416.019ZM270.591 517.864C280.944 550.85 311.53 573.297 346.124 573.297H453.876C488.469 573.297 519.056 550.85 529.409 517.864L539.223 486.594C519.485 502.9 494.482 512.078 468.349 512.076L331.356 512.072C305.397 512.074 280.554 503.019 260.877 486.916L270.591 517.864Z" fill="white"/>
</svg>
