<?xml version="1.0" encoding="UTF-8" standalone="no"?>
<!DOCTYPE svg PUBLIC "-//W3C//DTD SVG 1.1//EN"
 "http://www.w3.org/Graphics/SVG/1.1/DTD/svg11.dtd">
<!-- Generated by graphviz version 2.40.1 (20161225.0304)
 -->
<!-- Title: &#45;e Pages: 1 -->
<svg width="1236pt" height="526pt"
 viewBox="0.00 0.00 1236.00 525.55" xmlns="http://www.w3.org/2000/svg" xmlns:xlink="http://www.w3.org/1999/xlink">
<g id="graph0" class="graph" transform="scale(1 1) rotate(0) translate(4 521.5476)">
<title>&#45;e</title>
<polygon fill="#ffffff" stroke="transparent" points="-4,4 -4,-521.5476 1232,-521.5476 1232,4 -4,4"/>
<g id="clust1" class="cluster">
<title>cluster_#&lt;static&#45;init&gt;</title>
<polygon fill="none" stroke="#0000ff" points="8,-8 8,-509.5476 1220,-509.5476 1220,-8 8,-8"/>
<text text-anchor="middle" x="614" y="-494.3476" font-family="Times,serif" font-size="14.00" fill="#000000">#&lt;static&#45;init&gt;</text>
</g>
<!-- bb#&lt;static&#45;init&gt;_0 -->
<g id="node1" class="node">
<title>bb#&lt;static&#45;init&gt;_0</title>
<polygon fill="none" stroke="#000000" points="307.8502,-438.37 403,-416.6521 498.1498,-438.37 498.061,-473.5102 307.939,-473.5102 307.8502,-438.37"/>
<text text-anchor="start" x="333.0186" y="-450.8825" font-family="Times,serif" font-size="14.00" fill="#000000">block[id=0]()</text>
<text text-anchor="start" x="333.0186" y="-436.8825" font-family="Times,serif" font-size="14.00" fill="#000000">&lt;unconditional&gt;</text>
</g>
<!-- bb#&lt;static&#45;init&gt;_2 -->
<g id="node3" class="node">
<title>bb#&lt;static&#45;init&gt;_2</title>
<ellipse fill="none" stroke="#000000" cx="403" cy="-335.3625" rx="147.5859" ry="45.011"/>
<text text-anchor="start" x="306.6714" y="-352.1625" font-family="Times,serif" font-size="14.00" fill="#000000">block[id=2]()</text>
<text text-anchor="start" x="306.6714" y="-338.1625" font-family="Times,serif" font-size="14.00" fill="#000000">outerLoops: 1</text>
<text text-anchor="start" x="306.6714" y="-324.1625" font-family="Times,serif" font-size="14.00" fill="#000000">&lt;whileTemp&gt;$4: TrueClass = true</text>
<text text-anchor="start" x="306.6714" y="-310.1625" font-family="Times,serif" font-size="14.00" fill="#000000">&lt;whileTemp&gt;$4: TrueClass</text>
</g>
<!-- bb#&lt;static&#45;init&gt;_0&#45;&gt;bb#&lt;static&#45;init&gt;_2 -->
<g id="edge1" class="edge">
<title>bb#&lt;static&#45;init&gt;_0&#45;&gt;bb#&lt;static&#45;init&gt;_2</title>
<path fill="none" stroke="#000000" stroke-width="2" d="M403,-416.3837C403,-408.4272 403,-399.654 403,-390.907"/>
<polygon fill="#000000" stroke="#000000" stroke-width="2" points="406.5001,-390.7012 403,-380.7012 399.5001,-390.7013 406.5001,-390.7012"/>
</g>
<!-- bb#&lt;static&#45;init&gt;_1 -->
<g id="node2" class="node">
<title>bb#&lt;static&#45;init&gt;_1</title>
<polygon fill="none" stroke="#000000" points="1122.551,-88 943.5076,-88 897.449,-16 1076.4924,-16 1122.551,-88"/>
<text text-anchor="start" x="923.7961" y="-54.8" font-family="Times,serif" font-size="14.00" fill="#000000">block[id=1]()</text>
<text text-anchor="start" x="923.7961" y="-40.8" font-family="Times,serif" font-size="14.00" fill="#000000">&lt;unconditional&gt;</text>
</g>
<!-- bb#&lt;static&#45;init&gt;_1&#45;&gt;bb#&lt;static&#45;init&gt;_1 -->
<g id="edge2" class="edge">
<title>bb#&lt;static&#45;init&gt;_1&#45;&gt;bb#&lt;static&#45;init&gt;_1</title>
<path fill="none" stroke="#000000" stroke-width="2" d="M1114.395,-75.193C1130.1191,-71.6177 1140.7753,-63.8867 1140.7753,-52 1140.7753,-35.4537 1120.1272,-26.9597 1093.9039,-26.5182"/>
<polygon fill="#000000" stroke="#000000" stroke-width="2" points="1093.533,-23.0253 1083.612,-26.7432 1093.6861,-30.0237 1093.533,-23.0253"/>
</g>
<!-- bb#&lt;static&#45;init&gt;_4 -->
<g id="node4" class="node">
<title>bb#&lt;static&#45;init&gt;_4</title>
<ellipse fill="none" stroke="#000000" cx="403" cy="-189.0538" rx="387.235" ry="65.1077"/>
<text text-anchor="start" x="137.2666" y="-219.8538" font-family="Times,serif" font-size="14.00" fill="#000000">block[id=4]()</text>
<text text-anchor="start" x="137.2666" y="-205.8538" font-family="Times,serif" font-size="14.00" fill="#000000">outerLoops: 1</text>
<text text-anchor="start" x="137.2666" y="-191.8538" font-family="Times,serif" font-size="14.00" fill="#000000">&lt;statTemp&gt;$6: T.class_of(&lt;root&gt;) = self</text>
<text text-anchor="start" x="137.2666" y="-177.8538" font-family="Times,serif" font-size="14.00" fill="#000000">&lt;statTemp&gt;$7: Integer(42) = 42</text>
<text text-anchor="start" x="137.2666" y="-163.8538" font-family="Times,serif" font-size="14.00" fill="#000000">&lt;statTemp&gt;$5: NilClass = &lt;statTemp&gt;$6: T.class_of(&lt;root&gt;).puts(&lt;statTemp&gt;$7: Integer(42))</text>
<text text-anchor="start" x="137.2666" y="-149.8538" font-family="Times,serif" font-size="14.00" fill="#000000">&lt;unconditional&gt;</text>
</g>
<!-- bb#&lt;static&#45;init&gt;_2&#45;&gt;bb#&lt;static&#45;init&gt;_4 -->
<g id="edge3" class="edge">
<title>bb#&lt;static&#45;init&gt;_2&#45;&gt;bb#&lt;static&#45;init&gt;_4</title>
<path fill="none" stroke="#000000" stroke-width="2" d="M396.6987,-289.8715C396.4221,-281.732 396.2734,-273.0567 396.2526,-264.341"/>
<polygon fill="#000000" stroke="#000000" stroke-width="2" points="399.7532,-264.1323 396.2868,-254.1206 392.7532,-264.1088 399.7532,-264.1323"/>
</g>
<!-- bb#&lt;static&#45;init&gt;_3 -->
<g id="node5" class="node">
<title>bb#&lt;static&#45;init&gt;_3</title>
<ellipse fill="none" stroke="#000000" cx="1010" cy="-189.0538" rx="201.6296" ry="45.011"/>
<text text-anchor="start" x="875.4722" y="-205.8538" font-family="Times,serif" font-size="14.00" fill="#000000">block[id=3]()</text>
<text text-anchor="start" x="875.4722" y="-191.8538" font-family="Times,serif" font-size="14.00" fill="#000000">&lt;returnMethodTemp&gt;$2 = nil</text>
<text text-anchor="start" x="875.4722" y="-177.8538" font-family="Times,serif" font-size="14.00" fill="#000000">&lt;finalReturn&gt; = return &lt;returnMethodTemp&gt;$2</text>
<text text-anchor="start" x="875.4722" y="-163.8538" font-family="Times,serif" font-size="14.00" fill="#000000">&lt;unconditional&gt;</text>
</g>
<!-- bb#&lt;static&#45;init&gt;_2&#45;&gt;bb#&lt;static&#45;init&gt;_3 -->
<g id="edge4" class="edge">
<title>bb#&lt;static&#45;init&gt;_2&#45;&gt;bb#&lt;static&#45;init&gt;_3</title>
<polygon fill="#000000" stroke="transparent" points="530.4304,-312.9695 542.2991,-310.6866 554.4952,-308.3171 566.9912,-305.8641 579.76,-303.3306 592.7745,-300.7194 606.0075,-298.0336 619.4319,-295.2759 633.0206,-292.4494 646.7466,-289.557 660.5826,-286.6016 674.5016,-283.5861 688.4764,-280.5135 702.4799,-277.3868 716.485,-274.2087 730.4646,-270.9823 744.3916,-267.7105 758.2388,-264.3962 771.9792,-261.0424 785.5855,-257.6519 799.0307,-254.2278 803.3095,-253.1184 807.6135,-251.9882 811.9399,-250.8382 816.2861,-249.6697 820.6492,-248.4838 825.0266,-247.2817 829.4155,-246.0645 833.8131,-244.8333 838.2167,-243.5893 842.6236,-242.3337 847.0309,-241.0676 851.4361,-239.7921 855.8362,-238.5084 860.2287,-237.2177 864.6106,-235.9211 868.9794,-234.6197 873.3322,-233.3147 877.6663,-232.0073 881.9789,-230.6985 886.2673,-229.3897 886.2673,-229.3897 881.9754,-230.6868 877.6592,-231.9837 873.3216,-233.2793 868.9653,-234.5723 864.5931,-235.8617 860.2078,-237.1463 855.8119,-238.425 851.4085,-239.6966 847.0001,-240.9599 842.5895,-242.2139 838.1795,-243.4574 833.7728,-244.6893 829.3722,-245.9083 824.9804,-247.1134 820.6002,-248.3035 816.2344,-249.4773 811.8856,-250.6338 807.5566,-251.7717 803.2503,-252.89 798.9693,-253.9875 785.5161,-257.3745 771.902,-260.7274 758.154,-264.0432 744.2994,-267.3193 730.3652,-270.5526 716.3785,-273.7404 702.3665,-276.8797 688.3562,-279.9678 674.3749,-283.0018 660.4495,-285.9788 646.6073,-288.896 632.8753,-291.7505 619.2807,-294.5394 605.8506,-297.26 592.6121,-299.9093 579.5924,-302.4845 566.8185,-304.9827 554.3176,-307.4012 542.1168,-309.7369 530.2428,-311.9872 530.4304,-312.9695"/>
<polygon fill="#000000" stroke="#000000" points="887.3278,-232.7254 895.8634,-226.449 885.2768,-226.0326 887.3278,-232.7254"/>
</g>
<!-- bb#&lt;static&#45;init&gt;_4&#45;&gt;bb#&lt;static&#45;init&gt;_2 -->
<g id="edge6" class="edge">
<title>bb#&lt;static&#45;init&gt;_4&#45;&gt;bb#&lt;static&#45;init&gt;_2</title>
<path fill="none" stroke="#000000" stroke-width="2" d="M409.7132,-254.1206C409.7915,-262.6978 409.7448,-271.4252 409.573,-279.8233"/>
<polygon fill="#000000" stroke="#000000" stroke-width="2" points="406.0729,-279.7806 409.3013,-289.8715 413.0704,-279.9698 406.0729,-279.7806"/>
</g>
<!-- bb#&lt;static&#45;init&gt;_3&#45;&gt;bb#&lt;static&#45;init&gt;_1 -->
<g id="edge5" class="edge">
<title>bb#&lt;static&#45;init&gt;_3&#45;&gt;bb#&lt;static&#45;init&gt;_1</title>
<path fill="none" stroke="#000000" stroke-width="2" d="M1010,-143.7974C1010,-129.2414 1010,-113.0958 1010,-98.455"/>
<polygon fill="#000000" stroke="#000000" stroke-width="2" points="1013.5001,-98.1045 1010,-88.1045 1006.5001,-98.1045 1013.5001,-98.1045"/>
</g>
</g>
</svg>
