<svg width="400" height="400" viewBox="0 0 400 400" xmlns="http://www.w3.org/2000/svg" xmlns:xlink="http://www.w3.org/1999/xlink"><defs><path d="M244.643 105.654c14.716 8.199 24.674 23.905 24.674 41.947 0 26.504-21.485 47.992-47.992 47.992a47.88 47.88 0 0 1-16.742-3.008c-4.972 13.93-18.276 23.904-33.916 23.904-11.552 0-21.827-5.448-28.416-13.908v38.726c0 6.876-5.626 12.5-12.5 12.5-6.875 0-12.5-5.624-12.5-12.5v-33.526c-5.475 5.382-12.982 8.708-21.267 8.708-14.753 0-27.041-10.532-29.77-24.487a47.855 47.855 0 0 1-18.222 3.59C21.487 195.593 0 174.106 0 147.602c0-19.827 12.024-36.842 29.176-44.16C31.896 46.305 79.072.815 136.881.815c58.551 0 106.17 46.672 107.762 104.839z" id="a"/><path d="M29.176 102.633C31.896 45.497 79.072.008 136.881.008c58.552 0 106.17 46.672 107.762 104.839 14.716 8.197 24.676 23.905 24.676 41.946 0 26.506-21.488 47.991-47.994 47.991a47.884 47.884 0 0 1-16.742-3.007c-4.972 13.931-18.278 23.904-33.915 23.904-11.555 0-21.828-5.448-28.417-13.908v38.728c0 6.875-5.626 12.499-12.5 12.499-6.875 0-12.5-5.624-12.5-12.499v-33.526c-5.475 5.381-12.98 8.706-21.267 8.706-14.753 0-27.04-10.532-29.77-24.486a47.855 47.855 0 0 1-18.222 3.589C21.487 194.784 0 173.299 0 146.794c0-19.827 12.024-36.842 29.176-44.16z" id="c"/></defs><g fill="none" fill-rule="evenodd"><g fill-rule="nonzero"><path d="M203.937 373.886a17.638 17.638 0 0 1-16.628-11.757l-43.51-123.076h119.667L220.59 362.056a17.636 17.636 0 0 1-16.653 11.83z" fill="#FFCD85"/><path fill="#FFD69F" d="M149.368 254.806h11.136l27.427 108.836z"/><path d="M223.494 254.806h34.48l-38.028 108.836c-1.51 4.08-3.945 10.244-16.009 10.244-12.065 0-16.005-10.244-16.005-10.244s1.07 3.078 6.848 3.3c7.19.276 8.853-6.222 8.853-6.222l19.861-105.914z" fill="#F4BD76"/><path fill="#E5A85E" d="M257.974 254.806H149.368l-4.503-12.74h117.55z"/><path fill="#FFCD85" d="M288.077 242.067h-168.89V217.61h168.89z"/><path d="M288.077 217.608v11.02s-7.62 1.203-16.404-2.13c0 0-1.672 12.693-14.56 15.569H158.91l26.776-26.775h89.871l12.52 2.316z" fill="#F4BD76"/><path fill="#FFD69F" d="M130.645 215.189v26.878h-11.456V215.19z"/></g><g fill="#997AFC" fill-rule="nonzero"><path d="M309.718 134.23c0 40.945-22.82 76.56-56.436 94.821-15.279 8.3-32.79-25.665-51.4-25.665-16.402 0-31.948 35.019-45.866 28.47-36.622-17.235-61.972-54.47-61.972-97.626 0-59.556 48.28-107.836 107.838-107.836 59.556 0 107.836 48.28 107.836 107.836z"/><path d="M334.317 173.179c0-26.506-21.486-47.992-47.992-47.992-26.505 0-47.992 21.486-47.992 47.992 0 26.505 21.487 47.992 47.992 47.992 26.506 0 47.992-21.487 47.992-47.992M194.75 193.386c-6.874 0-12.5 5.626-12.5 12.5v61c0 6.875 5.626 12.5 12.5 12.5 6.875 0 12.5-5.625 12.5-12.5v-61c0-6.874-5.625-12.5-12.5-12.5"/><path d="M235.666 170.053c19.887 0 36.007 16.121 36.007 36.007s-16.12 36.006-36.007 36.006c-19.886 0-36.006-16.12-36.006-36.006m-8.335 5.667c0-16.756-13.584-30.34-30.34-30.34-16.758 0-30.34 13.584-30.34 30.34s13.582 30.34 30.34 30.34c16.756 0 30.34-13.584 30.34-30.34"/><path d="M160.984 173.179c0-26.506-21.487-47.992-47.992-47.992S65 146.673 65 173.179c0 26.505 21.487 47.992 47.992 47.992s47.992-21.487 47.992-47.992"/></g><g transform="translate(65.034 26)"><mask id="b" fill="#fff"><use xlink:href="#a"/></mask><path fill="#8673FF" fill-rule="nonzero" mask="url(#b)" d="M291.52 209.074L17.204 267.381l-5.081-23.91 274.314-58.307zm-.383-49.916L16.821 217.464l-5.082-23.909 274.316-58.308zm-30.009-43.478l-274.316 58.308-5.082-23.91 274.316-58.309zm8.287-51.854L-4.9 122.134l-5.082-23.91 274.316-58.308zm0-50.083L-4.9 72.051l-5.082-23.91 274.316-58.309z"/></g><g opacity=".5" transform="translate(65.367 26.474)"><mask id="d" fill="#fff"><use xlink:href="#c"/></mask><path d="M129.827 252.912s4.91-1.258 4.91-10.962v-77.704s2.66 15.125 7.59 21.006v52.994s.666 15.556-12.5 14.666zm-12.944-54.666v8.64c-25 21.633-43.494-.988-43.494-.988 22.952 11.43 43.494-7.652 43.494-7.652zM159.182 2.217l54.81-15.972 69.334 67.333 16.667 121.667-60.333 40.348-36.69-19.95 3.78-10.39s37.243-1 46.243-27.341c12.873-37.674-19.43-57.643-19.43-57.643 1.9-70.976-72.566-97.659-74.38-98.052z" fill="#7251ED" fill-rule="nonzero" mask="url(#d)"/><path d="M204.915 168.235c3.144 11.322 1.835 17.018 1.835 17.018s-1.867 33.438-1.835 34.104c.032.667-41.144 15.334-41.144 15.334l-21.444-23.556v-25.882s15.216 23.55 40.556 16.21c20.088-5.819 22.032-33.228 22.032-33.228z" fill="#7251ED" fill-rule="nonzero" mask="url(#d)"/></g><path d="M262.415 158.694a5.112 5.112 0 1 0-10.222.002 5.112 5.112 0 0 0 10.222-.002" fill="#FFF" fill-rule="nonzero"/><path d="M292.301 139.228c-9.967-4.674-23.8-2.265-28.579 7.595" stroke="#FFF" stroke-width="8" stroke-linecap="round" stroke-linejoin="round"/><path d="M81.809 154.964c0-2.594-2.096-4.697-4.681-4.697a4.69 4.69 0 0 0-4.682 4.697c0 2.595 2.096 4.698 4.682 4.698 2.585 0 4.68-2.103 4.68-4.698" fill="#FFF" fill-rule="nonzero"/><path d="M85.493 145.901c.273-.212 6.842-12.773 25.176-10.514m34.493-73.631s-16.888 12.479-25.15 37.19" stroke="#FFF" stroke-width="8" stroke-linecap="round" stroke-linejoin="round"/><path d="M160.472 53.831a5.112 5.112 0 1 1-10.222-.002 5.112 5.112 0 0 1 10.222.002z" fill="#FFF" fill-rule="nonzero"/><g fill-rule="nonzero"><path d="M163.284 133.129c0 5.769-4.676 10.444-10.444 10.444-5.77 0-10.445-4.675-10.445-10.444 0-5.768 4.676-10.444 10.445-10.444 5.768 0 10.444 4.676 10.444 10.444zm92.971 1c0 5.769-4.676 10.444-10.444 10.444-5.768 0-10.445-4.675-10.445-10.444 0-5.768 4.677-10.444 10.445-10.444 5.768 0 10.444 4.676 10.444 10.444zm-75.182 5.444h34.505c2.247 0 3.937 2.064 3.487 4.266-1.974 9.646-10.51 16.904-20.74 16.904-10.23 0-18.766-7.258-20.74-16.904-.45-2.202 1.24-4.266 3.488-4.266z" fill="#0C0F1E"/><path d="M208.149 153.582c0 2.622-4.211 4.747-9.406 4.747-5.194 0-9.405-2.125-9.405-4.747 0-2.621 4.21-4.746 9.405-4.746 5.195 0 9.406 2.125 9.406 4.746z" fill="#FF94EB"/></g></g></svg>