<svg width="400" height="400" viewBox="0 0 400 400" xmlns="http://www.w3.org/2000/svg" xmlns:xlink="http://www.w3.org/1999/xlink"><defs><path d="M245.608 148.575c-1.592 58.166-49.21 104.838-107.761 104.838-57.81 0-104.986-45.489-107.706-102.625C12.99 143.469.965 126.455.965 106.628c0-26.504 21.487-47.992 47.992-47.992a47.855 47.855 0 0 1 18.223 3.59C69.908 48.273 82.196 37.74 96.95 37.74c8.285 0 15.791 3.325 21.266 8.708V12.921c0-6.876 5.625-12.5 12.5-12.5s12.5 5.624 12.5 12.5v38.727c6.59-8.46 16.864-13.908 28.416-13.908 15.64 0 28.944 9.973 33.916 23.904a47.88 47.88 0 0 1 16.743-3.008c26.506 0 47.992 21.488 47.992 47.992 0 18.041-9.959 33.748-24.675 41.947" id="a"/><path d="M29.808 150.455C12.656 143.136.632 126.12.632 106.295c0-26.506 21.487-47.991 47.992-47.991a47.855 47.855 0 0 1 18.223 3.59c2.729-13.955 15.016-24.487 29.769-24.487 8.287 0 15.792 3.325 21.267 8.706V12.587c0-6.875 5.625-12.499 12.5-12.499 6.874 0 12.5 5.624 12.5 12.499v38.728c6.589-8.46 16.862-13.908 28.417-13.908 15.637 0 28.943 9.973 33.915 23.904a47.884 47.884 0 0 1 16.742-3.007c26.506 0 47.994 21.485 47.994 47.99 0 18.042-9.96 33.75-24.676 41.947-1.592 58.167-49.21 104.839-107.762 104.839-57.809 0-104.985-45.49-107.705-102.625" id="c"/></defs><g fill="none" fill-rule="evenodd"><g fill-rule="nonzero"><path d="M213.014 381.983a17.638 17.638 0 0 1-16.628-11.758l-43.51-123.076h119.668l-42.876 123.003a17.636 17.636 0 0 1-16.654 11.83" fill="#FFCD85"/><path fill="#FFD69F" d="M158.446 262.903h11.136l27.426 108.836z"/><path d="M232.572 262.903l-19.861 105.913s-1.663 6.499-8.854 6.223c-5.778-.223-6.848-3.3-6.848-3.3s3.94 10.244 16.006 10.244c12.064 0 14.498-6.164 16.009-10.244l38.028-108.836h-34.48z" fill="#F4BD76"/><path fill="#E5A85E" d="M267.052 262.903H158.445l-4.502-12.74h117.55z"/><path fill="#FFCD85" d="M297.154 250.164H128.265v-24.459h168.89z"/><path d="M297.155 225.705v11.02s-7.62 1.202-16.404-2.131c0 0-1.672 12.693-14.56 15.57h-98.203l26.776-26.775h89.87l12.52 2.316z" fill="#F4BD76"/><path fill="#FFD69F" d="M139.722 223.285h-11.456v26.879h11.456z"/></g><g fill="#997AFC" fill-rule="nonzero"><path d="M318.795 142.326c0 40.946-22.82 76.56-56.436 94.822-15.278 8.3-32.789-25.666-51.4-25.666-16.401 0-31.948 35.02-45.865 28.47-36.623-17.235-61.972-54.47-61.972-97.626 0-59.556 48.28-107.836 107.837-107.836 59.556 0 107.836 48.28 107.836 107.836"/><path d="M343.395 181.275c0 26.505-21.487 47.992-47.992 47.992s-47.992-21.487-47.992-47.992 21.487-47.992 47.992-47.992 47.992 21.487 47.992 47.992M203.828 287.483c-6.875 0-12.5-5.626-12.5-12.5v-61c0-6.875 5.625-12.5 12.5-12.5s12.5 5.625 12.5 12.5v61c0 6.874-5.625 12.5-12.5 12.5"/><path d="M244.744 178.15c19.887 0 36.007 16.12 36.007 36.006 0 19.887-16.12 36.007-36.007 36.007-19.887 0-36.007-16.12-36.007-36.007m-8.335 5.667c0 16.756-13.584 30.34-30.34 30.34-16.757 0-30.34-13.584-30.34-30.34s13.583-30.34 30.34-30.34c16.756 0 30.34 13.584 30.34 30.34"/><path d="M170.062 181.275c0 26.505-21.487 47.992-47.992 47.992-26.506 0-47.992-21.487-47.992-47.992s21.486-47.992 47.992-47.992c26.505 0 47.992 21.487 47.992 47.992"/></g><g transform="matrix(1 0 0 -1 73.112 287.904)"><mask id="b" fill="#fff"><use xlink:href="#a"/></mask><path fill="#8673FF" fill-rule="nonzero" mask="url(#b)" d="M292.52 44.733L18.204-13.574l-5.081 23.91 274.314 58.307zm-.383 49.917L17.821 36.342l-5.082 23.91 274.316 58.307zm-30.009 43.477L-12.188 79.82l-5.082 23.911 274.316 58.308zm8.287 51.853L-3.9 131.674l-5.082 23.91 274.316 58.308zm0 50.084L-3.9 181.756l-5.082 23.91 274.316 58.309z"/></g><g opacity=".5" transform="matrix(1 0 0 -1 73.445 287.57)"><mask id="d" fill="#fff"><use xlink:href="#c"/></mask><path d="M130.827.088s4.91 1.258 4.91 10.962v77.704s2.66-15.125 7.59-21.006V14.754s.666-15.556-12.5-14.666m-12.944 54.666S97.34 35.672 74.389 47.102c0 0 18.494-22.621 43.494-.988v8.64zm42.299 196.029c1.815-.393 76.282-27.076 74.38-98.052 0 0 32.304-19.97 19.43-57.643-9-26.341-46.242-27.341-46.242-27.341l-3.78-10.39 36.69-19.95 60.333 40.348-16.667 121.667-69.333 67.333-54.81-15.972z" fill="#7251ED" fill-rule="nonzero" mask="url(#d)"/><path d="M205.915 84.765s-1.944-27.409-22.032-33.228c-25.34-7.34-40.556 16.21-40.556 16.21V41.865l21.444-23.556s41.176 14.667 41.144 15.334c-.032.666 1.835 34.104 1.835 34.104s1.31 5.696-1.835 17.018" fill="#7251ED" fill-rule="nonzero" mask="url(#d)"/></g><path d="M271.493 166.79a5.112 5.112 0 1 1-10.222-.002 5.112 5.112 0 0 1 10.222.002" fill="#FFF" fill-rule="nonzero"/><path d="M301.379 147.325c-9.967-4.675-23.8-2.266-28.579 7.594" stroke="#FFF" stroke-width="8" stroke-linecap="round" stroke-linejoin="round"/><path d="M90.887 163.06a4.689 4.689 0 0 1-4.682 4.698c-2.585 0-4.681-2.102-4.681-4.697s2.096-4.697 4.681-4.697a4.689 4.689 0 0 1 4.682 4.697" fill="#FFF" fill-rule="nonzero"/><path d="M94.57 153.998c.274-.212 6.843-12.774 25.176-10.515m34.494-73.63s-16.889 12.478-25.15 37.189" stroke="#FFF" stroke-width="8" stroke-linecap="round" stroke-linejoin="round"/><path d="M169.55 61.927a5.112 5.112 0 1 1-10.222-.002 5.112 5.112 0 0 1 10.222.002" fill="#FFF" fill-rule="nonzero"/><g fill-rule="nonzero"><path d="M172.362 141.225c0 5.77-4.676 10.444-10.444 10.444-5.77 0-10.446-4.675-10.446-10.444 0-5.768 4.676-10.444 10.446-10.444 5.768 0 10.444 4.676 10.444 10.444m92.971 1c0 5.77-4.676 10.444-10.444 10.444-5.768 0-10.445-4.675-10.445-10.444 0-5.768 4.677-10.444 10.445-10.444 5.768 0 10.444 4.676 10.444 10.444m-75.183 5.445c-2.246 0-3.937 2.064-3.486 4.265 1.973 9.647 10.509 16.904 20.738 16.904 10.23 0 18.767-7.257 20.74-16.904.45-2.201-1.24-4.265-3.486-4.265H190.15z" fill="#0C0F1E"/><path d="M217.226 161.679c0 2.621-4.21 4.746-9.405 4.746-5.195 0-9.405-2.125-9.405-4.746 0-2.622 4.21-4.747 9.405-4.747 5.195 0 9.405 2.125 9.405 4.747" fill="#FF94EB"/></g><path d="M41.413 141.483h15.11m-7.555-7.556v15.111m282.445 87.445h15.11m-7.555-7.556v15.111m-4.555-193.555h15.11m-7.555-7.556v15.111" stroke="#FFF" stroke-linecap="round" stroke-linejoin="round" stroke-width="4"/><path d="M68.413 93.705a2.223 2.223 0 1 1-4.446 0 2.223 2.223 0 0 1 4.446 0m-4 77.333a2.223 2.223 0 1 1-4.446 0 2.223 2.223 0 0 1 4.446 0m42.667 69.333a2.223 2.223 0 1 1-4.447 0 2.223 2.223 0 0 1 4.446 0m10.667 24a2.223 2.223 0 1 1-4.446 0 2.223 2.223 0 0 1 4.446 0m242.667-53.333a2.223 2.223 0 1 1-4.446 0 2.223 2.223 0 0 1 4.446 0M307.08 37.705a2.223 2.223 0 1 1-4.447 0 2.223 2.223 0 0 1 4.446 0M160.413 24.371a2.223 2.223 0 1 1-4.446 0 2.223 2.223 0 0 1 4.446 0m-18.667-4a2.223 2.223 0 1 1-4.446 0 2.223 2.223 0 0 1 4.446 0" fill="#FFF" fill-rule="nonzero"/></g></svg>