<svg id="Layer_1" data-name="Layer 1" xmlns="http://www.w3.org/2000/svg" viewBox="0 0 480 480"><defs><style>.cls-1{fill:#007bbe}.cls-2{fill:#003968}</style></defs><path class="cls-1" d="M182.88 458.31h36.7v18.76h-24.14c-5.58 0-12.56-18.76-12.56-18.76zm114.24 0h-36.7v18.76h24.15c5.57 0 12.55-18.76 12.55-18.76z"/><path class="cls-2" d="M423.77 257.82C425 144.66 331.83 57.39 238.8 57.09v-.24.24c-89.31.3-184.61 87.57-183.37 200.74-2.8 55.94-16.5 93.46-25.41 107.5-.29.46 2.4 3.36 2.4 3.36 5.9 5.39 35.83-14.09 39.07-24.72.55-1.57 2.95-2.71 3.5-1.07 16.62 38.32 45 78.64 88.12 115.86h154.56c43.12-37.21 71.46-77.53 88.08-115.86.56-1.64 2.9-.76 3.46.81 3.23 10.63 33.08 30.23 39 24.84 0 0 2.06-2.83 1.78-3.29-8.93-14.04-23.42-51.5-26.22-107.44z"/><path d="M240.63 110.66C113 34.38-30 288.22 196.08 423.47l44.55-30.1 44.55 30.1c226.07-135.25 83.07-389.09-44.55-312.81z" fill="#fff"/><path class="cls-2" d="M97.57 201.44c0 34.56 27.3 58.78 61.64 58.78 34.12 0 61.42-24.22 61.42-58.78 0-34.35-27.3-58.78-61.42-58.78-34.33.01-61.64 24.44-61.64 58.78zm28.18 0a36.66 36.66 0 015.25-19.22A20.22 20.22 0 10142.42 171a33.23 33.23 0 0116.79-4.52c18.05 0 33.24 14.3 33.24 35 0 20.91-15.19 35-33.24 35-18.26-.04-33.45-14.13-33.45-35.04z"/><circle class="cls-1" cx="195.92" cy="405.39" r="4.01"/><path class="cls-2" d="M267 257.38c-2.41-1.21-4.9 3.77-10.13 3.62-5.68-.17-14.59-19.16-16.93-19-1.89.14-13.51 19.24-20.6 19.33-4.79 0-5.37-4.2-7.46-3.62s-2.78 2.75-2 3.34c10.58 8.07 46.07 7 58.58-.17 1.54-.88.02-2.78-1.46-3.5z"/><path class="cls-2" d="M224.93 267.73l15.37 11 12.37-11.7c-7.48 1.88-22.28 1.97-27.74.7zm36.53-65.96c0 34.56 27.29 58.78 61.64 58.78 34.12 0 61.42-24.22 61.42-58.78 0-34.34-27.3-58.78-61.42-58.78-34.35.01-61.64 24.44-61.64 58.78zm28.18 0a36.61 36.61 0 015.22-19.22 20.21 20.21 0 1011.45-11.27 33.23 33.23 0 0116.79-4.52c18.05 0 33.24 14.31 33.24 35 0 20.91-15.18 35-33.24 35-18.27.02-33.47-14.08-33.47-34.99z"/><circle class="cls-1" cx="285.68" cy="405.39" r="4.01"/><path class="cls-1" d="M205.6 358.77l34.21-17.09-34.26-17.31.05 34.4zm34.84-17.09l34.21 17.09.06-34.4-34.27 17.31zM274.61 3.35c-8.87.26-18.3 7.94-34.53 8s-25.66-7.75-34.53-8c-17.21-.5-14 13.43-12.69 26.73.89 9.3 2.63 15.32 14.6 17.21 10.07 1.59 23-7.52 23-3.17v28.05s.48-.44 9.62-.44h.1c9.14 0 8.89.44 8.89.44V44.11c0-4.35 13.25 4.77 23.32 3.17 12-1.89 13.85-7.91 14.75-17.21 1.22-13.3 4.68-27.22-12.53-26.72zM212.07 35.2a9.86 9.86 0 119.86-9.85 9.86 9.86 0 01-9.86 9.85zm56 0a9.86 9.86 0 119.93-9.86 9.85 9.85 0 01-9.91 9.86z"/></svg>