<svg width="192" height="192" viewBox="0 0 192 192" xmlns="http://www.w3.org/2000/svg" xmlns:xlink="http://www.w3.org/1999/xlink"><defs><path id="a" d="M0 0h192v192H0z"/></defs><g fill="none" fill-rule="evenodd"><mask id="b" fill="#fff"><use xlink:href="#a"/></mask><path d="M69.793 96.086c-12.888.265-22.554-8.224-23.45-20.77-.478-6.671 1.768-13.046 6.32-17.927 4.557-4.889 10.765-7.623 17.48-7.679 3.4-.03 6.994.658 10.07 1.985 0 0-.838 7.005-1.115 10.16l10.592.06 1.903-15.774-2.982-1.882a34.978 34.978 0 00-18.563-5.147c-9.564.084-18.772 4.11-25.262 11.069-6.584 7.063-9.828 16.243-9.14 25.866.61 8.542 4.296 16.332 10.372 21.945 6.155 5.686 14.44 8.75 23.397 8.673.218-.002.44-.007.66-.015 5.431-.141 11.548-1.167 18.28-3.825L96 88.037s-.155-.341-1.24.41c-6.576 4.56-14.27 7.418-24.967 7.639z" fill="#FF414B" mask="url(#b)"/><path d="M128.264 140.83c-.533 5.623-3.451 10.264-7.826 12.574-3.474 1.834-7.27 1.824-10.692-.033-3.56-1.937-5.248-4.838-5.882-8.503-1.001-5.814 2.305-11.877 6.808-14.933l70.377-45.784c.536 3.874.82 7.829.82 11.849 0 47.384-38.52 85.932-85.87 85.932-47.347 0-85.868-38.548-85.868-85.932S48.651 10.066 96 10.066c35.406 0 65.857 21.567 78.973 52.254l8.59-5.58C168.525 23.33 134.947 0 96 0 43.064 0 0 43.064 0 96c0 52.933 43.064 96 96 96 52.933 0 96-43.067 96-96a96.1 96.1 0 00-1.678-17.884c-.662-3.794-2.11-8.823-2.35-9.638L167.98 80.984l-26.47 16.76c-.934-3.523-3.065-7.09-7.585-9.143-5.354-2.43-14.023-.558-20.385 3.06 0 0 17.424-33.714 20.314-39.256a.536.536 0 00-.485-.782l-1.07.01-31.514-.025-1.308 10.895 4.928-.017h12.727L92.186 110.25c-.485.932.521 1.933 1.457 1.45l13.313-7.077c6.428-3.298 17.127-10.065 22.418-6.15.77.567 1.755 2.072 1.819 3.65a1.769 1.769 0 01-.793 1.536l-26.559 17.945c-8.626 6.166-12 15.341-11.2 23.995.67 7.276 5.198 13.545 11.92 17.198 3.525 1.917 7.338 2.82 11.147 2.714 3.341-.093 6.677-.966 9.806-2.619 7.573-4.002 12.612-11.778 13.487-20.815l2.139-24.3-11.603 8.62-1.273 14.432z" fill="#FF414B" mask="url(#b)"/></g></svg>