<svg width="784" height="400" viewBox="0 0 784 400" fill="none" xmlns="http://www.w3.org/2000/svg"><g clip-path="url(#clip0_2_2)"><path fill="#fff" d="M0 0h784v400H0z"/><path d="M387.818 230.227v-45h7.637v45h-7.637zm-18.682-18.682v-7.636h45v7.636h-45z" fill="#4F4397"/><path d="M187.399 367.911a14.772 14.772 0 01-13.926-9.847l-36.439-103.076h100.221l-35.908 103.014a14.772 14.772 0 01-13.948 9.909z" fill="#FFCD85"/><path d="M141.698 268.181h9.327l22.97 91.15-32.297-91.15z" fill="#FFD69F"/><path d="M203.779 268.181l-16.634 88.702s-1.392 5.443-7.414 5.212c-4.84-.187-5.736-2.764-5.736-2.764s3.3 8.579 13.405 8.579c10.103 0 12.142-5.162 13.408-8.579l31.848-91.15h-28.877z" fill="#F4BD76"/><path d="M232.656 268.181h-90.958l-3.771-10.67h98.449l-3.72 10.67z" fill="#E5A85E"/><path d="M257.867 257.512H116.422v-20.484h141.445v20.484z" fill="#FFCD85"/><path d="M257.867 237.028v9.229s-6.382 1.007-13.738-1.785c0 0-1.401 10.631-12.194 13.04H149.69l22.425-22.424h75.267l10.485 1.94z" fill="#F4BD76"/><path d="M126.018 235.001h-9.595v22.511h9.595v-22.511z" fill="#FFD69F"/><path d="M275.991 167.198c0 34.292-19.112 64.119-47.265 79.413-12.796 6.952-27.461-21.494-43.048-21.494-13.736 0-26.756 29.328-38.412 23.843-30.671-14.434-51.901-45.618-51.901-81.762 0-49.878 40.434-90.312 90.313-90.312 49.879 0 90.313 40.434 90.313 90.312z" fill="#997AFC"/><path d="M296.593 199.818c0 22.198-17.995 40.193-40.193 40.193-22.198 0-40.193-17.995-40.193-40.193 0-22.198 17.995-40.193 40.193-40.193 22.198 0 40.193 17.995 40.193 40.193zm-116.887 88.949c-5.758 0-10.469-4.711-10.469-10.469v-51.087c0-5.758 4.711-10.469 10.469-10.469 5.757 0 10.469 4.711 10.469 10.469v51.087c0 5.758-4.712 10.469-10.469 10.469z" fill="#997AFC"/><path d="M213.973 197.2c16.655 0 30.156 13.502 30.156 30.156 0 16.655-13.501 30.155-30.156 30.155s-30.156-13.5-30.156-30.155m-6.98 4.746c0 14.033-11.377 25.41-25.41 25.41-14.034 0-25.41-11.377-25.41-25.41s11.376-25.41 25.41-25.41c14.033 0 25.41 11.377 25.41 25.41z" fill="#997AFC"/><path d="M151.427 199.818c0 22.198-17.995 40.193-40.194 40.193-22.198 0-40.193-17.995-40.193-40.193 0-22.198 17.995-40.193 40.193-40.193 22.199 0 40.194 17.995 40.194 40.193z" fill="#997AFC"/><mask id="a" style="mask-type:alpha" maskUnits="userSpaceOnUse" x="71" y="76" width="226" height="213"><path d="M275.928 164.688c-1.334-48.715-41.214-87.802-90.25-87.802-48.416 0-87.925 38.097-90.203 85.948-14.365 6.13-24.435 20.38-24.435 36.984 0 22.197 17.995 40.194 40.193 40.194a40.075 40.075 0 0015.261-3.008c2.285 11.687 12.576 20.508 24.932 20.508 6.939 0 13.226-2.785 17.811-7.293v28.079c0 5.758 4.711 10.468 10.469 10.468 5.757 0 10.469-4.71 10.469-10.468v-32.434c5.518 7.085 14.123 11.648 23.798 11.648 13.098 0 24.24-8.353 28.405-20.02a40.093 40.093 0 0014.022 2.52c22.199 0 40.193-17.997 40.193-40.194 0-15.109-8.341-28.264-20.665-35.13z" fill="#fff"/></mask><g mask="url(#a)" fill="#8673FF"><path d="M315.217 251.656l-229.74 48.831-4.255-20.024L310.96 231.63l4.257 20.026zm-.321-41.806l-229.74 48.832-4.256-20.024 229.739-48.833 4.257 20.025zm-25.132-36.412l-229.74 48.833-4.257-20.026 229.74-48.833 4.257 20.026zm6.94-43.428l-229.74 48.833-4.256-20.025 229.739-48.833 4.257 20.025zm0-41.944l-229.74 48.833-4.256-20.026L292.447 68.04l4.257 20.026z"/></g><g opacity=".5"><mask id="b" style="mask-type:alpha" maskUnits="userSpaceOnUse" x="71" y="76" width="226" height="213"><path d="M95.475 162.834c-14.365 6.13-24.435 20.38-24.435 36.984 0 22.199 17.995 40.193 40.193 40.193a40.075 40.075 0 0015.261-3.007c2.286 11.688 12.576 20.508 24.932 20.508 6.94 0 13.226-2.785 17.811-7.292v28.079c0 5.757 4.711 10.467 10.469 10.467 5.757 0 10.469-4.71 10.469-10.467v-32.435c5.518 7.085 14.122 11.648 23.799 11.648 13.096 0 24.24-8.353 28.404-20.02a40.097 40.097 0 0014.022 2.519c22.198 0 40.194-17.994 40.194-40.193 0-15.109-8.342-28.265-20.666-35.13-1.334-48.715-41.213-87.802-90.25-87.802-48.416 0-87.925 38.097-90.203 85.948z" fill="#fff"/></mask><g mask="url(#b)" fill="#7251ED"><path d="M180.078 288.767s4.111-1.054 4.111-9.181v-65.078s2.228 12.668 6.357 17.594v44.381s.559 13.029-10.468 12.284zm-10.841-45.784s-17.203 15.982-36.426 6.409c0 0 15.489 18.945 36.426.827v-7.236zM204.663 78.81c1.52.329 63.886 22.676 62.293 82.118 0 0 27.055 16.724 16.273 48.276-7.537 22.061-38.728 22.898-38.728 22.898l-3.166 8.702 30.728 16.708 50.529-33.792-13.958-101.895-58.067-56.392-45.904 13.376z"/><path d="M242.964 217.849s-1.628 22.955-18.451 27.829c-21.223 6.147-33.966-13.576-33.966-13.576v21.676l17.959 19.728s34.485-12.283 34.458-12.842c-.026-.558 1.537-28.562 1.537-28.562s1.096-4.77-1.537-14.253z"/></g></g><path d="M236.375 187.687a4.28 4.28 0 11-8.561 0 4.281 4.281 0 018.561 0z" fill="#fff"/><path d="M261.405 171.384c-8.347-3.915-19.933-1.897-23.935 6.361" stroke="#fff" stroke-width="8" stroke-linecap="round" stroke-linejoin="round"/><path d="M85.118 184.563a3.927 3.927 0 01-3.921 3.934 3.927 3.927 0 01-3.92-3.934 3.927 3.927 0 013.92-3.934 3.927 3.927 0 013.92 3.934z" fill="#fff"/><path d="M88.203 176.973c.228-.177 5.73-10.698 21.084-8.806m28.888-61.665s-14.143 10.45-21.062 31.146" stroke="#fff" stroke-width="8" stroke-linecap="round" stroke-linejoin="round"/><path d="M150.998 99.864a4.28 4.28 0 11-8.561 0 4.28 4.28 0 018.561 0z" fill="#fff"/><path d="M153.353 166.276a8.746 8.746 0 01-8.747 8.747 8.747 8.747 0 110-17.494 8.747 8.747 0 018.747 8.747zm77.863.837a8.746 8.746 0 01-8.746 8.747 8.747 8.747 0 118.746-8.747zm-62.965 4.56a2.98 2.98 0 00-2.92 3.573c1.652 8.079 8.801 14.157 17.368 14.157 8.569 0 15.717-6.078 17.37-14.157a2.98 2.98 0 00-2.92-3.573h-28.898z" fill="#0C0F1E"/><path d="M190.927 183.406c0 2.195-3.526 3.975-7.877 3.975-4.35 0-7.877-1.78-7.877-3.975 0-2.195 3.527-3.975 7.877-3.975 4.351 0 7.877 1.78 7.877 3.975z" fill="#FF94EB"/><path d="M43.683 166.492h12.655m-6.328-6.328v12.655m236.548 73.235h12.655m-6.327-6.327v12.655M289.071 90.28h12.655m-6.328-6.328v12.655" stroke="#8673FF" stroke-width="4" stroke-linecap="round" stroke-linejoin="round"/><path d="M66.296 126.478a1.861 1.861 0 11-3.723 0 1.861 1.861 0 013.723 0zm-3.35 64.766a1.862 1.862 0 11-3.724 0 1.862 1.862 0 013.724 0zm35.733 58.067a1.862 1.862 0 11-3.72 0 1.862 1.862 0 013.72 0zm8.933 20.1a1.862 1.862 0 11-3.724 0 1.862 1.862 0 013.724 0zm203.234-44.667a1.861 1.861 0 11-3.721.001 1.861 1.861 0 013.721-.001zM266.179 79.578a1.862 1.862 0 11-3.724-.001 1.862 1.862 0 013.724 0zM143.346 68.411a1.862 1.862 0 11-3.724 0 1.862 1.862 0 013.724 0zm-15.634-3.35a1.862 1.862 0 11-3.723 0 1.862 1.862 0 013.723 0z" fill="#997AFC"/><path d="M633.728 14.838l-22.78-4.917-43.256 200.204 22.78 4.917 43.256-200.203z" fill="#7358F7"/><path d="M633.726 14.852l-.138-.046-28.498 22.236-7.676 35.56 28.635-22.374 7.677-35.376zM619.89 78.85l-28.682 22.374-7.676 35.56 28.682-22.374 7.676-35.56zm-50.239 122.115l28.682-22.42 7.676-35.513-28.682 22.374-7.676 35.559z" fill="#9F73FF"/><path d="M639.196 389.33h-93.86c-21.098 0-38.518-16.447-39.713-37.535l-9.745-169.85h192.729l-9.744 169.85c-1.149 21.042-18.616 37.535-39.667 37.535zM619.109 95.297h-55.663c-34.473 11.44-64.167 39.787-64.167 72.912 0 2.664.138 5.237.46 7.855h184.962c.321-2.572.459-5.191.459-7.855.046-33.125-31.578-61.426-66.051-72.912z" fill="#F5E7C6"/><path d="M523.641 161.179c-.69 0-1.379-.092-2.069-.322-3.861-1.194-6.113-5.375-4.964-9.418 3.907-13.921 20.179-33.584 35.301-38.086 3.861-1.148 7.906 1.194 9.009 5.191 1.103 4.043-1.149 8.224-5.01 9.372-9.653 2.849-22.661 18.286-25.327 27.75-.827 3.354-3.769 5.513-6.94 5.513z" fill="#fff"/><path d="M592.496 95.297l-28.178 133.038 22.075 8.912 29.912-141.95h-23.809z" fill="#DBCBD0"/><path d="M675.186 227.979c-83.518 44.749-101.26-24.579-164.967-6.523l3.539 61.058 156.693.367 4.735-54.902z" fill="#F8B840"/><path d="M673.899 237.398l-8.32 108.47c-1.241 16.218-14.755 28.715-31.026 28.715h-85.77c-16.409 0-30.015-12.772-31.026-29.128l-6.665-108.057h162.807z" fill="#F8B840"/><path d="M675.186 227.979c-10.848-9.188-25.373-13.001-41.736-11.944-21.328 1.378-41.598 9.142-50.469 17.412 23.35 12.404 63.477 23.936 92.205-5.468z" fill="#F0A935"/><path d="M637.357 258.026c6.397 0 11.583-5.184 11.583-11.577 0-6.394-5.186-11.578-11.583-11.578s-11.583 5.184-11.583 11.578c0 6.393 5.186 11.577 11.583 11.577zm-43.621 21.685c-8.871 0-17.328-3.4-23.809-9.51-2.069-1.976-2.161-5.238-.184-7.305 1.976-2.067 5.24-2.159 7.309-.184 4.55 4.319 10.479 6.708 16.73 6.708 6.206 0 12.181-2.389 16.732-6.708 2.068-1.975 5.331-1.883 7.308.184 1.977 2.067 1.884 5.329-.184 7.305-6.573 6.11-15.031 9.51-23.902 9.51zm-43.62-21.685c6.397 0 11.583-5.184 11.583-11.577 0-6.394-5.186-11.578-11.583-11.578s-11.583 5.184-11.583 11.578c0 6.393 5.186 11.577 11.583 11.577z" fill="#382519"/><path d="M685.711 203.952H498.82a5.864 5.864 0 01-5.884-5.881 5.864 5.864 0 015.884-5.881h186.938a5.864 5.864 0 015.883 5.881c-.046 3.216-2.666 5.881-5.93 5.881z" fill="#DAC8A2"/><path d="M687.32 193.614H497.211c-5.102 0-9.239-4.134-9.239-9.234 0-5.099 4.137-9.234 9.239-9.234H687.32c5.103 0 9.239 4.135 9.239 9.234 0 5.1-4.136 9.234-9.239 9.234z" fill="#F5E7C6"/><g filter="url(#filter0_i_2_2)"><path d="M593.507 364.811c3.539 0 6.757-1.241 9.331-3.262 3.448-2.756 5.7-6.983 5.7-11.761 0-8.27-6.711-15.024-15.031-15.024-6.389 0-11.858 3.997-14.019 9.648a14.896 14.896 0 00-1.011 5.376c0 8.315 6.711 15.023 15.03 15.023z" fill="#2B1D0B"/></g><g filter="url(#filter1_i_2_2)"><path d="M549.931 364.811c3.54 0 6.758-1.241 9.331-3.262 3.448-2.756 5.7-6.983 5.7-11.761 0-8.27-6.71-15.024-15.031-15.024-6.389 0-11.858 3.997-14.018 9.648a14.896 14.896 0 00-1.012 5.376c0 8.315 6.711 15.023 15.03 15.023z" fill="#2B1D0B"/></g><g filter="url(#filter2_i_2_2)"><path d="M615.295 332.04c3.539 0 6.757-1.241 9.331-3.262 3.447-2.757 5.7-6.984 5.7-11.762 0-8.269-6.711-15.023-15.031-15.023-6.389 0-11.858 3.997-14.019 9.648a14.89 14.89 0 00-1.011 5.375c0 8.316 6.71 15.024 15.03 15.024z" fill="#2B1D0B"/></g><g filter="url(#filter3_i_2_2)"><path d="M571.719 332.04c3.54 0 6.757-1.241 9.331-3.262 3.448-2.757 5.7-6.984 5.7-11.762 0-8.269-6.711-15.023-15.031-15.023-6.389 0-11.858 3.997-14.018 9.648a14.89 14.89 0 00-1.012 5.375 15.004 15.004 0 0015.03 15.024z" fill="#2B1D0B"/></g><g filter="url(#filter4_i_2_2)"><path d="M637.083 364.236c3.539 0 6.757-1.24 9.331-3.262 3.447-2.756 5.699-6.983 5.699-11.761 0-8.27-6.71-15.023-15.03-15.023-6.389 0-11.859 3.996-14.019 9.648a14.886 14.886 0 00-1.011 5.375c0 8.315 6.71 15.023 15.03 15.023z" fill="#2B1D0B"/></g></g><defs><filter id="filter0_i_2_2" x="575.477" y="334.764" width="33.061" height="33.047" filterUnits="userSpaceOnUse" color-interpolation-filters="sRGB"><feFlood flood-opacity="0" result="BackgroundImageFix"/><feBlend in="SourceGraphic" in2="BackgroundImageFix" result="shape"/><feColorMatrix in="SourceAlpha" values="0 0 0 0 0 0 0 0 0 0 0 0 0 0 0 0 0 0 127 0" result="hardAlpha"/><feOffset dx="-5" dy="5"/><feGaussianBlur stdDeviation="1.5"/><feComposite in2="hardAlpha" operator="arithmetic" k2="-1" k3="1"/><feColorMatrix values="0 0 0 0 0.396078 0 0 0 0 0.25098 0 0 0 0 0.0901961 0 0 0 1 0"/><feBlend in2="shape" result="effect1_innerShadow_2_2"/></filter><filter id="filter1_i_2_2" x="531.901" y="334.764" width="33.061" height="33.047" filterUnits="userSpaceOnUse" color-interpolation-filters="sRGB"><feFlood flood-opacity="0" result="BackgroundImageFix"/><feBlend in="SourceGraphic" in2="BackgroundImageFix" result="shape"/><feColorMatrix in="SourceAlpha" values="0 0 0 0 0 0 0 0 0 0 0 0 0 0 0 0 0 0 127 0" result="hardAlpha"/><feOffset dx="-5" dy="5"/><feGaussianBlur stdDeviation="1.5"/><feComposite in2="hardAlpha" operator="arithmetic" k2="-1" k3="1"/><feColorMatrix values="0 0 0 0 0.396078 0 0 0 0 0.25098 0 0 0 0 0.0901961 0 0 0 1 0"/><feBlend in2="shape" result="effect1_innerShadow_2_2"/></filter><filter id="filter2_i_2_2" x="597.265" y="301.993" width="33.061" height="33.047" filterUnits="userSpaceOnUse" color-interpolation-filters="sRGB"><feFlood flood-opacity="0" result="BackgroundImageFix"/><feBlend in="SourceGraphic" in2="BackgroundImageFix" result="shape"/><feColorMatrix in="SourceAlpha" values="0 0 0 0 0 0 0 0 0 0 0 0 0 0 0 0 0 0 127 0" result="hardAlpha"/><feOffset dx="-5" dy="5"/><feGaussianBlur stdDeviation="1.5"/><feComposite in2="hardAlpha" operator="arithmetic" k2="-1" k3="1"/><feColorMatrix values="0 0 0 0 0.396078 0 0 0 0 0.25098 0 0 0 0 0.0901961 0 0 0 1 0"/><feBlend in2="shape" result="effect1_innerShadow_2_2"/></filter><filter id="filter3_i_2_2" x="553.689" y="301.993" width="33.061" height="33.047" filterUnits="userSpaceOnUse" color-interpolation-filters="sRGB"><feFlood flood-opacity="0" result="BackgroundImageFix"/><feBlend in="SourceGraphic" in2="BackgroundImageFix" result="shape"/><feColorMatrix in="SourceAlpha" values="0 0 0 0 0 0 0 0 0 0 0 0 0 0 0 0 0 0 127 0" result="hardAlpha"/><feOffset dx="-5" dy="5"/><feGaussianBlur stdDeviation="1.5"/><feComposite in2="hardAlpha" operator="arithmetic" k2="-1" k3="1"/><feColorMatrix values="0 0 0 0 0.396078 0 0 0 0 0.25098 0 0 0 0 0.0901961 0 0 0 1 0"/><feBlend in2="shape" result="effect1_innerShadow_2_2"/></filter><filter id="filter4_i_2_2" x="619.053" y="334.19" width="33.061" height="33.047" filterUnits="userSpaceOnUse" color-interpolation-filters="sRGB"><feFlood flood-opacity="0" result="BackgroundImageFix"/><feBlend in="SourceGraphic" in2="BackgroundImageFix" result="shape"/><feColorMatrix in="SourceAlpha" values="0 0 0 0 0 0 0 0 0 0 0 0 0 0 0 0 0 0 127 0" result="hardAlpha"/><feOffset dx="-5" dy="5"/><feGaussianBlur stdDeviation="1.5"/><feComposite in2="hardAlpha" operator="arithmetic" k2="-1" k3="1"/><feColorMatrix values="0 0 0 0 0.396078 0 0 0 0 0.25098 0 0 0 0 0.0901961 0 0 0 1 0"/><feBlend in2="shape" result="effect1_innerShadow_2_2"/></filter><clipPath id="clip0_2_2"><path fill="#fff" d="M0 0h784v400H0z"/></clipPath></defs></svg>