<svg width="443" height="774" viewBox="0 0 443 774" fill="none" xmlns="http://www.w3.org/2000/svg"><path d="M285.557 50.16l-39.73-8.553-75.443 348.22 39.73 8.552 75.443-348.22z" fill="#7358F7"/><path d="M285.553 50.183l-.24-.08-49.704 38.676-13.387 61.85 49.943-38.916 13.388-61.53zm-24.13 111.313l-50.024 38.916-13.388 61.85 50.024-38.916 13.388-61.85zm-87.622 212.399l50.024-38.996 13.388-61.77-50.024 38.916-13.388 61.85z" fill="#9F73FF"/><path d="M295.093 701.522h-163.7c-36.796 0-67.18-28.607-69.264-65.285L45.134 340.812h336.138l-16.995 295.425c-2.005 36.598-32.468 65.285-69.184 65.285zM260.06 190.104h-97.082C102.854 210.001 51.066 259.305 51.066 316.92c0 4.634.24 9.109.802 13.664h322.59c.561-4.475.801-9.03.801-13.664.081-57.615-55.074-106.839-115.199-126.816z" fill="#F5E7C6"/><path d="M93.554 304.694c-1.202 0-2.405-.16-3.607-.56-6.734-2.077-10.662-9.349-8.658-16.381 6.814-24.213 35.193-58.414 61.568-66.245 6.734-1.997 13.788 2.078 15.712 9.03 1.924 7.032-2.004 14.304-8.738 16.301-16.835 4.955-39.522 31.804-44.172 48.266-1.443 5.833-6.573 9.589-12.105 9.589z" fill="#fff"/><path d="M213.644 190.104L164.5 421.5 203 437l52.17-246.896h-41.526z" fill="#DBCBD0"/><path d="M357.863 420.881c-145.662 77.832-176.607-42.751-287.717-11.347l6.172 106.2 273.288.639 8.257-95.492z" fill="#F8B840"/><path d="M355.619 437.263l-14.511 188.665c-2.164 28.208-25.733 49.944-54.112 49.944H137.405c-28.619 0-52.348-22.215-54.112-50.663L71.669 437.263h283.95z" fill="#F8B840"/><path d="M357.863 420.881c-18.919-15.981-44.252-22.614-72.791-20.776-37.197 2.397-72.551 15.902-88.023 30.286 40.725 21.575 110.71 41.632 160.814-9.51z" fill="#F0A935"/><path d="M291.886 473.142c11.157 0 20.202-9.016 20.202-20.137s-9.045-20.137-20.202-20.137c-11.157 0-20.202 9.016-20.202 20.137s9.045 20.137 20.202 20.137zm-76.078 37.717c-15.472 0-30.223-5.913-41.526-16.541-3.608-3.436-3.768-9.11-.321-12.706 3.447-3.595 9.139-3.755 12.747-.319 7.936 7.511 18.278 11.666 29.18 11.666 10.823 0 21.244-4.155 29.181-11.666 3.607-3.436 9.299-3.276 12.746.319 3.448 3.596 3.287 9.27-.32 12.706-11.464 10.628-26.215 16.541-41.687 16.541zm-76.078-37.717c11.157 0 20.202-9.016 20.202-20.137s-9.045-20.137-20.202-20.137c-11.157 0-20.202 9.016-20.202 20.137s9.045 20.137 20.202 20.137z" fill="#382519"/><path d="M376.221 379.089H50.264c-5.691 0-10.26-4.555-10.26-10.229 0-5.673 4.569-10.228 10.26-10.228h326.038c5.691 0 10.261 4.555 10.261 10.228-.08 5.594-4.65 10.229-10.342 10.229z" fill="#DAC8A2"/><path d="M379.027 361.109H47.459c-8.899 0-16.114-7.191-16.114-16.061 0-8.87 7.215-16.062 16.114-16.062h331.568c8.899 0 16.114 7.192 16.114 16.062 0 8.87-7.215 16.061-16.114 16.061z" fill="#F5E7C6"/><g filter="url(#filter0_i_1_2)"><path d="M215.408 658.876c6.173 0 11.785-2.158 16.274-5.674 6.013-4.794 9.941-12.146 9.941-20.457 0-14.383-11.704-26.13-26.215-26.13-11.143 0-20.682 6.952-24.45 16.781a25.839 25.839 0 00-1.764 9.349c0 14.464 11.704 26.131 26.214 26.131z" fill="#2B1D0B"/></g><g filter="url(#filter1_i_1_2)"><path d="M139.408 658.876c6.173 0 11.785-2.158 16.274-5.674 6.013-4.794 9.941-12.146 9.941-20.457 0-14.383-11.704-26.13-26.215-26.13-11.143 0-20.682 6.952-24.45 16.781a25.839 25.839 0 00-1.764 9.349c0 14.464 11.704 26.131 26.214 26.131z" fill="#2B1D0B"/></g><g filter="url(#filter2_i_1_2)"><path d="M253.408 601.876c6.173 0 11.785-2.158 16.274-5.674 6.013-4.794 9.941-12.146 9.941-20.457 0-14.383-11.704-26.13-26.215-26.13-11.143 0-20.682 6.952-24.45 16.781a25.839 25.839 0 00-1.764 9.349c0 14.464 11.704 26.131 26.214 26.131z" fill="#2B1D0B"/></g><g filter="url(#filter3_i_1_2)"><path d="M177.408 601.876c6.173 0 11.785-2.158 16.274-5.674 6.013-4.794 9.941-12.146 9.941-20.457 0-14.383-11.704-26.13-26.215-26.13-11.143 0-20.682 6.952-24.45 16.781a25.839 25.839 0 00-1.764 9.349c0 14.464 11.704 26.131 26.214 26.131z" fill="#2B1D0B"/></g><g filter="url(#filter4_i_1_2)"><path d="M291.408 657.876c6.173 0 11.785-2.158 16.274-5.674 6.013-4.794 9.941-12.146 9.941-20.457 0-14.383-11.704-26.13-26.215-26.13-11.143 0-20.682 6.952-24.45 16.781a25.839 25.839 0 00-1.764 9.349c0 14.464 11.704 26.131 26.214 26.131z" fill="#2B1D0B"/></g><defs><filter id="filter0_i_1_2" x="186.194" y="606.615" width="55.429" height="55.261" filterUnits="userSpaceOnUse" color-interpolation-filters="sRGB"><feFlood flood-opacity="0" result="BackgroundImageFix"/><feBlend in="SourceGraphic" in2="BackgroundImageFix" result="shape"/><feColorMatrix in="SourceAlpha" values="0 0 0 0 0 0 0 0 0 0 0 0 0 0 0 0 0 0 127 0" result="hardAlpha"/><feOffset dx="-5" dy="5"/><feGaussianBlur stdDeviation="1.5"/><feComposite in2="hardAlpha" operator="arithmetic" k2="-1" k3="1"/><feColorMatrix values="0 0 0 0 0.396078 0 0 0 0 0.25098 0 0 0 0 0.0901961 0 0 0 1 0"/><feBlend in2="shape" result="effect1_innerShadow_1_2"/></filter><filter id="filter1_i_1_2" x="110.194" y="606.615" width="55.429" height="55.261" filterUnits="userSpaceOnUse" color-interpolation-filters="sRGB"><feFlood flood-opacity="0" result="BackgroundImageFix"/><feBlend in="SourceGraphic" in2="BackgroundImageFix" result="shape"/><feColorMatrix in="SourceAlpha" values="0 0 0 0 0 0 0 0 0 0 0 0 0 0 0 0 0 0 127 0" result="hardAlpha"/><feOffset dx="-5" dy="5"/><feGaussianBlur stdDeviation="1.5"/><feComposite in2="hardAlpha" operator="arithmetic" k2="-1" k3="1"/><feColorMatrix values="0 0 0 0 0.396078 0 0 0 0 0.25098 0 0 0 0 0.0901961 0 0 0 1 0"/><feBlend in2="shape" result="effect1_innerShadow_1_2"/></filter><filter id="filter2_i_1_2" x="224.194" y="549.615" width="55.429" height="55.261" filterUnits="userSpaceOnUse" color-interpolation-filters="sRGB"><feFlood flood-opacity="0" result="BackgroundImageFix"/><feBlend in="SourceGraphic" in2="BackgroundImageFix" result="shape"/><feColorMatrix in="SourceAlpha" values="0 0 0 0 0 0 0 0 0 0 0 0 0 0 0 0 0 0 127 0" result="hardAlpha"/><feOffset dx="-5" dy="5"/><feGaussianBlur stdDeviation="1.5"/><feComposite in2="hardAlpha" operator="arithmetic" k2="-1" k3="1"/><feColorMatrix values="0 0 0 0 0.396078 0 0 0 0 0.25098 0 0 0 0 0.0901961 0 0 0 1 0"/><feBlend in2="shape" result="effect1_innerShadow_1_2"/></filter><filter id="filter3_i_1_2" x="148.194" y="549.615" width="55.429" height="55.261" filterUnits="userSpaceOnUse" color-interpolation-filters="sRGB"><feFlood flood-opacity="0" result="BackgroundImageFix"/><feBlend in="SourceGraphic" in2="BackgroundImageFix" result="shape"/><feColorMatrix in="SourceAlpha" values="0 0 0 0 0 0 0 0 0 0 0 0 0 0 0 0 0 0 127 0" result="hardAlpha"/><feOffset dx="-5" dy="5"/><feGaussianBlur stdDeviation="1.5"/><feComposite in2="hardAlpha" operator="arithmetic" k2="-1" k3="1"/><feColorMatrix values="0 0 0 0 0.396078 0 0 0 0 0.25098 0 0 0 0 0.0901961 0 0 0 1 0"/><feBlend in2="shape" result="effect1_innerShadow_1_2"/></filter><filter id="filter4_i_1_2" x="262.194" y="605.615" width="55.429" height="55.261" filterUnits="userSpaceOnUse" color-interpolation-filters="sRGB"><feFlood flood-opacity="0" result="BackgroundImageFix"/><feBlend in="SourceGraphic" in2="BackgroundImageFix" result="shape"/><feColorMatrix in="SourceAlpha" values="0 0 0 0 0 0 0 0 0 0 0 0 0 0 0 0 0 0 127 0" result="hardAlpha"/><feOffset dx="-5" dy="5"/><feGaussianBlur stdDeviation="1.5"/><feComposite in2="hardAlpha" operator="arithmetic" k2="-1" k3="1"/><feColorMatrix values="0 0 0 0 0.396078 0 0 0 0 0.25098 0 0 0 0 0.0901961 0 0 0 1 0"/><feBlend in2="shape" result="effect1_innerShadow_1_2"/></filter></defs></svg>