<svg version="1.1" id="Layer_1" xmlns="http://www.w3.org/2000/svg" x="0" y="0" viewBox="0 0 300 300" xml:space="preserve" enable-background="new 0 0 300 300"><style>.st1{fill:#fff}</style><g id="Page-1" transform="translate(8 6)"><g id="Group-3" transform="translate(0 .358)"><defs><filter id="Adobe_OpacityMaskFilter" filterUnits="userSpaceOnUse" x="12.6" y="29.7" width="258.7" height="227.9"><feColorMatrix values="1 0 0 0 0 0 1 0 0 0 0 0 1 0 0 0 0 0 1 0"/></filter></defs><mask maskUnits="userSpaceOnUse" x="12.6" y="29.7" width="258.7" height="227.9" id="mask-2"><g filter="url(#Adobe_OpacityMaskFilter)"><path id="path-1" class="st1" d="M271.4 29.7H12.6v227.9h258.8z"/></g></mask><path id="Fill-1" d="M265.8 133.5c-13.4-21.9-22.8-24.6-31.1-27.1-7.1-2.1-13.2-3.9-24.9-23.5-8.6-14.4-19.8-27.7-31.6-37.5-15.7-13-27.1-15.7-33.9-15.7-4.6 0-8.7 1.2-12.1 3.6l-5.4 3.8c-2-.5-3.5-.6-4.7-.6-2.9 0-5.4.8-7.4 2.4-2.6 2.1-3.9 5.4-3.6 9 .4 4.1 3.1 9 8.3 15.3 1.8 2.2 4 4.6 6.4 7-5.4-.9-10.9-1.4-16.5-1.4-30 0-56.7 14-74 35.8-.7-.1-1.4-.1-2.1-.1-7.3 0-13.7 3.5-17.6 9.7-3.2 5-4 11-2.2 16.7.9 3.1 2.5 5.9 4.6 8.1-2 7.7-3.1 15.8-3.1 24.2 0 52.1 42.3 94.4 94.4 94.4 35.6 0 66.6-19.7 82.7-48.8 1.6.2 3.3.3 4.8.3 4.6 0 8.4-.8 11.5-2.4 4.2-2.2 6.9-6 7.2-10.3.4-4.6-1.6-8.7-5.6-11.5-2.3-1.6-5-2.7-7.9-3.7.4-2.1.7-4.2 1-6.3 6.9 2.4 13.8 3 20.4 3 2.9 0 6.1-.1 10.3-.4 22.6-1.4 31.6-9.7 35.1-16.5 3-5.6 4.8-14.8-3-27.5" mask="url(#mask-2)" fill="#51af33"/></g><path id="Fill-4" class="st1" d="M237.4 137.9c-3.4 0-6.7-2.8-7.3-6.2-.6-3.4 1.7-6.2 5.1-6.2 3.4 0 6.7 2.8 7.3 6.2.6 3.4-1.7 6.2-5.1 6.2m22.7-.3c-23.1-38.8-31.4-10.8-56.2-50.8-20.1-32.3-50.5-55.3-65.4-48.6-.8.4-.8 1.5 0 1.8 14.7 6 46.5 32.2 59.9 58.7.3.7-.6 1.2-1 .7-16.9-21.3-69.1-61.8-78-54.7-7.4 5.9 31.9 43.1 63.8 59.5.7.4 1 1.3.6 2-1.5 2.7-5 6.3-14.8 6.3-16.9-.1-33.2-24.9-69.5-25.4-22.2-.3-43.4 9-58.5 26.3-.2.3-.6.3-.9.1-3.8-2.2-13.4-3.3-18.5 4.7-4.6 7.4-.4 15.6 4.2 18.4.6.3.8 1 .6 1.6-2.5 7.8-4 16.3-4.1 25.7-.5 38.4 31.4 75.2 76 75.6 18.2.2 30.4-5.4 40.4-11.5 11.7-7.1 20.2-16.3 18-23.1-3.2-9.8-17.3-6.7-31.7-1-.9.3-1.6-.8-.9-1.5 7.6-7.9 12.2-18.6 12.2-30.4 0-24.2-19.6-43.9-43.9-43.9-19.3 0-35.2 10-40.9 26.5-.1.6-.7.9-1.3.8-.6-.1-.9-.7-.8-1.3 4.4-20.7 22.3-36 44-37.2 27.3-1.5 50.5 20.5 50.4 47.9 0 8.9-2.5 17.2-6.8 24.4-.7 1.2.6 2.6 1.9 2 5.3-2.9 9.9-6.8 13.7-11.4.2-.3.7-.3 1 0 23.7 26 54.1 26.5 54.9 16.3.9-11.5-28.4-4-30.3-32.5 0-.6.6-.9 1.1-.5 2.7 2.3 6 1.1 6.7.7 1.6-.8 3.2-2.7 3.4-4.9.1-.5.7-.8 1.1-.4 12.7 12.3 25.5 12.9 43 11.9 25.3-1.3 37-15.3 26.6-32.8"/></g></svg>