<svg width="117" height="120" viewBox="0 0 117 120" fill="none" xmlns="http://www.w3.org/2000/svg"><path fill-rule="evenodd" clip-rule="evenodd" d="M42.699-.003c-14.203 0-26.76 9.215-31.01 22.757L0 59.996 11.689 97.24c4.25 13.542 16.807 22.757 31.01 22.757h31.486c14.201 0 26.759-9.215 31.009-22.757l11.689-37.243-11.689-37.242C100.944 9.212 88.386-.003 74.184-.003H42.7zm31.486 9.36a23.13 23.13 0 0122.071 16.199l2.866 9.13a32.512 32.512 0 00-20.696-7.438l-40.054-.001a32.513 32.513 0 00-20.58 7.343l2.836-9.034a23.13 23.13 0 0122.07-16.198h31.487zm-54.23 36.384l-7.279 9.575h91.445l-7.278-9.574a23.137 23.137 0 00-18.418-9.133H38.154a23.137 23.137 0 00-18.2 9.132zm84.151 18.936l-7.263 9.565a23.137 23.137 0 01-18.429 9.143l-40.032-.001a23.137 23.137 0 01-18.428-9.143l-7.262-9.564h91.414zm-83.479 29.76a23.13 23.13 0 0022.071 16.198h31.486a23.13 23.13 0 0022.072-16.198l2.868-9.137a32.513 32.513 0 01-20.71 7.446l-40.03-.001a32.513 32.513 0 01-20.595-7.35l2.838 9.042z" fill="#8D75E6"/></svg>