<svg width="800" height="800" viewBox="0 0 800 800" fill="none" xmlns="http://www.w3.org/2000/svg"><path fill="#8D75E6" d="M0 0h800v800H0z"/><path fill-rule="evenodd" clip-rule="evenodd" d="M346.124 194.667c-48.603 0-91.576 31.538-106.122 77.881L200 400l40.002 127.452c14.546 46.344 57.519 77.881 106.122 77.881h107.752c48.603 0 91.576-31.537 106.122-77.881L600 400l-40.002-127.452c-14.546-46.343-57.519-77.881-106.122-77.881H346.124zm107.754 32.036c34.593 0 65.18 22.447 75.533 55.433l9.807 31.247a111.271 111.271 0 00-70.826-25.456l-137.076-.003a111.266 111.266 0 00-70.427 25.128l9.704-30.916c10.352-32.986 40.939-55.433 75.532-55.433h107.753zM268.289 351.216l-24.908 32.767h312.944l-24.905-32.764a79.18 79.18 0 00-63.03-31.255H330.57a79.175 79.175 0 00-62.281 31.252zm287.985 64.803l-24.857 32.733a79.181 79.181 0 01-63.066 31.288l-136.998-.004a79.18 79.18 0 01-63.066-31.287l-24.853-32.73h312.84zM270.591 517.864c10.353 32.986 40.939 55.433 75.533 55.433h107.752c34.593 0 65.18-22.447 75.533-55.433l9.814-31.27a111.266 111.266 0 01-70.874 25.482l-136.993-.004a111.267 111.267 0 01-70.479-25.156l9.714 30.948z" fill="#fff"/></svg>